<svg width="117" height="109" viewBox="0 0 117 109" fill="none" xmlns="http://www.w3.org/2000/svg">
<path d="M58.2549 0.486816L66.9555 13.7325H49.5542L58.2549 0.486816Z" fill="#1B1F2E"/>
<path d="M33.7469 14.6887L40.8571 28.8546L49.5499 13.7565L33.7469 14.6887Z" fill="#1B1F2E"/>
<path d="M33.7469 43.0799L40.8571 28.914L49.5499 44.0121L33.7469 43.0799Z" fill="#1B1F2E"/>
<path d="M82.7692 14.6887L75.659 28.8546L66.9662 13.7565L82.7692 14.6887Z" fill="#1B1F2E"/>
<path d="M82.7522 43.0969L75.6419 28.9311L66.9491 44.0292L82.7522 43.0969Z" fill="#1B1F2E"/>
<path d="M58.2551 57.3032L49.5545 44.0575L66.9558 44.0575L58.2551 57.3032Z" fill="#1B1F2E"/>
<g clip-path="url(#clip0_152_4374)">
<path d="M66.93 13.7329H49.546L40.854 28.8957L49.546 44.0586H66.93L75.6567 28.8957L66.93 13.7329Z" fill="#A9B1CA"/>
</g>
<path d="M66.9215 44.0407L58.2044 57.2923L82.7384 43.1054L66.9215 44.0407Z" fill="#353C53"/>
<path d="M49.5897 44.0407L58.3068 57.2923L33.7729 43.1054L49.5897 44.0407Z" fill="#4A536F"/>
<path d="M66.9215 13.7142L58.2044 0.462621L82.7384 14.6494L66.9215 13.7142Z" fill="#1B1F2E"/>
<path d="M49.5897 13.7142L58.3068 0.462619L33.7729 14.6494L49.5897 13.7142Z" fill="#292F42"/>
<path d="M40.854 28.8758L33.7543 43.0626L33.7543 14.689L40.854 28.8758Z" fill="#353C53"/>
<path d="M75.656 28.8758L82.7558 43.0626L82.7558 14.689L75.656 28.8758Z" fill="#292F42"/>
<path d="M13.3367 78.3924C13.4856 78.3924 13.5972 78.4053 13.6717 78.431C13.7461 78.431 13.8081 78.4053 13.8578 78.3538C14.0563 78.431 14.2796 78.4696 14.5277 78.4696C14.7758 78.4696 15.0363 78.4696 15.3093 78.4696C15.483 78.5468 15.607 78.5983 15.6815 78.624C15.7559 78.624 15.8179 78.624 15.8676 78.624C16.0412 78.6755 16.1653 78.7012 16.2397 78.7012C16.3142 78.7012 16.3762 78.7269 16.4258 78.7784C16.5747 78.8556 16.7608 78.9199 16.9841 78.9714C17.1082 78.9971 17.2571 79.0228 17.4307 79.0486C17.6044 79.0743 17.7533 79.0872 17.8774 79.0872C17.9518 79.1643 18.0387 79.2158 18.1379 79.2415C18.2372 79.2415 18.3364 79.2673 18.4356 79.3187C18.4853 79.3702 18.5473 79.4088 18.6217 79.4345C18.6962 79.4603 18.7582 79.4989 18.8078 79.5503C18.9319 79.5503 19.0436 79.6018 19.1428 79.7047C19.2421 79.7819 19.3289 79.8591 19.4033 79.9363C19.6515 80.0135 19.8251 80.0778 19.9244 80.1293C20.247 80.2579 20.4331 80.3223 20.4827 80.3223C20.5323 80.3223 20.5819 80.3351 20.6315 80.3609C20.8549 80.5667 20.9665 80.6825 20.9665 80.7082C20.9913 80.7082 21.0285 80.734 21.0782 80.7854C21.3511 80.9656 21.5124 81.0813 21.562 81.1328C21.6116 81.1585 21.6861 81.1585 21.7853 81.1328C22.0086 81.3129 22.1451 81.403 22.1947 81.403C22.2444 81.403 22.294 81.4159 22.3436 81.4416C22.418 81.5188 22.4801 81.5831 22.5297 81.6346C22.5793 81.686 22.629 81.7375 22.6786 81.789C22.8026 81.8919 22.8895 81.9819 22.9391 82.0591C22.9887 82.1363 23.0384 82.2007 23.088 82.2521C23.2617 82.3293 23.3485 82.3937 23.3485 82.4451C23.3733 82.4708 23.4105 82.4708 23.4602 82.4451L23.7579 82.7539C23.9316 83.0369 24.0309 83.1785 24.0557 83.1785C24.0805 83.1785 24.1053 83.2042 24.1301 83.2557C24.2542 83.41 24.3286 83.513 24.3534 83.5644C24.403 83.6159 24.4527 83.6674 24.5023 83.7188C24.676 83.9761 24.7752 84.1048 24.8 84.1048C24.8497 84.1048 24.8869 84.1177 24.9117 84.1434C25.0854 84.3235 25.1846 84.4522 25.2094 84.5294C25.2343 84.5808 25.2467 84.6452 25.2467 84.7223C25.3211 84.7995 25.3955 84.8639 25.47 84.9153C25.5444 84.9411 25.6064 85.0054 25.6561 85.1083C25.6809 85.2112 25.7057 85.2884 25.7305 85.3399C25.7553 85.3914 25.7801 85.4557 25.8049 85.5329C25.929 85.6615 26.0034 85.7516 26.0283 85.8031C26.0531 85.8545 26.0903 85.8931 26.1399 85.9189C26.1895 86.099 26.2516 86.2662 26.326 86.4206C26.4253 86.5493 26.5121 86.6908 26.5865 86.8452C26.6858 87.1797 26.7602 87.3984 26.8099 87.5013C26.8347 87.5528 26.8471 87.6171 26.8471 87.6943C26.8719 87.7715 26.8967 87.8487 26.9215 87.9259C27.0704 88.1575 27.1448 88.3248 27.1448 88.4277C27.1448 88.5306 27.1696 88.6464 27.2193 88.7751C27.2937 89.0066 27.3433 89.161 27.3681 89.2382C27.3929 89.2897 27.4054 89.3412 27.4054 89.3926C27.4798 89.7786 27.5046 90.0488 27.4798 90.2032C27.4798 90.3318 27.4922 90.4733 27.517 90.6277C27.5666 90.8593 27.5914 91.0008 27.5914 91.0523C27.6163 91.078 27.6411 91.1166 27.6659 91.1681C27.6907 91.4254 27.7031 91.5541 27.7031 91.5541C27.7279 91.5541 27.7403 91.5798 27.7403 91.6313C27.7651 91.7342 27.7775 91.85 27.7775 91.9786C27.8023 92.1073 27.8396 92.2231 27.8892 92.326C27.8892 92.4547 27.8768 92.5576 27.852 92.6348C27.852 92.712 27.8644 92.7892 27.8892 92.8664C27.8892 93.0208 27.8892 93.1623 27.8892 93.2909C27.914 93.4968 27.914 93.6126 27.8892 93.6383C27.8892 93.664 27.8892 93.7026 27.8892 93.7541C27.8644 93.857 27.852 93.96 27.852 94.0629C27.8768 94.1658 27.8892 94.2687 27.8892 94.3717C27.8892 94.5518 27.8768 94.719 27.852 94.8734C27.8272 95.0278 27.8148 95.1951 27.8148 95.3752C27.8148 95.6325 27.8148 95.7612 27.8148 95.7612C27.8396 95.7612 27.852 95.774 27.852 95.7998C27.8023 96.1857 27.7279 96.4945 27.6287 96.7261C27.6535 96.8547 27.6535 96.9834 27.6287 97.1121C27.6038 97.215 27.579 97.3308 27.5542 97.4594C27.5046 97.5881 27.4674 97.7039 27.4426 97.8068C27.4426 97.884 27.4178 97.9741 27.3681 98.077C27.2441 98.3343 27.1696 98.5144 27.1448 98.6173C27.12 98.6945 27.1076 98.7975 27.1076 98.9261C26.9835 99.0548 26.8967 99.2092 26.8471 99.3893C26.8223 99.5437 26.7354 99.6723 26.5865 99.7753C26.4129 100.033 26.326 100.187 26.326 100.238C26.326 100.29 26.3136 100.341 26.2888 100.393C26.2392 100.496 26.1647 100.612 26.0655 100.74C25.991 100.843 25.929 100.959 25.8794 101.088C25.7553 101.268 25.6685 101.383 25.6189 101.435C25.5196 101.615 25.4328 101.744 25.3583 101.821C25.3087 101.872 25.2591 101.95 25.2094 102.053C25.1598 102.13 25.0978 102.207 25.0234 102.284C24.9737 102.361 24.9365 102.464 24.9117 102.593C24.738 102.747 24.6388 102.85 24.6139 102.902C24.6139 102.953 24.6015 103.005 24.5767 103.056C24.4527 103.236 24.3782 103.339 24.3534 103.365C24.3534 103.391 24.3286 103.416 24.279 103.442C24.1053 103.596 23.9812 103.712 23.9068 103.789C23.8572 103.867 23.8075 103.931 23.7579 103.982C23.5098 104.188 23.3485 104.317 23.2741 104.368C23.1996 104.42 23.1376 104.484 23.088 104.561C22.8895 104.767 22.7902 104.87 22.7902 104.87C22.7902 104.844 22.7654 104.832 22.7158 104.832C22.4925 105.063 22.3436 105.217 22.2692 105.295C22.2195 105.372 22.1575 105.436 22.0831 105.488C22.0086 105.539 21.9218 105.603 21.8225 105.681C21.7481 105.758 21.6737 105.822 21.5992 105.874C21.5496 105.925 21.4876 105.977 21.4131 106.028C21.3387 106.079 21.2767 106.131 21.227 106.182C21.0037 106.363 20.8673 106.465 20.8176 106.491C20.7928 106.491 20.768 106.517 20.7432 106.568C20.5695 106.62 20.3958 106.697 20.2221 106.8C20.0733 106.903 19.912 106.98 19.7383 107.032C19.4654 107.16 19.3041 107.25 19.2545 107.302C19.2048 107.327 19.1552 107.353 19.1056 107.379C18.8575 107.456 18.721 107.495 18.6962 107.495C18.6962 107.469 18.6714 107.469 18.6217 107.495C18.3488 107.598 18.1627 107.649 18.0635 107.649C17.989 107.623 17.8898 107.636 17.7657 107.688C17.4928 107.765 17.3563 107.803 17.3563 107.803C16.9593 107.881 16.674 107.945 16.5003 107.996C16.3266 108.048 16.1529 108.087 15.9792 108.112C15.88 108.138 15.7063 108.151 15.4582 108.151C15.3341 108.202 15.2348 108.228 15.1604 108.228C15.1108 108.254 15.0612 108.28 15.0115 108.305C14.7634 108.331 14.5649 108.331 14.416 108.305C14.2672 108.28 14.0687 108.305 13.8205 108.382C13.7213 108.331 13.6096 108.318 13.4856 108.344C13.3863 108.37 13.3119 108.357 13.2623 108.305C13.0141 108.305 12.8404 108.318 12.7412 108.344C12.6419 108.37 12.5551 108.382 12.4807 108.382C12.2325 108.357 12.0588 108.331 11.9596 108.305C11.8852 108.305 11.8231 108.318 11.7735 108.344C11.5998 108.267 11.4882 108.215 11.4385 108.189C11.4137 108.189 11.3765 108.202 11.3269 108.228L10.9175 108.151C10.6694 108.048 10.5081 107.996 10.4336 107.996C10.3592 108.022 10.2848 108.022 10.2103 107.996C10.0863 107.971 9.9746 107.932 9.87535 107.881C9.7761 107.829 9.67685 107.829 9.5776 107.881C9.35429 107.726 9.19301 107.636 9.09376 107.611C9.01932 107.559 8.93248 107.52 8.83323 107.495C8.60992 107.315 8.47345 107.212 8.42383 107.186C8.39901 107.16 8.3618 107.134 8.31217 107.109C8.03923 107.006 7.89036 106.941 7.86555 106.916C7.84073 106.89 7.80351 106.877 7.75389 106.877C7.55539 106.723 7.44373 106.658 7.41892 106.684C7.41892 106.684 7.39411 106.671 7.34448 106.646C7.09636 106.414 6.9723 106.298 6.9723 106.298C6.99711 106.272 6.9847 106.234 6.93508 106.182C6.71177 106.079 6.60011 106.028 6.60011 106.028C6.60011 106.002 6.5877 105.989 6.56289 105.989L6.15349 105.642L5.7813 105.41C5.5828 105.179 5.48355 105.05 5.48355 105.024L5.14858 104.754C4.87565 104.523 4.68955 104.381 4.5903 104.33C4.51587 104.253 4.41662 104.175 4.29255 104.098C4.1933 103.918 4.13127 103.815 4.10646 103.789C4.10646 103.764 4.08165 103.738 4.03202 103.712C3.85834 103.429 3.74668 103.262 3.69705 103.21C3.64743 103.133 3.5854 103.069 3.51096 103.017C3.43652 102.786 3.30006 102.58 3.10156 102.4C2.92787 102.143 2.81621 101.988 2.76659 101.937C2.71696 101.834 2.65493 101.744 2.58049 101.667C2.53087 101.564 2.48124 101.448 2.43162 101.319C2.30756 101.165 2.20831 101.049 2.13387 100.972C2.00981 100.74 1.94778 100.612 1.94778 100.586C1.89815 100.534 1.83612 100.393 1.76168 100.161C1.588 99.8267 1.48875 99.6209 1.46393 99.5437C1.31506 99.2606 1.24062 99.0934 1.24062 99.0419C1.24062 98.9905 1.21581 98.939 1.16619 98.8875C1.06694 98.6045 1.0049 98.4372 0.980092 98.3858L0.831217 97.8454C0.731967 97.6138 0.669936 97.408 0.645124 97.2278C0.620311 97.0477 0.570686 96.8805 0.496249 96.7261C0.471437 96.5717 0.446624 96.4688 0.421812 96.4173C0.421812 96.3401 0.396999 96.2501 0.347374 96.1471C0.1985 95.6582 0.136468 95.2337 0.161281 94.8734C0.161281 94.7705 0.161281 94.6804 0.161281 94.6032C0.186093 94.526 0.1985 94.436 0.1985 94.3331C0.173687 94.2301 0.148875 94.1272 0.124062 94.0243C0.124062 93.9214 0.111656 93.8056 0.0868436 93.6769C0.111656 93.4196 0.0992498 93.2523 0.0496249 93.1751C0.0248124 93.0979 0.0248124 93.0079 0.0496249 92.905C0 92.7506 -0.0124062 92.6476 0.0124062 92.5962C0.0372187 92.519 0.0496249 92.4161 0.0496249 92.2874C0.0496249 92.1073 0.0496249 92.0044 0.0496249 91.9786C0.0744373 91.9529 0.0868436 91.9143 0.0868436 91.8628C0.111656 91.7599 0.124062 91.657 0.124062 91.5541C0.124062 91.4511 0.136468 91.3482 0.161281 91.2453C0.186093 91.0137 0.1985 90.8593 0.1985 90.7821C0.1985 90.7049 0.210906 90.602 0.235718 90.4733C0.285343 90.1388 0.322562 89.9587 0.347374 89.933C0.396999 89.6499 0.421812 89.4698 0.421812 89.3926C0.421812 89.3154 0.434218 89.2382 0.45903 89.161C0.55828 88.9809 0.607905 88.878 0.607905 88.8523C0.607905 88.8008 0.632717 88.7622 0.682342 88.7365C0.707155 88.4277 0.744373 88.1961 0.793998 88.0417C0.967685 87.7587 1.05453 87.6043 1.05453 87.5785C1.05453 87.5271 1.06694 87.4756 1.09175 87.4242C1.11656 87.3727 1.15378 87.3212 1.2034 87.2698C1.25303 87.1926 1.30265 87.1154 1.35228 87.0382C1.42672 86.9095 1.48875 86.7809 1.53837 86.6522C1.61281 86.4978 1.69965 86.3563 1.7989 86.2276C1.74928 86.1504 1.76168 86.0733 1.83612 85.9961C1.91056 85.9189 1.92296 85.8417 1.87334 85.7645C1.97259 85.6615 2.04703 85.5458 2.09665 85.4171C2.17109 85.2884 2.25793 85.1855 2.35718 85.1083C2.35718 84.9797 2.38199 84.8767 2.43162 84.7995C2.50606 84.7224 2.56809 84.6452 2.61771 84.568C2.66734 84.465 2.72937 84.3878 2.80381 84.3364C2.90306 84.2592 2.9899 84.182 3.06434 84.1048C3.23802 83.8989 3.32487 83.7832 3.32487 83.7574C3.32487 83.7317 3.33727 83.706 3.36209 83.6802C3.48615 83.5001 3.56059 83.3972 3.5854 83.3714C3.63502 83.3457 3.67224 83.2943 3.69705 83.2171C3.7963 83.1913 3.87074 83.1399 3.92037 83.0627C3.9948 82.9855 4.06924 82.9211 4.14368 82.8697C4.26774 82.7668 4.34218 82.7153 4.36699 82.7153C4.41662 82.6896 4.46624 82.651 4.51587 82.5995C4.66474 82.4194 4.7764 82.2907 4.85083 82.2135C4.90046 82.1621 4.95008 82.1106 4.99971 82.0591C5.04933 82.0077 5.09896 81.9562 5.14858 81.9048C5.34708 81.6989 5.45874 81.596 5.48355 81.596C5.65724 81.493 5.75649 81.4287 5.7813 81.403C5.83093 81.3515 5.90536 81.3129 6.00461 81.2872L6.30236 80.9784C6.47605 80.7983 6.5753 80.6954 6.60011 80.6696C6.62492 80.6439 6.64974 80.6053 6.67455 80.5538L7.08395 80.2837C7.25764 80.1035 7.39411 80.0135 7.49336 80.0135C7.74148 79.8591 7.89036 79.7819 7.93998 79.7819C8.01442 79.7819 8.08886 79.7562 8.1633 79.7047C8.38661 79.6532 8.54789 79.6147 8.64714 79.5889C8.79601 79.486 8.89526 79.4345 8.94489 79.4345C8.99451 79.4088 9.04414 79.3831 9.09376 79.3573C9.41632 79.3831 9.65204 79.3573 9.80092 79.2801C9.94979 79.2029 10.0863 79.1386 10.2103 79.0872C10.384 78.9842 10.5205 78.907 10.6197 78.8556C10.719 78.7784 10.8306 78.7269 10.9547 78.7012C11.2524 78.6755 11.4385 78.6497 11.513 78.624C11.5874 78.5983 11.6867 78.5854 11.8107 78.5854L12.369 78.4696C12.6171 78.4181 12.766 78.4053 12.8156 78.431C12.8901 78.4567 12.9521 78.4696 13.0017 78.4696L13.3367 78.3924ZM19.9244 87.6171C19.9244 87.4885 19.8872 87.3856 19.8127 87.3084C19.7631 87.2054 19.7135 87.0896 19.6639 86.961C19.4406 86.7294 19.2917 86.5879 19.2172 86.5364C19.1676 86.485 19.1056 86.4335 19.0311 86.382C18.8575 86.1762 18.7086 86.0347 18.5845 85.9575C18.4356 85.7773 18.3364 85.6873 18.2868 85.6873C18.262 85.6873 18.2496 85.6615 18.2496 85.6101L17.8774 85.3785C17.6541 85.1984 17.4059 85.044 17.133 84.9153L16.7236 84.7995C16.4258 84.6709 16.2522 84.5808 16.2025 84.5294C16.0288 84.4264 15.9048 84.375 15.8303 84.375C15.7559 84.375 15.6939 84.3621 15.6442 84.3364C15.3713 84.2335 15.21 84.1691 15.1604 84.1434C14.9123 84.1177 14.7634 84.0919 14.7138 84.0662C14.6642 84.0147 14.6145 84.0147 14.5649 84.0662H14.0066C13.7833 84.0919 13.6096 84.1177 13.4856 84.1434C13.3615 84.1434 13.2498 84.1691 13.1506 84.2206C12.828 84.2978 12.6171 84.3364 12.5179 84.3364C12.4186 84.3364 12.307 84.3621 12.1829 84.4136C11.9844 84.4908 11.8603 84.5422 11.8107 84.568C11.7611 84.5937 11.7239 84.5937 11.6991 84.568C11.4758 84.6194 11.3517 84.658 11.3269 84.6838C11.3021 84.6838 11.2773 84.6966 11.2524 84.7223L10.8803 84.9153C10.781 84.9668 10.6942 85.0183 10.6197 85.0697C10.5701 85.0955 10.5205 85.1341 10.4709 85.1855C10.1731 85.4171 9.99942 85.5458 9.94979 85.5715C9.72648 85.7773 9.61482 85.8674 9.61482 85.8417C9.3667 86.2019 9.18061 86.4464 9.05654 86.575C8.95729 86.6779 8.87045 86.7937 8.79601 86.9224C8.67195 86.9481 8.58511 87.0125 8.53548 87.1154C8.48586 87.2183 8.41142 87.2955 8.31217 87.347C8.26255 87.5013 8.20051 87.63 8.12608 87.7329C8.05164 87.8359 7.98961 87.9645 7.93998 88.1189C7.81592 88.3248 7.70427 88.5049 7.60502 88.6593C7.53058 88.7879 7.46855 88.9166 7.41892 89.0452C7.3693 89.2254 7.34448 89.3669 7.34448 89.4698C7.22042 89.6757 7.15839 89.8043 7.15839 89.8558C7.1832 89.8815 7.19561 89.9072 7.19561 89.933C7.19561 90.1131 7.1832 90.2289 7.15839 90.2803C7.15839 90.3318 7.15839 90.3833 7.15839 90.4347C7.10877 90.7178 7.07155 90.8722 7.04674 90.8979C7.04674 90.8979 7.04674 90.9108 7.04674 90.9365C6.9723 91.2195 6.93508 91.3739 6.93508 91.3997C6.95989 91.4254 6.95989 91.464 6.93508 91.5155C6.83583 91.8242 6.7862 92.0687 6.7862 92.2488C6.81102 92.4032 6.82342 92.5447 6.82342 92.6734C6.79861 92.8535 6.7862 92.995 6.7862 93.0979C6.81102 93.1751 6.82342 93.2523 6.82342 93.3295C6.7738 93.664 6.74899 93.8828 6.74899 93.9857C6.7738 94.0629 6.7862 94.1529 6.7862 94.2559C6.7862 94.3331 6.7738 94.4103 6.74899 94.4874C6.74899 94.5646 6.76139 94.6418 6.7862 94.719C6.81102 94.7705 6.83583 94.8348 6.86064 94.912C6.88545 94.9892 6.89786 95.0664 6.89786 95.1436C6.92267 95.4266 6.93508 95.581 6.93508 95.6068C6.95989 95.6325 6.9723 95.6711 6.9723 95.7226C7.02192 95.9284 7.03433 96.1085 7.00952 96.2629C7.00952 96.3916 7.05914 96.5202 7.15839 96.6489C7.15839 96.7261 7.15839 96.829 7.15839 96.9577C7.1832 97.0863 7.20802 97.1764 7.23283 97.2278C7.33208 97.3822 7.39411 97.5109 7.41892 97.6138L7.64223 98.0384C7.66705 98.167 7.70426 98.27 7.75389 98.3472C7.80351 98.4244 7.84073 98.5144 7.86555 98.6173C7.98961 98.746 8.10126 98.8875 8.20051 99.0419C8.29976 99.1706 8.3742 99.3378 8.42383 99.5437C8.47345 99.5951 8.53548 99.6466 8.60992 99.6981C8.68436 99.7495 8.74639 99.8267 8.79601 99.9297C9.06895 100.187 9.23023 100.354 9.27986 100.431C9.40392 100.483 9.51557 100.56 9.61482 100.663C9.73889 100.74 9.86295 100.83 9.98701 100.933C10.0614 100.985 10.1359 101.049 10.2103 101.126C10.2848 101.178 10.3468 101.216 10.3964 101.242C10.5701 101.396 10.6942 101.474 10.7686 101.474C10.843 101.474 10.9051 101.486 10.9547 101.512C11.2276 101.615 11.3765 101.679 11.4013 101.705C11.6743 101.808 11.8107 101.86 11.8107 101.86C12.1085 101.988 12.307 102.065 12.4062 102.091C12.5055 102.117 12.5799 102.143 12.6295 102.168C12.9025 102.22 13.0638 102.233 13.1134 102.207C13.1878 102.181 13.2498 102.168 13.2995 102.168C13.5476 102.168 13.6841 102.168 13.7089 102.168C13.7337 102.143 13.7709 102.13 13.8205 102.13C14.1431 102.207 14.3292 102.245 14.3788 102.245C14.4533 102.22 14.5277 102.194 14.6021 102.168C14.8006 102.091 15.0363 102.078 15.3093 102.13C15.4333 102.078 15.545 102.04 15.6442 102.014C15.7683 101.962 15.88 101.911 15.9792 101.86C16.1033 101.782 16.1901 101.757 16.2397 101.782C16.3142 101.782 16.3762 101.769 16.4258 101.744C16.674 101.641 16.8104 101.576 16.8352 101.551C17.0089 101.422 17.133 101.371 17.2074 101.396C17.3067 101.396 17.3811 101.396 17.4307 101.396C17.5548 101.371 17.6417 101.332 17.6913 101.281C17.7409 101.203 17.8153 101.152 17.9146 101.126C18.1131 101.075 18.2496 101.01 18.324 100.933C18.6217 100.805 18.783 100.727 18.8078 100.702C18.8326 100.65 18.8699 100.624 18.9195 100.624C19.2172 100.316 19.3909 100.11 19.4406 100.007C19.6142 99.8525 19.7259 99.7495 19.7755 99.6981C19.8251 99.4665 19.8872 99.3121 19.9616 99.2349C20.1105 99.1834 20.1973 99.132 20.2221 99.0805C20.2718 99.0033 20.309 98.939 20.3338 98.8875C20.4579 98.6559 20.5323 98.5273 20.5571 98.5016C20.5819 98.4758 20.5943 98.4501 20.5943 98.4244C20.644 98.2185 20.6564 98.1027 20.6315 98.077C20.6315 98.0513 20.6315 98.0127 20.6315 97.9612C20.7804 97.7553 20.8797 97.5366 20.9293 97.305C20.9541 97.1764 20.9789 97.0349 21.0037 96.8805C21.0534 96.7004 21.103 96.5846 21.1526 96.5331C21.2519 96.2501 21.3139 96.0699 21.3387 95.9927C21.3635 95.8898 21.3883 95.7869 21.4131 95.684C21.438 95.5038 21.4628 95.388 21.4876 95.3366C21.5124 95.2594 21.5248 95.1951 21.5248 95.1436C21.5 94.8606 21.5 94.7062 21.5248 94.6804C21.5496 94.629 21.5372 94.5775 21.4876 94.526C21.562 94.1915 21.5992 93.9857 21.5992 93.9085C21.5744 93.6769 21.562 93.5225 21.562 93.4453C21.5868 93.3424 21.5744 93.2652 21.5248 93.2137C21.5744 92.905 21.562 92.5962 21.4876 92.2874L21.3759 91.8242C21.3015 91.5927 21.2643 91.4383 21.2643 91.3611C21.2395 91.078 21.1898 90.885 21.1154 90.7821C21.0161 90.5763 20.9665 90.4347 20.9665 90.3575C20.9913 90.2803 21.0037 90.216 21.0037 90.1646C20.9789 90.0874 20.9417 90.0102 20.8921 89.933C20.8673 89.8558 20.8425 89.7786 20.8176 89.7014C20.7928 89.4183 20.768 89.2511 20.7432 89.1996C20.6191 88.9423 20.5571 88.7879 20.5571 88.7365C20.4331 88.4534 20.371 88.2733 20.371 88.1961C20.371 88.0932 20.3462 87.9774 20.2966 87.8487C20.1725 87.8487 20.0857 87.8101 20.0361 87.7329C20.0112 87.6557 19.974 87.6171 19.9244 87.6171Z" fill="#1B1F2E"/>
<path d="M46.4985 94.0629C46.5482 94.1401 46.5854 94.2173 46.6102 94.2945C46.635 94.3717 46.6722 94.436 46.7218 94.4874C46.8459 94.6418 46.9327 94.7448 46.9824 94.7962C47.032 94.8477 47.0816 94.8863 47.1312 94.912C47.2305 94.9892 47.3049 95.0535 47.3546 95.105C47.4042 95.1307 47.4414 95.1693 47.4662 95.2208C47.5406 95.2465 47.6027 95.298 47.6523 95.3752C47.7019 95.4266 47.7764 95.4524 47.8756 95.4524C48.0245 95.7354 48.161 95.8898 48.285 95.9155L48.62 96.1857C48.6696 96.2372 48.7192 96.3015 48.7689 96.3787C48.8433 96.4302 48.9177 96.4816 48.9922 96.5331C49.2651 96.7904 49.414 96.9577 49.4388 97.0349C49.6125 97.2664 49.7366 97.408 49.811 97.4594C49.8854 97.5109 49.9475 97.5624 49.9971 97.6138C50.1956 97.8197 50.3445 97.9998 50.4437 98.1542C50.667 98.36 50.7911 98.5144 50.8159 98.6173C50.8407 98.7203 50.8779 98.7975 50.9276 98.8489C51.002 99.0805 51.0392 99.2349 51.0392 99.3121C51.1881 99.5694 51.2749 99.7753 51.2997 99.9297C51.3494 100.058 51.399 100.2 51.4486 100.354C51.4238 100.637 51.399 100.817 51.3742 100.895C51.3742 100.972 51.3618 101.049 51.337 101.126C51.2129 101.435 51.1509 101.628 51.1509 101.705C51.1757 101.782 51.1633 101.872 51.1136 101.975C51.0888 102.078 51.0392 102.168 50.9648 102.245C50.9151 102.323 50.8903 102.426 50.8903 102.554C50.8159 102.606 50.7539 102.67 50.7042 102.747C50.6546 102.824 50.605 102.902 50.5554 102.979C50.3817 103.159 50.2824 103.262 50.2576 103.288C50.2328 103.288 50.1956 103.313 50.146 103.365L49.8482 103.828C49.6745 104.034 49.5753 104.15 49.5505 104.175C49.5256 104.175 49.5008 104.201 49.476 104.253C49.352 104.381 49.2403 104.523 49.1411 104.677C48.8185 104.883 48.5704 105.102 48.3967 105.333C48.1237 105.513 47.9625 105.629 47.9128 105.681C47.888 105.706 47.8508 105.745 47.8012 105.796C47.6275 105.874 47.5034 105.938 47.429 105.989C47.3794 106.041 47.3297 106.092 47.2801 106.144C47.0072 106.324 46.8211 106.44 46.7218 106.491L46.3869 106.761C46.2132 106.916 46.1139 106.993 46.0891 106.993C46.0643 106.993 46.0395 107.006 46.0147 107.032L45.6797 107.302C45.4812 107.353 45.3696 107.392 45.3447 107.418C45.3199 107.443 45.2827 107.456 45.2331 107.456C45.0346 107.585 44.7989 107.675 44.5259 107.726C44.2778 107.778 44.0297 107.855 43.7816 107.958C43.5583 107.932 43.4094 107.919 43.3349 107.919C43.2853 107.919 43.2357 107.932 43.1861 107.958C42.9379 107.984 42.727 108.009 42.5533 108.035C42.4045 108.061 42.2432 108.074 42.0695 108.074L41.3996 108.035C41.1266 107.984 40.9654 107.945 40.9157 107.919C40.8661 107.894 40.8165 107.868 40.7669 107.842C40.5435 107.791 40.4071 107.765 40.3574 107.765C40.3078 107.791 40.2582 107.803 40.2086 107.803C40.0845 107.803 39.9729 107.791 39.8736 107.765C39.7992 107.765 39.6999 107.765 39.5759 107.765C39.5014 107.765 39.4146 107.765 39.3153 107.765C39.2409 107.791 39.154 107.791 39.0548 107.765C39.0052 107.765 38.9307 107.765 38.8315 107.765C38.757 107.791 38.695 107.803 38.6454 107.803C38.4469 107.803 38.298 107.816 38.1988 107.842C38.1243 107.868 38.0127 107.881 37.8638 107.881C37.6653 107.855 37.5288 107.855 37.4544 107.881C37.4048 107.906 37.3551 107.932 37.3055 107.958C37.0574 108.009 36.8341 108.022 36.6356 107.996C36.4371 107.996 36.2758 108.035 36.1517 108.112C36.0525 108.061 35.9532 108.035 35.854 108.035C35.7795 108.061 35.6927 108.087 35.5935 108.112C35.2461 108.087 34.998 108.087 34.8491 108.112C34.7002 108.138 34.5389 108.138 34.3652 108.112C34.1667 108.061 34.0551 108.035 34.0303 108.035C34.0055 108.061 33.9682 108.074 33.9186 108.074C33.869 108.074 33.7946 108.061 33.6953 108.035C33.5961 108.035 33.5216 108.048 33.472 108.074C33.075 107.971 32.8145 107.932 32.6904 107.958C32.5663 107.984 32.4423 107.984 32.3182 107.958C32.1941 107.906 32.0701 107.842 31.946 107.765C31.7723 107.611 31.6607 107.508 31.6111 107.456C31.5862 107.405 31.5738 107.353 31.5738 107.302C31.5738 107.096 31.5614 106.954 31.5366 106.877C31.5366 106.8 31.5366 106.723 31.5366 106.646C31.5614 106.517 31.5614 106.427 31.5366 106.375C31.5366 106.298 31.5366 106.221 31.5366 106.144L31.4994 105.526V105.063C31.549 104.883 31.5614 104.78 31.5366 104.754C31.5366 104.703 31.549 104.651 31.5738 104.6C31.5987 104.471 31.6111 104.355 31.6111 104.253C31.6359 104.15 31.6607 104.008 31.6855 103.828C31.7599 103.545 31.7847 103.378 31.7599 103.326C31.7599 103.249 31.7599 103.185 31.7599 103.133C31.7847 103.005 31.8096 102.902 31.8344 102.824C31.8592 102.722 31.8716 102.619 31.8716 102.516V102.053C31.8964 101.872 31.8964 101.769 31.8716 101.744C31.8716 101.718 31.8716 101.679 31.8716 101.628C31.8964 101.499 31.9088 101.371 31.9088 101.242C31.9336 101.088 31.946 100.92 31.946 100.74C31.9708 100.406 31.9708 100.213 31.946 100.161C31.946 100.11 31.946 100.058 31.946 100.007C31.9708 99.6981 31.9708 99.4922 31.946 99.3893C31.946 99.2864 31.946 99.1706 31.946 99.0419C31.9708 98.9905 31.9708 98.9261 31.946 98.8489C31.9212 98.746 31.9088 98.6431 31.9088 98.5402C31.9088 98.4372 31.9088 98.3472 31.9088 98.27C31.9336 98.167 31.946 98.0513 31.946 97.9226C31.946 97.5881 31.9336 97.3436 31.9088 97.1893C31.9088 97.0349 31.8964 96.8805 31.8716 96.7261C31.8716 96.6232 31.8592 96.5331 31.8344 96.4559C31.8344 96.353 31.8344 96.2501 31.8344 96.1471V94.9892C31.8096 94.7319 31.7972 94.5904 31.7972 94.5646L31.7227 93.2137C31.6979 93.1365 31.6731 93.0594 31.6483 92.9822C31.6235 92.905 31.6111 92.8278 31.6111 92.7506L31.6483 92.2874L31.6855 91.7856C31.6607 91.5026 31.6235 91.2839 31.5738 91.1295C31.5987 90.7692 31.5862 90.5377 31.5366 90.4347C31.5118 90.3061 31.5242 90.1903 31.5738 90.0874C31.5738 89.9072 31.5614 89.7915 31.5366 89.74C31.5366 89.6628 31.5366 89.5985 31.5366 89.547C31.4374 89.0838 31.3753 88.7365 31.3505 88.5049C31.3257 88.3248 31.3257 88.1318 31.3505 87.9259C31.3753 87.7201 31.3753 87.5142 31.3505 87.3084C31.3505 87.2312 31.3381 87.154 31.3133 87.0768C31.3133 86.9996 31.3133 86.9353 31.3133 86.8838C31.2885 86.7294 31.2885 86.5622 31.3133 86.382C31.3381 86.2019 31.3505 86.0475 31.3505 85.9189C31.3505 85.6873 31.3381 85.5586 31.3133 85.5329C31.2885 85.5072 31.2761 85.4814 31.2761 85.4557C31.2761 85.3528 31.2885 85.2627 31.3133 85.1855C31.3381 85.1083 31.3505 85.0311 31.3505 84.9539L31.3133 84.1434C31.2885 84.0662 31.2637 84.0019 31.2389 83.9504C31.2141 83.8732 31.2017 83.7832 31.2017 83.6802V83.0627C31.2017 82.8311 31.1893 82.5995 31.1644 82.3679C31.1396 82.1106 31.152 81.8919 31.2017 81.7118C31.152 81.6346 31.1272 81.5059 31.1272 81.3258C31.152 81.1199 31.1272 80.9784 31.0528 80.9012C31.0776 80.5924 31.0776 80.4252 31.0528 80.3995C31.028 80.3737 31.0156 80.3351 31.0156 80.2837C31.0156 80.0521 31.0404 79.9234 31.09 79.8977C31.1396 79.8462 31.1396 79.7819 31.09 79.7047C31.2389 79.4217 31.3505 79.2801 31.425 79.2801C31.5242 79.2544 31.5987 79.2158 31.6483 79.1643C31.7723 79.1643 31.8592 79.1772 31.9088 79.2029C31.9584 79.2029 32.0081 79.1643 32.0577 79.0872H32.5043C32.7028 79.1386 32.8145 79.1643 32.8393 79.1643C32.8641 79.1386 32.9013 79.1258 32.9509 79.1258C33.2487 79.1515 33.472 79.1515 33.6209 79.1258C33.7946 79.1 33.9558 79.1129 34.1047 79.1643C34.1791 79.1129 34.266 79.1 34.3652 79.1258C34.4893 79.1515 34.5513 79.1386 34.5513 79.0872C34.8243 79.1129 34.998 79.1386 35.0724 79.1643C35.1468 79.1643 35.2089 79.1515 35.2585 79.1258C35.6307 79.0743 35.8416 79.0614 35.8912 79.0872C36.0897 79.1129 36.2014 79.1258 36.2262 79.1258C36.2758 79.1 36.3254 79.0872 36.375 79.0872C36.6728 79.0872 36.8217 79.0614 36.8217 79.01C37.1939 79.1386 37.4668 79.1901 37.6405 79.1643C37.839 79.1129 38.0003 79.0872 38.1243 79.0872H39.0176C39.2161 79.0614 39.3898 79.0486 39.5386 79.0486C39.6875 79.0228 39.8488 78.9842 40.0225 78.9328C40.2706 79.01 40.4195 79.0357 40.4691 79.01C40.5435 78.9842 40.618 78.9585 40.6924 78.9328H41.3996C41.7966 78.9328 42.0819 78.9328 42.2556 78.9328C42.4541 78.9328 42.6526 78.9328 42.8511 78.9328C43 78.907 43.124 78.8942 43.2233 78.8942C43.3473 78.8684 43.459 78.8298 43.5583 78.7784L44.0049 78.8942C44.2282 78.8942 44.3523 78.8942 44.3771 78.8942C44.4019 78.8684 44.4391 78.8684 44.4887 78.8942C44.6872 78.9714 44.7989 79.01 44.8237 79.01C44.8485 79.01 44.8857 79.0228 44.9353 79.0486C45.0098 79.0743 45.0842 79.1 45.1587 79.1258C45.2331 79.1515 45.3199 79.1643 45.4192 79.1643C45.6921 79.293 45.903 79.3831 46.0519 79.4345C46.176 79.6404 46.2628 79.769 46.3124 79.8205C46.3869 79.872 46.4489 79.9363 46.4985 80.0135C46.6474 80.1936 46.7218 80.2965 46.7218 80.3223C46.7467 80.348 46.7715 80.3737 46.7963 80.3995C46.9452 80.5796 47.0196 80.6825 47.0196 80.7082C47.0196 80.7082 47.032 80.7211 47.0568 80.7468C47.1561 80.8498 47.2305 80.9398 47.2801 81.017C47.3297 81.0942 47.3918 81.1585 47.4662 81.21C47.6151 81.3901 47.7267 81.5445 47.8012 81.6732C47.9004 81.7761 47.9997 81.8919 48.0989 82.0205C48.2974 82.3036 48.4339 82.4837 48.5083 82.5609C48.5828 82.6381 48.6448 82.7282 48.6944 82.8311C48.7937 82.9083 48.8681 82.9726 48.9177 83.0241C48.9674 83.0755 49.017 83.127 49.0666 83.1785C49.3147 83.513 49.4636 83.7446 49.5132 83.8732C49.6869 84.0533 49.7986 84.1691 49.8482 84.2206C49.8978 84.272 49.9475 84.3235 49.9971 84.375C50.146 84.658 50.27 84.851 50.3693 84.9539C50.5678 85.1855 50.667 85.3142 50.667 85.3399C50.6918 85.3656 50.729 85.4171 50.7787 85.4943C50.9524 85.7001 51.0516 85.8288 51.0764 85.8803C51.2501 86.1376 51.337 86.2791 51.337 86.3048C51.3618 86.3306 51.3866 86.3563 51.4114 86.382C51.5851 86.6136 51.6719 86.7809 51.6719 86.8838C51.6719 86.961 51.6967 87.0639 51.7464 87.1926C51.8208 87.3984 51.8704 87.5142 51.8952 87.5399C51.92 87.5657 51.9325 87.6043 51.9325 87.6557C51.9573 87.9388 51.9449 88.1704 51.8952 88.3505C51.8456 88.5821 51.796 88.7236 51.7464 88.7751C51.7215 88.8265 51.6967 88.878 51.6719 88.9294C51.6223 89.0066 51.5975 89.0967 51.5975 89.1996C51.6223 89.2768 51.6099 89.3669 51.5603 89.4698C51.337 89.6757 51.1881 89.8172 51.1136 89.8944C51.064 89.9458 51.0144 89.9973 50.9648 90.0488C50.8159 90.2289 50.729 90.3704 50.7042 90.4733C50.5802 90.5248 50.4933 90.602 50.4437 90.7049C50.4189 90.7821 50.3445 90.8464 50.2204 90.8979C50.1708 91.0266 50.1087 91.1166 50.0343 91.1681C49.9599 91.1938 49.8978 91.271 49.8482 91.3997C49.5256 91.5798 49.2651 91.747 49.0666 91.9014C49.017 91.9529 48.9674 92.0044 48.9177 92.0558C48.8681 92.1073 48.8061 92.1459 48.7316 92.1716C48.6076 92.3003 48.5207 92.3903 48.4711 92.4418C48.4463 92.4675 48.4091 92.5061 48.3595 92.5576C48.161 92.6605 47.9625 92.7892 47.764 92.9436C47.5158 93.1237 47.367 93.2266 47.3173 93.2523C47.2925 93.2523 47.2553 93.2781 47.2057 93.3295C46.9824 93.5611 46.8583 93.6898 46.8335 93.7155C46.6598 93.8956 46.573 93.9985 46.573 94.0243C46.573 94.0243 46.5482 94.0371 46.4985 94.0629ZM44.5259 87.347C44.3522 87.0896 44.2654 86.9481 44.2654 86.9224C44.2654 86.8967 44.253 86.8581 44.2282 86.8066C44.0793 86.6522 43.9925 86.5493 43.9677 86.4978C43.9677 86.4464 43.9428 86.3949 43.8932 86.3434C43.7443 86.1376 43.6575 86.0218 43.6327 85.9961C43.5086 85.8159 43.4094 85.6873 43.3349 85.6101C43.2853 85.5586 43.2357 85.4943 43.1861 85.4171C43.1612 85.3399 43.124 85.2756 43.0744 85.2241C42.8759 85.0183 42.7643 84.9153 42.7394 84.9153C42.5658 84.7095 42.4541 84.5808 42.4045 84.5294C42.2308 84.2978 42.1315 84.182 42.1067 84.182C42.1067 84.1563 42.0943 84.1434 42.0695 84.1434L41.7345 83.8346C41.6849 83.7574 41.6353 83.6931 41.5857 83.6416C41.5609 83.5902 41.5236 83.5258 41.474 83.4486C41.3996 83.4229 41.3251 83.3843 41.2507 83.3328C41.2011 83.2814 41.1514 83.2299 41.1018 83.1785C40.8289 83.0241 40.6924 82.9469 40.6924 82.9469C40.4939 82.844 40.3699 82.7925 40.3202 82.7925C40.2706 82.7668 40.2334 82.741 40.2086 82.7153C40.1093 82.6638 40.0225 82.6381 39.948 82.6381C39.8736 82.6124 39.8116 82.5866 39.7619 82.5609C39.6875 82.5352 39.6131 82.5223 39.5386 82.5223C39.489 82.5223 39.4146 82.5094 39.3153 82.4837C39.0424 82.458 38.8687 82.4194 38.7943 82.3679C38.7198 82.3165 38.6454 82.3165 38.5709 82.3679C38.3973 82.7024 38.2856 82.9469 38.236 83.1013C38.2112 83.2299 38.1864 83.3714 38.1615 83.5258L38.0127 84.182C37.9879 84.2592 37.9755 84.3492 37.9755 84.4522C38.0003 84.5551 38.0003 84.658 37.9755 84.7609C37.8762 85.2241 37.839 85.5586 37.8638 85.7645C37.8886 85.9446 37.9134 86.1376 37.9382 86.3434C37.9382 86.4721 37.9258 86.6007 37.901 86.7294C37.901 86.8581 37.9134 86.9867 37.9382 87.1154C37.9382 87.1926 37.9506 87.2698 37.9755 87.347C38.0003 87.4242 38.0003 87.5142 37.9755 87.6171C37.9755 87.8745 37.963 88.0288 37.9382 88.0803C37.9382 88.1318 37.9382 88.1832 37.9382 88.2347C38.0127 88.5949 38.0375 88.8523 38.0127 89.0066C38.0127 89.1353 38.0375 89.264 38.0871 89.3926C37.963 89.5727 37.963 89.8172 38.0871 90.126C38.0127 90.2803 38.0003 90.4476 38.0499 90.6277L38.0871 91.1295C38.0375 91.3096 38.0127 91.464 38.0127 91.5927C37.9879 91.7985 37.9879 91.9658 38.0127 92.0944C38.0623 92.1973 38.1119 92.3131 38.1615 92.4418C38.3849 92.4161 38.4965 92.4032 38.4965 92.4032C38.5213 92.4032 38.5461 92.3903 38.5709 92.3646C38.8687 92.3131 39.0176 92.2874 39.0176 92.2874C39.1664 92.1845 39.2657 92.133 39.3153 92.133C39.3898 92.133 39.4518 92.1202 39.5014 92.0944C39.7495 91.94 39.8984 91.8628 39.948 91.8628C39.9977 91.8114 40.0597 91.7728 40.1341 91.747C40.2086 91.6956 40.2706 91.6441 40.3202 91.5927C40.5684 91.464 40.7172 91.3997 40.7669 91.3997C40.9405 91.2967 41.0398 91.2453 41.0646 91.2453C41.1142 91.2453 41.1638 91.2324 41.2135 91.2067C41.3872 91.0266 41.5112 90.9365 41.5857 90.9365L41.9206 90.6277C42.1936 90.3961 42.4293 90.2546 42.6278 90.2032C42.8263 90.1517 42.9503 90.0488 43 89.8944C43.0744 89.8429 43.1364 89.8043 43.1861 89.7786C43.2357 89.7271 43.2853 89.6757 43.3349 89.6242C43.459 89.5213 43.5458 89.4569 43.5955 89.4312C43.6451 89.3797 43.6699 89.3412 43.6699 89.3154C43.8188 89.1868 43.918 89.1096 43.9677 89.0838C44.0173 89.0581 44.0545 89.0195 44.0793 88.968C44.253 88.7365 44.3398 88.6207 44.3398 88.6207C44.4143 88.5177 44.4887 88.4277 44.5632 88.3505C44.6624 88.2476 44.7368 88.1318 44.7865 88.0031C44.7368 87.9002 44.6872 87.7973 44.6376 87.6943C44.588 87.5914 44.5508 87.4756 44.5259 87.347ZM39.0176 103.789C39.2657 103.815 39.4022 103.815 39.427 103.789C39.6751 103.789 39.8116 103.789 39.8364 103.789C40.1093 103.738 40.2706 103.712 40.3202 103.712C40.3699 103.712 40.4195 103.699 40.4691 103.674C40.7172 103.596 40.8661 103.532 40.9157 103.481C41.139 103.429 41.2507 103.403 41.2507 103.403C41.2755 103.378 41.3003 103.365 41.3251 103.365C41.474 103.262 41.5857 103.21 41.6601 103.21C41.7593 103.21 41.8338 103.185 41.8834 103.133C42.0819 102.953 42.2184 102.85 42.2928 102.824C42.3673 102.773 42.4417 102.722 42.5161 102.67C42.7146 102.516 42.8263 102.438 42.8511 102.438C42.8759 102.413 42.8883 102.387 42.8883 102.361C43.0372 102.181 43.124 102.104 43.1488 102.13C43.1985 102.13 43.2357 102.117 43.2605 102.091C43.4094 101.731 43.521 101.499 43.5955 101.396C43.6699 101.268 43.7319 101.126 43.7816 100.972C43.9801 100.74 44.1041 100.599 44.1537 100.547C44.2282 100.47 44.2778 100.406 44.3026 100.354C44.3026 100.148 44.3026 100.045 44.3026 100.045C44.3274 100.02 44.3398 99.9811 44.3398 99.9297C44.2902 99.5694 44.2654 99.3636 44.2654 99.3121C44.2654 99.2606 44.253 99.1706 44.2282 99.0419C44.0545 98.8618 43.9428 98.7589 43.8932 98.7331C43.8684 98.6817 43.856 98.6173 43.856 98.5402C43.6327 98.3343 43.4962 98.2314 43.4466 98.2314C43.4218 98.2314 43.397 98.2185 43.3722 98.1928C43.2233 98.0127 43.0496 97.8583 42.8511 97.7296C42.6526 97.5238 42.5285 97.3951 42.4789 97.3436C42.4293 97.2664 42.3548 97.215 42.2556 97.1893C42.1067 97.0091 42.0075 96.9062 41.9579 96.8805C41.9082 96.8547 41.8586 96.829 41.809 96.8033C41.5608 96.6489 41.4244 96.5588 41.3996 96.5331C41.2755 96.4302 41.1763 96.3787 41.1018 96.3787C41.0522 96.3787 40.9902 96.3658 40.9157 96.3401C40.6924 96.1857 40.5559 96.0957 40.5063 96.0699C40.4567 96.0185 40.4195 96.0056 40.3947 96.0313C40.1217 95.9284 39.9604 95.8769 39.9108 95.8769C39.886 95.8769 39.8612 95.8641 39.8364 95.8383C39.3898 95.6582 39.092 95.5682 38.9431 95.5682C38.8439 95.5167 38.695 95.491 38.4965 95.491C38.3228 95.4652 38.1988 95.4524 38.1243 95.4524C38.0499 95.5553 38.0127 95.774 38.0127 96.1085C38.0127 96.3144 38.0251 96.5202 38.0499 96.7261C38.0747 96.9062 38.0995 97.0992 38.1243 97.305C38.1491 97.408 38.1615 97.5109 38.1615 97.6138C38.1864 97.7167 38.1864 97.7939 38.1615 97.8454C38.2112 98.1027 38.2236 98.2442 38.1988 98.27C38.1988 98.27 38.1988 98.2957 38.1988 98.3472C38.2236 98.553 38.236 98.7203 38.236 98.8489C38.2112 99.0033 38.2112 99.1191 38.236 99.1963C38.2608 99.2735 38.2484 99.325 38.1988 99.3507C38.2236 99.5823 38.236 99.7238 38.236 99.7753C38.2608 99.8267 38.2732 99.8782 38.2732 99.9297C38.298 100.161 38.298 100.367 38.2732 100.547C38.2732 100.727 38.2732 100.882 38.2732 101.01L38.3104 101.435C38.3104 101.615 38.3228 101.731 38.3476 101.782C38.3725 101.834 38.3849 101.898 38.3849 101.975C38.4097 102.078 38.4221 102.258 38.4221 102.516C38.3973 102.722 38.3849 102.85 38.3849 102.902C38.4097 102.927 38.4221 102.953 38.4221 102.979C38.4717 103.236 38.4841 103.378 38.4593 103.403C38.4593 103.429 38.4717 103.455 38.4965 103.481C38.6454 103.712 38.757 103.828 38.8315 103.828C38.9059 103.802 38.9679 103.789 39.0176 103.789Z" fill="#1B1F2E"/>
<path d="M61.9071 78.1608C61.9567 78.0836 62.0187 78.0708 62.0932 78.1222C62.1924 78.1737 62.2668 78.1737 62.3165 78.1222C62.4901 78.2509 62.639 78.3281 62.7631 78.3538C62.8375 78.4567 62.9616 78.5339 63.1353 78.5854C63.3338 78.7655 63.4454 78.8684 63.4702 78.8942C63.7184 79.1772 63.9045 79.3573 64.0285 79.4345C64.1774 79.5117 64.3139 79.5889 64.4379 79.6661C64.7109 79.769 64.8597 79.8462 64.8845 79.8977C64.9094 79.9492 64.959 80.0006 65.0334 80.0521L65.4056 80.3995C65.5545 80.5024 65.6661 80.5924 65.7406 80.6696C65.8398 80.6954 65.9391 80.734 66.0383 80.7854C66.1624 80.8112 66.2492 80.8498 66.2989 80.9012C66.3733 81.1843 66.3981 81.3644 66.3733 81.4416C66.3733 81.5188 66.3733 81.596 66.3733 81.6732C66.2989 81.7761 66.2492 81.8662 66.2244 81.9433C66.2244 81.9948 66.1996 82.0463 66.15 82.0977C66.0259 82.3036 65.9391 82.4322 65.8895 82.4837C65.7158 82.6381 65.5917 82.741 65.5173 82.7925C65.4676 82.8182 65.418 82.8568 65.3684 82.9083C65.1451 83.1399 65.0086 83.2685 64.959 83.2943C64.9342 83.2943 64.9094 83.3071 64.8845 83.3328C64.7605 83.4358 64.6736 83.5516 64.624 83.6802C64.5248 83.6802 64.4503 83.7188 64.4007 83.796C64.3759 83.8475 64.3263 83.8861 64.2518 83.9118C64.0533 84.0662 63.9417 84.1563 63.9169 84.182C63.9169 84.182 63.8921 84.2077 63.8424 84.2592C63.6936 84.3878 63.5819 84.4908 63.5075 84.568C63.4578 84.6194 63.4082 84.6709 63.3586 84.7223C63.1601 84.9539 63.0484 85.0955 63.0236 85.1469C62.9988 85.1726 62.9616 85.2112 62.912 85.2627C62.7631 85.4943 62.6762 85.623 62.6514 85.6487C62.6266 85.6487 62.6018 85.6744 62.577 85.7259C62.4281 85.9317 62.3165 86.0733 62.242 86.1504C62.1676 86.2276 62.1056 86.3177 62.0559 86.4206C61.9319 86.6522 61.8574 86.7937 61.8326 86.8452C61.8078 86.8709 61.8078 86.9095 61.8326 86.961C61.7582 87.1411 61.6837 87.2569 61.6093 87.3084C61.5597 87.3598 61.5225 87.4242 61.4977 87.5013C61.5225 87.6557 61.5101 87.7973 61.4604 87.9259C61.4108 88.0546 61.386 88.1832 61.386 88.3119C61.386 88.5949 61.4108 88.7622 61.4604 88.8137C61.5101 89.1224 61.5721 89.354 61.6465 89.5084C61.721 89.6371 61.783 89.7786 61.8326 89.933C61.8822 90.0359 61.9195 90.1517 61.9443 90.2803C61.9939 90.3833 62.0435 90.4862 62.0932 90.5891C62.1924 90.8464 62.2668 91.0137 62.3165 91.0909C62.3661 91.1424 62.4157 91.2067 62.4653 91.2839C62.639 91.4897 62.7383 91.6055 62.7631 91.6313C62.8127 91.6313 62.8499 91.657 62.8747 91.7084C62.9244 91.8628 62.9616 91.9658 62.9864 92.0172C63.036 92.043 63.0732 92.0816 63.098 92.133C63.1973 92.2874 63.2717 92.4289 63.3214 92.5576C63.3958 92.6605 63.4702 92.7634 63.5447 92.8664C63.6439 93.0722 63.6936 93.2009 63.6936 93.2523C63.7184 93.2781 63.7556 93.3167 63.8052 93.3681C63.9293 93.5997 64.0037 93.7284 64.0285 93.7541C64.2022 94.0371 64.289 94.1787 64.289 94.1787C64.3139 94.1529 64.3263 94.1658 64.3263 94.2173C64.4007 94.526 64.4503 94.7576 64.4751 94.912C64.5248 95.0664 64.5744 95.2208 64.624 95.3752C64.6736 95.5038 64.7109 95.6068 64.7357 95.684C64.7853 95.7354 64.8349 95.7869 64.8845 95.8383L65.0334 96.3401C65.1575 96.5974 65.2319 96.739 65.2567 96.7647C65.2815 96.7904 65.294 96.8161 65.294 96.8419C65.3436 97.0735 65.3684 97.2407 65.3684 97.3436C65.3684 97.4466 65.3932 97.5495 65.4428 97.6524C65.4676 97.7553 65.4925 97.8583 65.5173 97.9612C65.5421 98.0384 65.5545 98.1413 65.5545 98.27C65.5545 98.5016 65.5669 98.6431 65.5917 98.6945C65.6165 98.746 65.6289 98.7975 65.6289 98.8489C65.6289 98.9261 65.6165 99.0419 65.5917 99.1963C65.5669 99.325 65.5545 99.4408 65.5545 99.5437C65.5793 99.6981 65.5793 99.801 65.5545 99.8525C65.5545 99.8782 65.5545 99.9168 65.5545 99.9683C65.5049 100.277 65.4552 100.47 65.4056 100.547C65.3808 100.624 65.3684 100.702 65.3684 100.779C65.2195 101.088 65.1327 101.281 65.1079 101.358C65.1079 101.409 65.083 101.461 65.0334 101.512C64.959 101.692 64.9094 101.808 64.8845 101.86C64.8845 101.911 64.8597 101.962 64.8101 102.014C64.7605 102.143 64.6612 102.284 64.5124 102.438C64.3883 102.696 64.2642 102.85 64.1402 102.902C64.1402 103.005 64.1154 103.095 64.0657 103.172C64.0161 103.223 63.9665 103.288 63.9169 103.365C63.8176 103.468 63.768 103.545 63.768 103.596C63.768 103.648 63.7556 103.699 63.7308 103.751C63.5075 103.982 63.371 104.137 63.3214 104.214C63.2966 104.265 63.2345 104.317 63.1353 104.368C63.0112 104.497 62.8872 104.651 62.7631 104.832C62.639 104.986 62.5398 105.166 62.4653 105.372C62.2916 105.475 62.18 105.578 62.1304 105.681C62.0063 105.886 61.9319 106.002 61.9071 106.028C61.8822 106.028 61.8574 106.054 61.8326 106.105C61.7582 106.234 61.6962 106.337 61.6465 106.414C61.6217 106.465 61.5969 106.517 61.5721 106.568C61.324 106.723 61.1999 106.813 61.1999 106.839C61.0758 106.967 60.989 107.044 60.9394 107.07C60.9146 107.096 60.8773 107.122 60.8277 107.147C60.654 107.302 60.5672 107.392 60.5672 107.418C60.5672 107.443 60.5548 107.469 60.53 107.495C60.3811 107.752 60.2694 107.906 60.195 107.958C60.1454 108.035 60.0833 108.112 60.0089 108.189C59.86 108.267 59.7732 108.382 59.7484 108.537C59.5251 108.717 59.3886 108.82 59.339 108.846C59.3142 108.871 59.2397 108.91 59.1157 108.961C58.8427 109.013 58.6814 109.013 58.6318 108.961C58.607 108.91 58.5326 108.897 58.4085 108.923C58.1852 108.743 58.0611 108.653 58.0363 108.653C58.0363 108.678 58.0239 108.678 57.9991 108.653C57.9495 108.601 57.8998 108.537 57.8502 108.46C57.8254 108.382 57.7882 108.318 57.7386 108.267C57.5153 108.061 57.3912 107.945 57.3664 107.919C57.3664 107.894 57.3416 107.894 57.2919 107.919C57.019 107.688 56.8081 107.469 56.6592 107.263C56.4855 107.134 56.3739 107.07 56.3243 107.07C56.2746 107.044 56.2126 107.019 56.1382 106.993C55.9893 106.684 55.89 106.478 55.8404 106.375C55.5923 106.144 55.4558 106.015 55.431 105.989C55.431 105.938 55.4062 105.899 55.3566 105.874L54.8355 105.333C54.6618 104.999 54.5254 104.78 54.4261 104.677C54.4261 104.523 54.3889 104.42 54.3144 104.368C54.24 104.291 54.1904 104.188 54.1656 104.06C54.1656 103.982 54.178 103.905 54.2028 103.828C54.2524 103.725 54.302 103.635 54.3517 103.558C54.4509 103.326 54.5378 103.172 54.6122 103.095C54.7114 102.992 54.7983 102.915 54.8727 102.863C55.0464 102.734 55.1705 102.606 55.2449 102.477C55.5427 102.143 55.7412 101.937 55.8404 101.86C55.89 101.782 55.9273 101.705 55.9521 101.628C56.0017 101.525 56.0761 101.448 56.1754 101.396C56.3987 101.139 56.5724 100.946 56.6964 100.817C56.8205 100.689 56.9446 100.56 57.0686 100.431C57.1927 100.277 57.3168 100.11 57.4408 99.9297C57.6393 99.6723 57.751 99.5308 57.7758 99.5051C57.8254 99.4536 57.8626 99.4022 57.8874 99.3507C58.0859 99.0677 58.1852 98.9004 58.1852 98.8489C58.21 98.7717 58.2348 98.7074 58.2596 98.6559C58.4581 98.3472 58.5822 98.1027 58.6318 97.9226C58.7062 97.7425 58.7062 97.5366 58.6318 97.305L58.5946 96.8805C58.4705 96.6489 58.3961 96.4945 58.3713 96.4173C58.3465 96.3144 58.3093 96.2243 58.2596 96.1471C58.0859 95.9155 57.9619 95.7869 57.8874 95.7612C57.8626 95.6325 57.813 95.5424 57.7386 95.491C57.6641 95.4138 57.6021 95.3109 57.5525 95.1822C57.478 95.105 57.4284 95.0278 57.4036 94.9506C57.4036 94.8734 57.3788 94.8091 57.3292 94.7576C57.1803 94.5518 57.081 94.3974 57.0314 94.2945C56.9818 94.1915 56.9322 94.0886 56.8825 93.9857C56.7833 93.8056 56.7213 93.7155 56.6964 93.7155C56.6716 93.6898 56.6468 93.6512 56.622 93.5997L56.287 93.2137C56.2374 93.0851 56.1754 92.9693 56.1009 92.8664C56.0513 92.7377 55.9893 92.609 55.9149 92.4804C55.8652 92.3775 55.8032 92.2745 55.7288 92.1716C55.6791 92.0687 55.6295 91.9529 55.5799 91.8242C55.4806 91.6441 55.431 91.5412 55.431 91.5155C55.431 91.4897 55.4186 91.464 55.3938 91.4383C55.2201 91.181 55.1333 91.0394 55.1333 91.0137L54.8727 90.5505C54.7735 90.3189 54.7114 90.2032 54.6866 90.2032C54.6866 90.1774 54.6866 90.1517 54.6866 90.126C54.5874 89.9973 54.5254 89.9201 54.5005 89.8944C54.4757 89.8429 54.4509 89.7915 54.4261 89.74C54.3517 89.4827 54.3144 89.3283 54.3144 89.2768C54.24 88.968 54.178 88.7751 54.1283 88.6979C54.1035 88.6207 54.0911 88.5306 54.0911 88.4277C54.1408 88.1704 54.1904 87.9388 54.24 87.7329C54.2896 87.5013 54.3269 87.3727 54.3517 87.347C54.3765 87.2955 54.4013 87.244 54.4261 87.1926C54.4757 86.9095 54.4881 86.6779 54.4633 86.4978C54.4633 86.292 54.4881 86.1247 54.5378 85.9961C54.6618 85.7645 54.7611 85.5458 54.8355 85.3399C54.9596 85.0569 55.034 84.8767 55.0588 84.7995C55.0836 84.6966 55.1084 84.6194 55.1333 84.568C55.1829 84.3878 55.2697 84.2206 55.3938 84.0662C55.5427 83.8603 55.6295 83.7446 55.6543 83.7188C55.6791 83.6674 55.7039 83.6159 55.7288 83.5644C55.9769 83.3328 56.1382 83.1527 56.2126 83.0241C56.3367 82.844 56.4359 82.7153 56.5103 82.6381C56.6096 82.5609 56.6964 82.458 56.7709 82.3293C56.8205 82.2264 56.8577 82.1492 56.8825 82.0977C56.9322 82.0463 56.9818 81.9948 57.0314 81.9433C57.2051 81.8147 57.3044 81.7246 57.3292 81.6732C57.354 81.596 57.3912 81.5316 57.4408 81.4802C57.5153 81.403 57.5897 81.3387 57.6641 81.2872C57.7634 81.21 57.8378 81.1328 57.8874 81.0556C57.9371 81.0042 57.9743 80.9527 57.9991 80.9012C58.0487 80.8498 58.0983 80.7854 58.148 80.7082C58.4705 80.5281 58.669 80.3995 58.7435 80.3223C58.8179 80.2451 58.9047 80.1807 59.004 80.1293C59.2521 79.9492 59.4506 79.7819 59.5995 79.6275C59.7732 79.4731 59.86 79.3959 59.86 79.3959C59.8848 79.3959 59.9097 79.3702 59.9345 79.3187C60.0337 79.2415 60.133 79.1643 60.2322 79.0872C60.3315 78.9842 60.4431 78.8813 60.5672 78.7784C60.7161 78.5468 60.8029 78.431 60.8277 78.431C60.8525 78.431 60.8649 78.4181 60.8649 78.3924C61.1379 78.1608 61.3612 78.0322 61.5349 78.0064C61.7334 77.9807 61.8574 78.0322 61.9071 78.1608Z" fill="#1B1F2E"/>
<path d="M69.388 79.01C69.6858 78.9585 69.9463 78.907 70.1696 78.8556C70.3681 78.7784 70.4798 78.7526 70.5046 78.7784C70.5294 78.7784 70.5542 78.7784 70.579 78.7784C70.8768 78.7269 71.0629 78.714 71.1373 78.7398C71.2365 78.7655 71.3234 78.7784 71.3978 78.7784C71.4723 78.8298 71.5467 78.8427 71.6211 78.817C71.7204 78.7912 71.8072 78.7655 71.8817 78.7398C71.9809 78.7655 72.1174 78.7784 72.2911 78.7784C72.4648 78.7526 72.5888 78.7398 72.6632 78.7398C73.0106 78.7398 73.2712 78.7269 73.4448 78.7012C73.6185 78.6497 73.7922 78.6497 73.9659 78.7012C74.3133 78.6497 74.5118 78.6369 74.5614 78.6626C74.6358 78.6883 74.6979 78.714 74.7475 78.7398C74.9956 78.7398 75.1569 78.7784 75.2313 78.8556C75.405 78.8041 75.5291 78.7784 75.6035 78.7784C75.678 78.7784 75.7524 78.8041 75.8268 78.8556C76.1742 78.907 76.4347 78.9585 76.6084 79.01C76.8317 79.2415 76.9558 79.4474 76.9806 79.6275C77.0054 79.8076 77.0178 80.0006 77.0178 80.2065C77.0178 80.5153 76.993 80.6954 76.9434 80.7468V81.3258C76.9186 81.4287 76.8938 81.5316 76.869 81.6346C76.8442 81.7118 76.8193 81.8018 76.7945 81.9048C76.7945 81.9819 76.8069 82.0591 76.8317 82.1363C76.8566 82.1878 76.8566 82.2521 76.8317 82.3293C76.8317 82.5352 76.8069 82.7153 76.7573 82.8697C76.7325 82.9983 76.7201 83.127 76.7201 83.2557C76.7201 83.3586 76.7201 83.4486 76.7201 83.5258C76.7449 83.5773 76.7201 83.6674 76.6457 83.796C76.6457 84.0019 76.6332 84.1691 76.6084 84.2978C76.5836 84.4007 76.5464 84.5422 76.4968 84.7223C76.4472 84.9282 76.4223 85.0955 76.4223 85.2241C76.4472 85.3528 76.4472 85.4814 76.4223 85.6101C76.3479 85.8159 76.3107 85.9961 76.3107 86.1504C76.3355 86.2791 76.3355 86.4078 76.3107 86.5364C76.3107 86.6393 76.2983 86.7423 76.2735 86.8452C76.2735 86.9481 76.2611 87.0639 76.2363 87.1926C76.2114 87.4499 76.1866 87.5914 76.1618 87.6171C76.1618 87.6171 76.1618 87.63 76.1618 87.6557C76.1618 87.8873 76.1742 88.0674 76.199 88.1961C76.2238 88.299 76.2114 88.4148 76.1618 88.5435C76.2114 88.8008 76.2114 89.0066 76.1618 89.161C76.1618 89.3412 76.1494 89.5084 76.1246 89.6628C76.1246 89.7915 76.1246 89.9201 76.1246 90.0488C76.0998 90.5634 76.075 90.988 76.0502 91.3225C76.075 91.5026 76.075 91.6441 76.0502 91.747C76.0502 91.8242 76.075 91.8886 76.1246 91.94C76.0253 92.2231 75.9881 92.3903 76.0129 92.4418C76.0378 92.4933 76.0378 92.5447 76.0129 92.5962C75.9881 92.8792 75.9757 93.1108 75.9757 93.2909C75.9757 93.3681 75.9633 93.4453 75.9385 93.5225C75.9137 93.5997 75.9013 93.6769 75.9013 93.7541C76.0005 94.3717 76.0378 94.8606 76.0129 95.2208C76.0129 95.5553 76.0129 95.9027 76.0129 96.2629C76.0378 96.3401 76.0378 96.4302 76.0129 96.5331C76.0129 96.636 76.0129 96.7261 76.0129 96.8033C76.0378 96.9577 76.0502 97.1121 76.0502 97.2664C76.075 97.3951 76.0874 97.5495 76.0874 97.7296C76.0626 97.8325 76.0626 97.9226 76.0874 97.9998C76.1122 98.077 76.1246 98.1413 76.1246 98.1928C76.0998 98.4758 76.0874 98.6559 76.0874 98.7331C76.1122 98.8103 76.137 98.9004 76.1618 99.0033C76.1618 99.2864 76.1742 99.4279 76.199 99.4279C76.1742 99.7109 76.1618 99.8911 76.1618 99.9683C76.1866 100.045 76.199 100.11 76.199 100.161C76.2238 100.444 76.2238 100.586 76.199 100.586C76.199 100.586 76.199 100.599 76.199 100.624C76.199 100.83 76.2114 101.036 76.2363 101.242C76.2611 101.422 76.2859 101.602 76.3107 101.782C76.3355 102.117 76.3479 102.374 76.3479 102.554C76.3727 102.631 76.3975 102.722 76.4223 102.824C76.4472 102.902 76.472 102.979 76.4968 103.056C76.4968 103.159 76.5092 103.249 76.534 103.326C76.5588 103.403 76.5712 103.481 76.5712 103.558V104.06C76.5712 104.188 76.5836 104.317 76.6084 104.446C76.6332 104.548 76.6581 104.664 76.6829 104.793C76.7077 104.922 76.7201 105.037 76.7201 105.14C76.7201 105.243 76.7449 105.346 76.7945 105.449C76.7945 105.861 76.8442 106.17 76.9434 106.375C76.9186 106.71 76.9186 106.941 76.9434 107.07C76.993 107.173 76.993 107.276 76.9434 107.379C76.8442 107.533 76.7697 107.636 76.7201 107.688C76.6705 107.765 76.6208 107.842 76.5712 107.919C76.3975 107.945 76.2983 107.971 76.2735 107.996C76.2486 108.048 76.2114 108.074 76.1618 108.074C76.0129 108.074 75.8392 108.125 75.6407 108.228C75.4174 108.202 75.281 108.189 75.2313 108.189C75.2065 108.215 75.1817 108.202 75.1569 108.151C74.9832 108.228 74.8343 108.228 74.7103 108.151C74.5862 108.228 74.4498 108.241 74.3009 108.189C74.1768 108.164 74.0527 108.151 73.9287 108.151C73.8542 108.151 73.7798 108.164 73.7054 108.189C73.6558 108.215 73.5937 108.241 73.5193 108.267C73.3208 108.241 73.2091 108.228 73.1843 108.228C73.1595 108.254 73.1223 108.267 73.0727 108.267C72.7501 108.215 72.5516 108.177 72.4772 108.151C72.4027 108.125 72.3283 108.099 72.2538 108.074C72.2042 108.048 72.1298 108.048 72.0305 108.074C71.9065 108.099 71.7576 108.099 71.5839 108.074C71.4102 108.048 71.2365 108.048 71.0629 108.074C70.8643 107.996 70.7403 107.945 70.6907 107.919C70.6658 107.919 70.6286 107.932 70.579 107.958C70.4053 107.932 70.2813 107.932 70.2068 107.958C70.1324 107.984 70.0704 107.984 70.0207 107.958C69.8222 107.829 69.6982 107.752 69.6485 107.726C69.6237 107.726 69.5741 107.701 69.4997 107.649C69.3756 107.34 69.3136 107.134 69.3136 107.032C69.3384 106.903 69.326 106.774 69.2764 106.646C69.326 106.568 69.326 106.491 69.2764 106.414C69.2515 106.311 69.2515 106.221 69.2764 106.144C69.3508 105.861 69.3756 105.706 69.3508 105.681C69.3508 105.655 69.3632 105.616 69.388 105.565C69.4376 105.359 69.45 105.205 69.4252 105.102C69.4252 104.973 69.45 104.857 69.4997 104.754C69.5245 104.471 69.5493 104.291 69.5741 104.214C69.5989 104.137 69.6237 104.072 69.6485 104.021V103.249C69.6734 102.966 69.6982 102.799 69.723 102.747C69.7478 102.67 69.7602 102.593 69.7602 102.516C69.7602 102.207 69.7478 102.014 69.723 101.937C69.6982 101.834 69.6982 101.757 69.723 101.705C69.7478 101.576 69.7478 101.448 69.723 101.319C69.723 101.165 69.723 101.023 69.723 100.895C69.723 100.766 69.7354 100.65 69.7602 100.547C69.785 100.419 69.7726 100.29 69.723 100.161C69.7726 99.8525 69.7974 99.5051 69.7974 99.1191C69.8222 98.7074 69.8222 98.3086 69.7974 97.9226C69.7974 97.8454 69.785 97.7682 69.7602 97.691C69.7602 97.6138 69.7602 97.5238 69.7602 97.4208C69.7602 97.0863 69.7478 96.8805 69.723 96.8033C69.723 96.7004 69.7478 96.6103 69.7974 96.5331C69.7478 96.4816 69.7354 96.4173 69.7602 96.3401C69.8098 96.2372 69.8098 96.16 69.7602 96.1085C69.8098 96.0571 69.8222 95.9927 69.7974 95.9155C69.7974 95.8384 69.7974 95.7612 69.7974 95.684C69.7974 95.6325 69.7974 95.5682 69.7974 95.491C69.8222 95.4138 69.8222 95.3237 69.7974 95.2208C69.7478 94.912 69.723 94.719 69.723 94.6418C69.7478 94.5646 69.7726 94.4874 69.7974 94.4103C69.7974 94.2559 69.785 94.1529 69.7602 94.1015C69.7602 94.05 69.7602 93.9985 69.7602 93.9471V93.2137C69.7354 92.9564 69.7106 92.8278 69.6858 92.8278C69.6858 92.802 69.6858 92.7634 69.6858 92.712C69.7106 92.5319 69.7106 92.4032 69.6858 92.326C69.6609 92.2231 69.6485 92.133 69.6485 92.0558C69.6485 91.9529 69.6609 91.8628 69.6858 91.7856C69.7106 91.7084 69.723 91.6313 69.723 91.5541C69.723 91.4254 69.7106 91.2967 69.6858 91.1681C69.6858 91.0137 69.6734 90.8722 69.6485 90.7435C69.6237 90.5119 69.6113 90.3961 69.6113 90.3961C69.6361 90.3961 69.6485 90.3704 69.6485 90.3189C69.6237 90.0359 69.6113 89.8558 69.6113 89.7786C69.6361 89.7014 69.6485 89.6113 69.6485 89.5084C69.6237 89.3283 69.5989 89.2254 69.5741 89.1996C69.5493 89.1482 69.5369 89.0967 69.5369 89.0452C69.5369 88.968 69.5493 88.878 69.5741 88.7751C69.5989 88.6721 69.6113 88.5563 69.6113 88.4277C69.5617 88.1961 69.5369 88.0417 69.5369 87.9645C69.5369 87.8873 69.5245 87.8101 69.4997 87.7329C69.4997 87.5271 69.4873 87.3984 69.4624 87.347C69.4624 87.2698 69.4624 87.2054 69.4624 87.154C69.4624 86.9481 69.4624 86.6779 69.4624 86.3434C69.4376 86.1633 69.4252 86.0347 69.4252 85.9575C69.45 85.8803 69.4624 85.8031 69.4624 85.7259C69.4128 85.4171 69.4128 85.1855 69.4624 85.0311C69.4624 84.7995 69.4376 84.5937 69.388 84.4136C69.3632 84.2335 69.3508 84.0533 69.3508 83.8732C69.3508 83.7703 69.3508 83.6802 69.3508 83.603C69.3756 83.5001 69.388 83.4229 69.388 83.3714C69.4376 83.0627 69.4376 82.7925 69.388 82.5609C69.3384 82.3293 69.3012 82.0463 69.2764 81.7118C69.1027 81.017 69.053 80.4895 69.1275 80.1293C69.1771 79.872 69.2019 79.7562 69.2019 79.7819C69.2267 79.7819 69.2267 79.7562 69.2019 79.7047C69.2515 79.3959 69.2888 79.2158 69.3136 79.1643L69.388 79.01Z" fill="#1B1F2E"/>
<path d="M88.2951 79.0872C88.4688 79.7047 88.4936 80.348 88.3695 81.017C88.3695 81.2229 88.3447 81.3644 88.2951 81.4416C88.2951 81.5188 88.3075 81.596 88.3323 81.6732C88.3571 81.7504 88.3695 81.8147 88.3695 81.8662C88.3199 82.072 88.2951 82.1878 88.2951 82.2135C88.3199 82.2393 88.3323 82.2779 88.3323 82.3293C88.2827 82.458 88.2579 82.5738 88.2579 82.6767C88.2827 82.7539 88.2951 82.8568 88.2951 82.9855C88.2951 83.1141 88.2827 83.2299 88.2579 83.3328C88.2331 83.4358 88.2082 83.5516 88.1834 83.6802C88.1586 83.8603 88.1462 84.0405 88.1462 84.2206C88.171 84.375 88.1462 84.5294 88.0718 84.6838C88.0966 84.9411 88.109 85.1598 88.109 85.3399C88.1338 85.4943 88.1338 85.6487 88.109 85.8031C88.0842 85.9832 88.0718 86.1247 88.0718 86.2276C88.0718 86.2791 88.0594 86.3434 88.0346 86.4206C88.0098 86.4978 88.0222 86.575 88.0718 86.6522C87.9974 86.9353 87.9601 87.1282 87.9601 87.2312C87.9601 87.3084 87.9477 87.4242 87.9229 87.5785C87.9477 87.7072 87.9601 87.8873 87.9601 88.1189C87.9601 88.3505 87.9477 88.5306 87.9229 88.6593C87.8981 88.7622 87.8857 88.8651 87.8857 88.968C87.8857 89.071 87.8857 89.1739 87.8857 89.2768C87.8361 89.6113 87.8237 89.83 87.8485 89.933C87.8733 90.0359 87.8857 90.1388 87.8857 90.2418C87.8857 90.4733 87.8733 90.602 87.8485 90.6277C87.8485 90.6277 87.8485 90.6535 87.8485 90.7049C87.8485 90.9622 87.8361 91.1295 87.8113 91.2067C87.8113 91.2581 87.8113 91.3225 87.8113 91.3997C87.8113 91.4769 87.8237 91.5669 87.8485 91.6699C87.8733 91.747 87.8857 91.8371 87.8857 91.94C87.8113 92.4804 87.8113 92.905 87.8857 93.2137C87.8361 93.5225 87.8237 93.7541 87.8485 93.9085C87.8981 94.0371 87.9229 94.1401 87.9229 94.2173C87.9229 94.3459 87.9105 94.4488 87.8857 94.526C87.8857 94.6032 87.8981 94.7062 87.9229 94.8348C87.9229 95.1179 87.9353 95.3237 87.9601 95.4524C87.9849 95.581 87.9973 95.684 87.9973 95.7612C87.9973 95.8641 87.9849 95.967 87.9601 96.0699C87.9601 96.1471 87.9849 96.2372 88.0346 96.3401C87.9601 96.4688 87.9477 96.6618 87.9973 96.9191C87.9973 96.9705 87.9973 97.0477 87.9973 97.1507C88.0222 97.2278 88.047 97.2922 88.0718 97.3436C88.0718 97.6524 88.0718 97.8068 88.0718 97.8068C88.0718 98.0127 88.0594 98.1285 88.0346 98.1542C88.0346 98.1542 88.0346 98.1799 88.0346 98.2314C88.0098 98.4372 87.9973 98.553 87.9973 98.5788C88.0222 98.6045 88.0346 98.6302 88.0346 98.6559C87.9849 98.939 87.9725 99.0934 87.9973 99.1191C88.0222 99.1191 88.0346 99.132 88.0346 99.1577C88.0098 99.518 88.0098 99.7367 88.0346 99.8139C88.109 100.174 88.1462 100.354 88.1462 100.354C88.171 100.457 88.171 100.56 88.1462 100.663C88.1462 100.766 88.171 100.869 88.2207 100.972C88.3199 101.203 88.5308 101.358 88.8534 101.435C89.0767 101.486 89.2752 101.512 89.4489 101.512C89.6226 101.486 89.7963 101.499 89.9699 101.551L90.5282 101.667C90.7515 101.718 90.888 101.757 90.9376 101.782C90.9873 101.782 91.0369 101.782 91.0865 101.782C91.2354 101.782 91.3346 101.782 91.3842 101.782C91.4587 101.757 91.5207 101.757 91.5703 101.782C91.7688 101.782 91.9549 101.808 92.1286 101.86C92.3023 101.885 92.4884 101.847 92.6869 101.744C92.7861 101.795 92.873 101.795 92.9474 101.744C93.0467 101.692 93.1459 101.667 93.2452 101.667C93.3941 101.667 93.5057 101.667 93.5801 101.667C93.6794 101.641 93.7911 101.615 93.9151 101.589C94.2129 101.538 94.3617 101.512 94.3617 101.512C94.5602 101.435 94.7091 101.409 94.8084 101.435C94.9076 101.435 94.9945 101.396 95.0689 101.319C95.0937 101.036 95.1061 100.714 95.1061 100.354C95.1309 99.994 95.1185 99.6466 95.0689 99.3121C95.0193 99.0033 94.9944 98.7203 94.9944 98.463C94.9696 98.2314 94.9572 98.0127 94.9572 97.8068C94.9821 97.601 94.9821 97.3822 94.9572 97.1507C94.9572 96.9448 94.9448 96.8033 94.92 96.7261C94.92 96.6232 94.92 96.5202 94.92 96.4173C94.92 96.3401 94.9076 96.2629 94.8828 96.1857C94.8828 96.1085 94.8952 96.0442 94.92 95.9927C94.92 95.7097 94.9076 95.4781 94.8828 95.298C94.858 95.1179 94.8456 94.9506 94.8456 94.7962C94.8456 94.5646 94.8332 94.3459 94.8084 94.1401C94.8084 93.9085 94.796 93.6898 94.7711 93.4839C94.7711 93.2009 94.7587 92.9564 94.7339 92.7506C94.6843 92.6734 94.6719 92.5704 94.6967 92.4418C94.7215 92.3131 94.7339 92.1845 94.7339 92.0558C94.6843 91.7213 94.6471 91.464 94.6223 91.2839C94.5975 91.1552 94.5726 90.988 94.5478 90.7821C94.5478 90.5505 94.5602 90.3318 94.585 90.126C94.5106 89.9973 94.4734 89.8558 94.4734 89.7014C94.4734 89.5213 94.461 89.3283 94.4362 89.1224C94.4114 88.7622 94.3866 88.5049 94.3617 88.3505C94.3369 88.1961 94.3245 88.0546 94.3245 87.9259C94.3493 87.7715 94.3369 87.6557 94.2873 87.5785C94.2625 87.4756 94.2501 87.3984 94.2501 87.347C94.2253 87.1411 94.2253 87.0125 94.2501 86.961C94.2749 86.8838 94.2749 86.8195 94.2501 86.768L94.1012 85.9961C94.126 85.6101 94.126 85.3785 94.1012 85.3013C94.1012 85.1984 94.1012 85.0826 94.1012 84.9539C94.0764 84.7223 94.0764 84.5551 94.1012 84.4522C94.1508 84.3235 94.1632 84.1949 94.1384 84.0662C94.1384 83.989 94.126 83.9247 94.1012 83.8732C94.0764 83.796 94.0516 83.706 94.0268 83.603C94.1012 83.4744 94.1136 83.3457 94.064 83.2171C94.0392 83.0884 94.0268 82.934 94.0268 82.7539C94.0516 82.5995 94.0392 82.4966 93.9896 82.4451C93.9647 82.3937 93.9523 82.3422 93.9523 82.2907C93.9523 82.1363 93.9647 82.0077 93.9896 81.9048C94.0144 81.8018 94.002 81.686 93.9523 81.5574L93.9151 81.017C93.9399 80.9398 93.9647 80.8755 93.9896 80.824C94.0392 80.7468 94.064 80.6696 94.064 80.5924C94.064 80.4895 94.0516 80.3995 94.0268 80.3223C94.0268 80.2193 94.0392 80.1164 94.064 80.0135L94.2873 79.5117C94.4362 79.3059 94.5478 79.2029 94.6223 79.2029C94.6967 79.1772 94.7587 79.1386 94.8084 79.0872C94.858 79.1386 94.92 79.1515 94.9944 79.1258C95.0689 79.0743 95.1433 79.0357 95.2178 79.01C95.2674 79.01 95.3294 79.0228 95.4039 79.0486C95.4783 79.0486 95.5527 79.0486 95.6272 79.0486C95.8753 79.0743 96.0118 79.0872 96.0366 79.0872C96.0862 79.0872 96.1358 79.0743 96.1855 79.0486C96.2847 79.0486 96.3715 79.0614 96.446 79.0872C96.5452 79.0872 96.6569 79.0872 96.781 79.0872C96.8802 79.0872 96.9795 79.0872 97.0787 79.0872C97.2028 79.0614 97.302 79.0614 97.3765 79.0872C97.7735 79.1643 98.0836 79.2029 98.3069 79.2029C98.5551 79.2029 98.7535 79.2544 98.9024 79.3573C99.0017 79.3316 99.0761 79.3059 99.1257 79.2801C99.2002 79.2544 99.2746 79.2287 99.349 79.2029C99.4979 79.2029 99.5972 79.2158 99.6468 79.2415C99.7212 79.2673 99.7833 79.2801 99.8329 79.2801C100.23 79.2029 100.49 79.1643 100.614 79.1643C100.763 79.1386 100.912 79.1515 101.061 79.2029C101.036 79.486 101.024 79.7433 101.024 79.9749C101.049 80.1807 101.049 80.4252 101.024 80.7082C100.999 81.017 100.987 81.1843 100.987 81.21C101.011 81.21 101.011 81.2486 100.987 81.3258C100.962 81.403 100.949 81.5059 100.949 81.6346C100.949 81.7375 100.937 81.8276 100.912 81.9048C100.838 82.2135 100.801 82.4322 100.801 82.5609C100.801 82.6896 100.801 82.8311 100.801 82.9855C100.751 83.2428 100.726 83.4358 100.726 83.5644C100.726 83.6931 100.726 83.796 100.726 83.8732C100.751 83.9504 100.763 84.0405 100.763 84.1434C100.714 84.375 100.689 84.5036 100.689 84.5294C100.714 84.5551 100.714 84.6066 100.689 84.6838C100.689 84.7867 100.677 84.8767 100.652 84.9539C100.627 85.0311 100.614 85.1083 100.614 85.1855C100.614 85.237 100.614 85.3013 100.614 85.3785C100.639 85.4557 100.652 85.5329 100.652 85.6101C100.602 85.8159 100.577 85.9832 100.577 86.1118C100.577 86.2405 100.565 86.3563 100.54 86.4592C100.54 86.5364 100.54 86.6265 100.54 86.7294C100.54 86.9867 100.54 87.2312 100.54 87.4628C100.565 87.6943 100.565 87.9131 100.54 88.1189C100.54 88.2476 100.503 88.3891 100.428 88.5435C100.453 88.6464 100.453 88.7493 100.428 88.8523C100.428 88.9294 100.441 89.0066 100.466 89.0838C100.515 89.5727 100.515 89.9458 100.466 90.2032C100.441 90.4605 100.453 90.7049 100.503 90.9365C100.503 91.2967 100.515 91.5155 100.54 91.5927C100.565 91.6698 100.577 91.7599 100.577 91.8628C100.577 92.1202 100.577 92.2745 100.577 92.326C100.602 92.3517 100.627 92.3903 100.652 92.4418C100.627 92.6219 100.614 92.7634 100.614 92.8664C100.639 92.9436 100.652 93.0079 100.652 93.0594C100.677 93.2137 100.677 93.3681 100.652 93.5225C100.652 93.7541 100.677 93.9728 100.726 94.1787C100.776 94.4874 100.801 94.8477 100.801 95.2594C100.801 95.6454 100.788 96.0056 100.763 96.3401C100.739 96.4688 100.751 96.6618 100.801 96.9191V97.498C100.85 97.8325 100.875 98.0513 100.875 98.1542C100.875 98.2828 100.863 98.4244 100.838 98.5788C100.813 98.7074 100.801 98.8232 100.801 98.9261C100.85 99.2092 100.863 99.4279 100.838 99.5823C100.838 99.7109 100.838 99.8653 100.838 100.045C100.838 100.226 100.85 100.393 100.875 100.547C100.9 100.676 100.912 100.805 100.912 100.933C100.887 101.088 100.9 101.255 100.949 101.435V102.014C100.974 102.143 100.987 102.284 100.987 102.438C100.987 102.567 100.999 102.722 101.024 102.902C101.024 103.313 101.061 103.609 101.136 103.789C101.21 103.969 101.247 104.175 101.247 104.407C101.222 104.561 101.198 104.767 101.173 105.024C101.173 105.256 101.198 105.475 101.247 105.681C101.297 105.989 101.322 106.221 101.322 106.375C101.322 106.504 101.322 106.633 101.322 106.761C101.346 106.839 101.371 106.916 101.396 106.993C101.421 107.07 101.433 107.147 101.433 107.225C101.26 107.379 101.148 107.469 101.098 107.495C101.049 107.495 100.999 107.52 100.949 107.572C100.701 107.649 100.54 107.701 100.466 107.726C100.391 107.778 100.304 107.816 100.205 107.842C100.007 107.894 99.8949 107.919 99.8701 107.919C99.8453 107.945 99.8081 107.971 99.7584 107.996C99.4855 108.048 99.3118 108.061 99.2374 108.035C99.1629 108.035 99.0885 108.048 99.0141 108.074C98.8404 108.125 98.6791 108.164 98.5302 108.189C98.3814 108.241 98.2325 108.292 98.0836 108.344C97.9595 108.37 97.8355 108.382 97.7114 108.382C97.6122 108.382 97.5005 108.395 97.3765 108.421C97.0539 108.524 96.8182 108.575 96.6693 108.575C96.3964 108.524 96.2475 108.498 96.2227 108.498C96.2227 108.524 96.2103 108.537 96.1855 108.537C96.0366 108.485 95.9497 108.421 95.9249 108.344C95.9249 108.292 95.9125 108.241 95.8877 108.189C95.7636 107.932 95.6892 107.791 95.6644 107.765C95.6644 107.765 95.6644 107.752 95.6644 107.726C95.5651 107.675 95.5155 107.611 95.5155 107.533C95.5403 107.456 95.5279 107.392 95.4783 107.34C95.3542 107.057 95.2922 106.903 95.2922 106.877C95.2426 106.697 95.2178 106.53 95.2178 106.375C95.2178 106.221 95.2054 106.067 95.1805 105.912C94.8828 105.989 94.7339 106.054 94.7339 106.105C94.7339 106.131 94.7091 106.144 94.6595 106.144C94.461 106.272 94.3369 106.363 94.2873 106.414C94.2625 106.44 94.2253 106.478 94.1756 106.53C94.1012 106.581 93.9647 106.658 93.7662 106.761C93.5677 106.916 93.4561 106.993 93.4313 106.993C93.4065 106.967 93.3692 106.954 93.3196 106.954C93.1211 107.083 93.0095 107.147 92.9846 107.147C92.9598 107.147 92.935 107.16 92.9102 107.186C92.7117 107.289 92.5628 107.353 92.4636 107.379C92.3643 107.379 92.2775 107.392 92.2031 107.418C92.0294 107.546 91.9301 107.611 91.9053 107.611C91.8805 107.611 91.8557 107.623 91.8309 107.649C91.6572 107.726 91.5207 107.765 91.4215 107.765C91.3222 107.765 91.2478 107.803 91.1982 107.881C90.9004 107.906 90.7019 107.919 90.6027 107.919C90.5034 107.945 90.429 107.984 90.3793 108.035C90.3297 108.009 90.2553 108.009 90.156 108.035C90.0816 108.061 89.9947 108.061 89.8955 108.035C89.6722 108.035 89.4737 107.996 89.3 107.919C89.0023 107.842 88.8286 107.791 88.7789 107.765C88.7293 107.765 88.6797 107.752 88.6301 107.726C88.506 107.649 88.3943 107.623 88.2951 107.649C88.2207 107.649 88.1462 107.636 88.0718 107.611C87.9477 107.585 87.8237 107.546 87.6996 107.495C87.6003 107.418 87.5011 107.405 87.4018 107.456C87.1289 107.327 86.9552 107.263 86.8808 107.263C86.8064 107.263 86.7319 107.25 86.6575 107.225C86.2853 107.07 86.0248 106.993 85.8759 106.993C85.7518 106.993 85.6029 106.967 85.4293 106.916C85.1563 106.813 85.0074 106.761 84.9826 106.761C84.9826 106.736 84.9702 106.723 84.9454 106.723C84.7965 106.62 84.6601 106.556 84.536 106.53C84.4368 106.504 84.3375 106.478 84.2383 106.453C83.9653 106.375 83.8164 106.324 83.7916 106.298C83.7916 106.272 83.7668 106.247 83.7172 106.221C83.5187 106.118 83.3946 106.054 83.345 106.028C83.0473 105.848 82.8612 105.745 82.7867 105.719C82.7371 105.668 82.6875 105.616 82.6379 105.565C82.4642 105.488 82.3277 105.423 82.2285 105.372C81.9803 105.089 81.8066 104.896 81.7074 104.793C81.6081 104.664 81.5337 104.536 81.4841 104.407C81.4841 104.201 81.4841 104.072 81.4841 104.021C81.5089 103.944 81.5089 103.867 81.4841 103.789C81.4841 103.455 81.4593 103.21 81.4096 103.056L81.4469 102.438C81.4221 101.975 81.4345 101.512 81.4841 101.049C81.4841 100.972 81.4841 100.895 81.4841 100.817C81.4841 100.74 81.4841 100.676 81.4841 100.624C81.4841 100.367 81.4965 100.2 81.5213 100.123C81.5461 100.02 81.5585 99.9039 81.5585 99.7753C81.5585 99.4665 81.5833 99.2092 81.633 99.0033C81.6578 98.9261 81.6578 98.7975 81.633 98.6173C81.633 98.4115 81.6454 98.2571 81.6702 98.1542C81.695 97.8197 81.7198 97.6138 81.7446 97.5366C81.7694 97.4594 81.7818 97.3822 81.7818 97.305C81.7818 97.022 81.7694 96.8547 81.7446 96.8033C81.7446 96.7261 81.7694 96.6618 81.819 96.6103C81.7694 96.5588 81.7446 96.4688 81.7446 96.3401C81.7694 96.1857 81.757 96.0571 81.7074 95.9541C81.757 95.6711 81.7694 95.4781 81.7446 95.3752C81.7446 95.2465 81.7322 95.1565 81.7074 95.105C81.6826 94.9249 81.6702 94.8091 81.6702 94.7576C81.695 94.6804 81.7074 94.6032 81.7074 94.526L81.6702 93.6769C81.5957 93.2652 81.5585 92.9822 81.5585 92.8278C81.5833 92.6476 81.5833 92.4675 81.5585 92.2874C81.5585 92.1587 81.5461 92.043 81.5213 91.94C81.5213 91.8114 81.5213 91.6827 81.5213 91.5541V91.0523C81.4965 90.9494 81.4841 90.8593 81.4841 90.7821C81.4841 90.7049 81.4593 90.6277 81.4096 90.5505L81.4469 89.7786C81.4717 89.5985 81.4841 89.4441 81.4841 89.3154C81.5089 89.1868 81.5213 89.0581 81.5213 88.9294C81.5213 88.8523 81.4965 88.7622 81.4469 88.6593C81.4221 88.5306 81.4096 88.4148 81.4096 88.3119C81.4096 88.2347 81.4096 88.1189 81.4096 87.9645C81.4345 87.7844 81.4345 87.63 81.4096 87.5013C81.4096 87.3984 81.3972 87.3084 81.3724 87.2312C81.3476 87.154 81.3352 87.051 81.3352 86.9224C81.2856 86.7937 81.2732 86.6522 81.298 86.4978C81.3476 86.3434 81.3724 86.189 81.3724 86.0347C81.298 85.8288 81.2732 85.713 81.298 85.6873C81.3228 85.6615 81.3352 85.6358 81.3352 85.6101C81.3352 85.3013 81.3228 85.0697 81.298 84.9153C81.298 84.7352 81.2608 84.5808 81.1863 84.4522C81.1863 84.1691 81.1739 84.0276 81.1491 84.0276C81.1491 84.0276 81.1491 84.0147 81.1491 83.989C81.1491 83.6802 81.1367 83.4872 81.1119 83.41C81.1119 83.3071 81.0995 83.2171 81.0747 83.1399C81.0499 82.9855 81.0375 82.844 81.0375 82.7153C81.0375 82.5609 81.0375 82.4194 81.0375 82.2907L81.0002 81.7504C80.9754 81.6217 80.963 81.5188 80.963 81.4416C80.963 81.3387 80.9382 81.2486 80.8886 81.1714C80.839 80.8626 80.839 80.5667 80.8886 80.2837C80.9382 80.0006 80.9134 79.7562 80.8141 79.5503C80.8886 79.3445 80.9382 79.2158 80.963 79.1643C81.0126 79.1129 81.0623 79.0614 81.1119 79.01C81.2608 78.8556 81.36 78.7398 81.4096 78.6626C81.6081 78.6626 81.7694 78.6497 81.8935 78.624C82.0175 78.5725 82.1416 78.5983 82.2657 78.7012C82.5634 78.7012 82.7247 78.7012 82.7495 78.7012C82.7743 78.6755 82.7991 78.6626 82.824 78.6626C83.0969 78.6883 83.2582 78.7012 83.3078 78.7012C83.3574 78.7012 83.407 78.7269 83.4567 78.7784C83.6055 78.7526 83.7296 78.7655 83.8289 78.817C83.9529 78.8427 84.1018 78.8556 84.2755 78.8556C84.5732 78.8298 84.8089 78.8298 84.9826 78.8556C85.1811 78.8813 85.3548 78.8813 85.5037 78.8556C85.8511 78.907 86.0744 78.9328 86.1736 78.9328C86.2729 78.907 86.3721 78.8813 86.4714 78.8556C86.5458 78.8556 86.6203 78.8684 86.6947 78.8942C86.7939 78.9199 86.8808 78.907 86.9552 78.8556C87.2778 78.8813 87.5011 78.907 87.6252 78.9328C87.774 78.9585 87.9105 78.9585 88.0346 78.9328L88.2951 79.0872Z" fill="#1B1F2E"/>
<path d="M112.524 78.1608C112.574 78.0836 112.636 78.0708 112.711 78.1222C112.81 78.1737 112.884 78.1737 112.934 78.1222C113.108 78.2509 113.256 78.3281 113.38 78.3538C113.455 78.4567 113.579 78.5339 113.753 78.5854C113.951 78.7655 114.063 78.8684 114.088 78.8942C114.336 79.1772 114.522 79.3573 114.646 79.4345C114.795 79.5117 114.931 79.5889 115.055 79.6661C115.328 79.769 115.477 79.8462 115.502 79.8977C115.527 79.9492 115.576 80.0006 115.651 80.0521L116.023 80.3995C116.172 80.5024 116.284 80.5924 116.358 80.6696C116.457 80.6954 116.556 80.734 116.656 80.7854C116.78 80.8112 116.867 80.8498 116.916 80.9012C116.991 81.1843 117.016 81.3644 116.991 81.4416C116.991 81.5188 116.991 81.596 116.991 81.6732C116.916 81.7761 116.867 81.8662 116.842 81.9433C116.842 81.9948 116.817 82.0463 116.767 82.0977C116.643 82.3036 116.556 82.4322 116.507 82.4837C116.333 82.6381 116.209 82.741 116.135 82.7925C116.085 82.8182 116.035 82.8568 115.986 82.9083C115.762 83.1399 115.626 83.2685 115.576 83.2943C115.552 83.2943 115.527 83.3071 115.502 83.3328C115.378 83.4358 115.291 83.5516 115.241 83.6802C115.142 83.6802 115.068 83.7188 115.018 83.796C114.993 83.8475 114.944 83.8861 114.869 83.9118C114.671 84.0662 114.559 84.1563 114.534 84.182C114.534 84.182 114.509 84.2077 114.46 84.2592C114.311 84.3878 114.199 84.4908 114.125 84.568C114.075 84.6194 114.026 84.6709 113.976 84.7223C113.777 84.9539 113.666 85.0955 113.641 85.1469C113.616 85.1726 113.579 85.2112 113.529 85.2627C113.38 85.4943 113.294 85.623 113.269 85.6487C113.244 85.6487 113.219 85.6744 113.194 85.7259C113.046 85.9317 112.934 86.0733 112.859 86.1504C112.785 86.2276 112.723 86.3177 112.673 86.4206C112.549 86.6522 112.475 86.7937 112.45 86.8452C112.425 86.8709 112.425 86.9095 112.45 86.961C112.376 87.1411 112.301 87.2569 112.227 87.3084C112.177 87.3598 112.14 87.4242 112.115 87.5013C112.14 87.6557 112.127 87.7973 112.078 87.9259C112.028 88.0546 112.003 88.1832 112.003 88.3119C112.003 88.5949 112.028 88.7622 112.078 88.8137C112.127 89.1224 112.189 89.354 112.264 89.5084C112.338 89.6371 112.4 89.7786 112.45 89.933C112.5 90.0359 112.537 90.1517 112.562 90.2803C112.611 90.3833 112.661 90.4862 112.711 90.5891C112.81 90.8464 112.884 91.0137 112.934 91.0909C112.983 91.1424 113.033 91.2067 113.083 91.2839C113.256 91.4897 113.356 91.6055 113.38 91.6313C113.43 91.6313 113.467 91.657 113.492 91.7084C113.542 91.8628 113.579 91.9658 113.604 92.0172C113.653 92.043 113.691 92.0816 113.715 92.133C113.815 92.2874 113.889 92.4289 113.939 92.5576C114.013 92.6605 114.088 92.7634 114.162 92.8664C114.261 93.0722 114.311 93.2009 114.311 93.2523C114.336 93.2781 114.373 93.3167 114.423 93.3681C114.547 93.5997 114.621 93.7284 114.646 93.7541C114.82 94.0371 114.906 94.1787 114.906 94.1787C114.931 94.1529 114.944 94.1658 114.944 94.2173C115.018 94.526 115.068 94.7576 115.093 94.912C115.142 95.0664 115.192 95.2208 115.241 95.3752C115.291 95.5038 115.328 95.6068 115.353 95.684C115.403 95.7354 115.452 95.7869 115.502 95.8383L115.651 96.3401C115.775 96.5974 115.849 96.739 115.874 96.7647C115.899 96.7904 115.911 96.8161 115.911 96.8419C115.961 97.0735 115.986 97.2407 115.986 97.3436C115.986 97.4466 116.011 97.5495 116.06 97.6524C116.085 97.7553 116.11 97.8583 116.135 97.9612C116.159 98.0384 116.172 98.1413 116.172 98.27C116.172 98.5016 116.184 98.6431 116.209 98.6945C116.234 98.746 116.246 98.7975 116.246 98.8489C116.246 98.9261 116.234 99.0419 116.209 99.1963C116.184 99.325 116.172 99.4408 116.172 99.5437C116.197 99.6981 116.197 99.801 116.172 99.8525C116.172 99.8782 116.172 99.9168 116.172 99.9683C116.122 100.277 116.073 100.47 116.023 100.547C115.998 100.624 115.986 100.702 115.986 100.779C115.837 101.088 115.75 101.281 115.725 101.358C115.725 101.409 115.7 101.461 115.651 101.512C115.576 101.692 115.527 101.808 115.502 101.86C115.502 101.911 115.477 101.962 115.427 102.014C115.378 102.143 115.279 102.284 115.13 102.438C115.006 102.696 114.882 102.85 114.758 102.902C114.758 103.005 114.733 103.095 114.683 103.172C114.634 103.223 114.584 103.288 114.534 103.365C114.435 103.468 114.385 103.545 114.385 103.596C114.385 103.648 114.373 103.699 114.348 103.751C114.125 103.982 113.988 104.137 113.939 104.214C113.914 104.265 113.852 104.317 113.753 104.368C113.629 104.497 113.505 104.651 113.38 104.832C113.256 104.986 113.157 105.166 113.083 105.372C112.909 105.475 112.797 105.578 112.748 105.681C112.624 105.886 112.549 106.002 112.524 106.028C112.5 106.028 112.475 106.054 112.45 106.105C112.376 106.234 112.314 106.337 112.264 106.414C112.239 106.465 112.214 106.517 112.189 106.568C111.941 106.723 111.817 106.813 111.817 106.839C111.693 106.967 111.606 107.044 111.557 107.07C111.532 107.096 111.495 107.122 111.445 107.147C111.271 107.302 111.185 107.392 111.185 107.418C111.185 107.443 111.172 107.469 111.147 107.495C110.998 107.752 110.887 107.906 110.812 107.958C110.763 108.035 110.701 108.112 110.626 108.189C110.477 108.267 110.391 108.382 110.366 108.537C110.142 108.717 110.006 108.82 109.956 108.846C109.932 108.871 109.857 108.91 109.733 108.961C109.46 109.013 109.299 109.013 109.249 108.961C109.224 108.91 109.15 108.897 109.026 108.923C108.803 108.743 108.679 108.653 108.654 108.653C108.654 108.678 108.641 108.678 108.616 108.653C108.567 108.601 108.517 108.537 108.468 108.46C108.443 108.382 108.406 108.318 108.356 108.267C108.133 108.061 108.009 107.945 107.984 107.919C107.984 107.894 107.959 107.894 107.909 107.919C107.636 107.688 107.425 107.469 107.277 107.263C107.103 107.134 106.991 107.07 106.942 107.07C106.892 107.044 106.83 107.019 106.756 106.993C106.607 106.684 106.507 106.478 106.458 106.375C106.21 106.144 106.073 106.015 106.048 105.989C106.048 105.938 106.024 105.899 105.974 105.874L105.453 105.333C105.279 104.999 105.143 104.78 105.044 104.677C105.044 104.523 105.006 104.42 104.932 104.368C104.857 104.291 104.808 104.188 104.783 104.06C104.783 103.982 104.795 103.905 104.82 103.828C104.87 103.725 104.919 103.635 104.969 103.558C105.068 103.326 105.155 103.172 105.23 103.095C105.329 102.992 105.416 102.915 105.49 102.863C105.664 102.734 105.788 102.606 105.862 102.477C106.16 102.143 106.359 101.937 106.458 101.86C106.507 101.782 106.545 101.705 106.569 101.628C106.619 101.525 106.694 101.448 106.793 101.396C107.016 101.139 107.19 100.946 107.314 100.817C107.438 100.689 107.562 100.56 107.686 100.431C107.81 100.277 107.934 100.11 108.058 99.9297C108.257 99.6723 108.368 99.5308 108.393 99.5051C108.443 99.4536 108.48 99.4022 108.505 99.3507C108.703 99.0677 108.803 98.9004 108.803 98.8489C108.827 98.7717 108.852 98.7074 108.877 98.6559C109.076 98.3472 109.2 98.1027 109.249 97.9226C109.324 97.7425 109.324 97.5366 109.249 97.305L109.212 96.8805C109.088 96.6489 109.013 96.4945 108.989 96.4173C108.964 96.3144 108.927 96.2243 108.877 96.1471C108.703 95.9155 108.579 95.7869 108.505 95.7612C108.48 95.6325 108.43 95.5424 108.356 95.491C108.282 95.4138 108.219 95.3109 108.17 95.1822C108.095 95.105 108.046 95.0278 108.021 94.9506C108.021 94.8734 107.996 94.8091 107.947 94.7576C107.798 94.5518 107.698 94.3974 107.649 94.2945C107.599 94.1915 107.55 94.0886 107.5 93.9857C107.401 93.8056 107.339 93.7155 107.314 93.7155C107.289 93.6898 107.264 93.6512 107.239 93.5997L106.904 93.2137C106.855 93.0851 106.793 92.9693 106.718 92.8664C106.669 92.7377 106.607 92.609 106.532 92.4804C106.483 92.3775 106.421 92.2745 106.346 92.1716C106.297 92.0687 106.247 91.9529 106.197 91.8242C106.098 91.6441 106.048 91.5412 106.048 91.5155C106.048 91.4897 106.036 91.464 106.011 91.4383C105.837 91.181 105.751 91.0394 105.751 91.0137L105.49 90.5505C105.391 90.3189 105.329 90.2032 105.304 90.2032C105.304 90.1774 105.304 90.1517 105.304 90.126C105.205 89.9973 105.143 89.9201 105.118 89.8944C105.093 89.8429 105.068 89.7915 105.044 89.74C104.969 89.4827 104.932 89.3283 104.932 89.2768C104.857 88.968 104.795 88.7751 104.746 88.6979C104.721 88.6207 104.709 88.5306 104.709 88.4277C104.758 88.1704 104.808 87.9388 104.857 87.7329C104.907 87.5013 104.944 87.3727 104.969 87.347C104.994 87.2955 105.019 87.244 105.044 87.1926C105.093 86.9095 105.106 86.6779 105.081 86.4978C105.081 86.292 105.106 86.1247 105.155 85.9961C105.279 85.7645 105.378 85.5458 105.453 85.3399C105.577 85.0569 105.651 84.8767 105.676 84.7995C105.701 84.6966 105.726 84.6194 105.751 84.568C105.8 84.3878 105.887 84.2206 106.011 84.0662C106.16 83.8603 106.247 83.7446 106.272 83.7188C106.297 83.6674 106.321 83.6159 106.346 83.5644C106.594 83.3328 106.756 83.1527 106.83 83.0241C106.954 82.844 107.053 82.7153 107.128 82.6381C107.227 82.5609 107.314 82.458 107.388 82.3293C107.438 82.2264 107.475 82.1492 107.5 82.0977C107.55 82.0463 107.599 81.9948 107.649 81.9433C107.822 81.8147 107.922 81.7246 107.947 81.6732C107.971 81.596 108.009 81.5316 108.058 81.4802C108.133 81.403 108.207 81.3387 108.282 81.2872C108.381 81.21 108.455 81.1328 108.505 81.0556C108.554 81.0042 108.592 80.9527 108.616 80.9012C108.666 80.8498 108.716 80.7854 108.765 80.7082C109.088 80.5281 109.286 80.3995 109.361 80.3223C109.435 80.2451 109.522 80.1807 109.621 80.1293C109.87 79.9492 110.068 79.7819 110.217 79.6275C110.391 79.4731 110.477 79.3959 110.477 79.3959C110.502 79.3959 110.527 79.3702 110.552 79.3187C110.651 79.2415 110.75 79.1643 110.85 79.0872C110.949 78.9842 111.061 78.8813 111.185 78.7784C111.333 78.5468 111.42 78.431 111.445 78.431C111.47 78.431 111.482 78.4181 111.482 78.3924C111.755 78.1608 111.979 78.0322 112.152 78.0064C112.351 77.9807 112.475 78.0322 112.524 78.1608Z" fill="#1B1F2E"/>
<defs>
<clipPath id="clip0_152_4374">
<rect width="34.8027" height="30.3256" fill="white" transform="translate(40.854 13.7329)"/>
</clipPath>
</defs>
</svg>
