<svg width="148" height="41" viewBox="0 0 148 41" fill="none" xmlns="http://www.w3.org/2000/svg">
<path d="M20.6046 0.0175781L26.8176 9.47611H14.3916L20.6046 0.0175781Z" fill="#1B1F2E"/>
<path d="M3.10359 10.1592L8.18092 20.2749L14.3883 9.49353L3.10359 10.1592Z" fill="#1B1F2E"/>
<path d="M3.10359 30.4326L8.18092 20.3169L14.3883 31.0983L3.10359 30.4326Z" fill="#1B1F2E"/>
<path d="M38.11 10.1592L33.0327 20.2749L26.8253 9.49353L38.11 10.1592Z" fill="#1B1F2E"/>
<path d="M38.0978 30.4443L33.0205 20.3287L26.8131 31.11L38.0978 30.4443Z" fill="#1B1F2E"/>
<path d="M20.6046 40.5894L14.3916 31.1308L26.8176 31.1308L20.6046 40.5894Z" fill="#1B1F2E"/>
<g clip-path="url(#clip0_663_1346)">
<path d="M26.799 9.47607H14.3853L8.17847 20.3036L14.3853 31.1311H26.799L33.0305 20.3036L26.799 9.47607Z" fill="#A9B1CA"/>
</g>
<path d="M26.7933 31.1185L20.5686 40.5813L38.0879 30.4507L26.7933 31.1185Z" fill="#353C53"/>
<path d="M14.4171 31.1185L20.6419 40.5813L3.12256 30.4507L14.4171 31.1185Z" fill="#4A536F"/>
<path d="M26.7933 9.46254L20.5686 -0.00021229L38.0879 10.1304L26.7933 9.46254Z" fill="#1B1F2E"/>
<path d="M14.4171 9.46254L20.6419 -0.000212993L3.12256 10.1304L14.4171 9.46254Z" fill="#292F42"/>
<path d="M8.17847 20.2898L3.10865 30.4204L3.10865 10.1592L8.17847 20.2898Z" fill="#353C53"/>
<path d="M33.0303 20.2898L38.1001 30.4204L38.1001 10.1592L33.0303 20.2898Z" fill="#292F42"/>
<path d="M60.2849 7.36622C60.4109 7.36622 60.5053 7.37701 60.5683 7.3986C60.6313 7.3986 60.6838 7.37701 60.7258 7.33385C60.8938 7.3986 61.0827 7.43097 61.2927 7.43097C61.5026 7.43097 61.7231 7.43097 61.954 7.43097C62.101 7.49571 62.2059 7.53887 62.2689 7.56045C62.3319 7.56045 62.3844 7.56045 62.4264 7.56045C62.5734 7.60362 62.6783 7.6252 62.7413 7.6252C62.8043 7.6252 62.8568 7.64678 62.8988 7.68994C63.0248 7.75469 63.1822 7.80864 63.3712 7.8518C63.4762 7.87338 63.6021 7.89496 63.7491 7.91655C63.8961 7.93813 64.022 7.94892 64.127 7.94892C64.19 8.01366 64.2635 8.05682 64.3475 8.0784C64.4314 8.0784 64.5154 8.09999 64.5994 8.14315C64.6414 8.18631 64.6939 8.21868 64.7569 8.24026C64.8198 8.26184 64.8723 8.29422 64.9143 8.33738C65.0193 8.33738 65.1138 8.38054 65.1978 8.46687C65.2817 8.53161 65.3552 8.59635 65.4182 8.6611C65.6282 8.72584 65.7751 8.77979 65.8591 8.82296C66.132 8.93086 66.2895 8.98482 66.3315 8.98482C66.3735 8.98482 66.4155 8.99561 66.4575 9.01719C66.6464 9.18984 66.7409 9.28695 66.7409 9.30854C66.7619 9.30854 66.7934 9.33012 66.8354 9.37328C67.0663 9.52435 67.2028 9.62146 67.2448 9.66463C67.2868 9.68621 67.3498 9.68621 67.4337 9.66463C67.6227 9.81569 67.7382 9.89123 67.7802 9.89123C67.8221 9.89123 67.8641 9.90202 67.9061 9.9236C67.9691 9.98834 68.0216 10.0423 68.0636 10.0855C68.1056 10.1286 68.1476 10.1718 68.1896 10.2149C68.2945 10.3013 68.368 10.3768 68.41 10.4416C68.452 10.5063 68.494 10.5602 68.536 10.6034C68.683 10.6682 68.7564 10.7221 68.7564 10.7653C68.7774 10.7868 68.8089 10.7868 68.8509 10.7653L69.1029 11.0242C69.2498 11.2616 69.3338 11.3803 69.3548 11.3803C69.3758 11.3803 69.3968 11.4019 69.4178 11.4451C69.5228 11.5746 69.5857 11.6609 69.6067 11.7041C69.6487 11.7472 69.6907 11.7904 69.7327 11.8335C69.8797 12.0494 69.9637 12.1573 69.9846 12.1573C70.0266 12.1573 70.0581 12.168 70.0791 12.1896C70.2261 12.3407 70.3101 12.4486 70.3311 12.5133C70.3521 12.5565 70.3626 12.6105 70.3626 12.6752C70.4255 12.74 70.4885 12.7939 70.5515 12.8371C70.6145 12.8586 70.667 12.9126 70.709 12.9989C70.73 13.0853 70.751 13.15 70.772 13.1932C70.793 13.2363 70.814 13.2903 70.835 13.355C70.9399 13.4629 71.0029 13.5385 71.0239 13.5816C71.0449 13.6248 71.0764 13.6572 71.1184 13.6787C71.1604 13.8298 71.2129 13.9701 71.2759 14.0996C71.3598 14.2075 71.4333 14.3262 71.4963 14.4557C71.5803 14.7362 71.6433 14.9197 71.6853 15.006C71.7063 15.0491 71.7167 15.1031 71.7167 15.1678C71.7377 15.2326 71.7587 15.2973 71.7797 15.3621C71.9057 15.5563 71.9687 15.6966 71.9687 15.7829C71.9687 15.8692 71.9897 15.9663 72.0317 16.0743C72.0947 16.2685 72.1367 16.398 72.1576 16.4627C72.1786 16.5059 72.1891 16.549 72.1891 16.5922C72.2521 16.9159 72.2731 17.1425 72.2521 17.272C72.2521 17.3799 72.2626 17.4986 72.2836 17.6281C72.3256 17.8223 72.3466 17.941 72.3466 17.9842C72.3676 18.0058 72.3886 18.0381 72.4096 18.0813C72.4306 18.2971 72.4411 18.405 72.4411 18.405C72.4621 18.405 72.4726 18.4266 72.4726 18.4698C72.4936 18.5561 72.5041 18.6532 72.5041 18.7611C72.5251 18.869 72.5566 18.9661 72.5985 19.0525C72.5985 19.1604 72.588 19.2467 72.5671 19.3114C72.5671 19.3762 72.5776 19.4409 72.5985 19.5057C72.5985 19.6352 72.5985 19.7539 72.5985 19.8618C72.6195 20.0344 72.6195 20.1315 72.5985 20.1531C72.5985 20.1747 72.5985 20.2071 72.5985 20.2502C72.5776 20.3365 72.5671 20.4229 72.5671 20.5092C72.588 20.5955 72.5985 20.6818 72.5985 20.7682C72.5985 20.9192 72.588 21.0595 72.5671 21.189C72.5461 21.3185 72.5356 21.4588 72.5356 21.6098C72.5356 21.8257 72.5356 21.9336 72.5356 21.9336C72.5566 21.9336 72.5671 21.9444 72.5671 21.9659C72.5251 22.2897 72.4621 22.5486 72.3781 22.7429C72.3991 22.8508 72.3991 22.9587 72.3781 23.0666C72.3571 23.1529 72.3361 23.25 72.3151 23.3579C72.2731 23.4658 72.2416 23.5629 72.2206 23.6493C72.2206 23.714 72.1996 23.7895 72.1576 23.8759C72.0527 24.0917 71.9897 24.2428 71.9687 24.3291C71.9477 24.3938 71.9372 24.4801 71.9372 24.5881C71.8322 24.696 71.7587 24.8254 71.7167 24.9765C71.6958 25.106 71.6223 25.2139 71.4963 25.3002C71.3493 25.516 71.2759 25.6455 71.2759 25.6887C71.2759 25.7319 71.2654 25.775 71.2444 25.8182C71.2024 25.9045 71.1394 26.0016 71.0554 26.1095C70.9924 26.1959 70.9399 26.293 70.8979 26.4009C70.793 26.5519 70.7195 26.6491 70.6775 26.6922C70.5935 26.8433 70.52 26.9512 70.457 27.0159C70.4151 27.0591 70.3731 27.1238 70.3311 27.2102C70.2891 27.2749 70.2366 27.3397 70.1736 27.4044C70.1316 27.4692 70.1001 27.5555 70.0791 27.6634C69.9322 27.7929 69.8482 27.8792 69.8272 27.9224C69.8272 27.9655 69.8167 28.0087 69.7957 28.0518C69.6907 28.2029 69.6277 28.2892 69.6067 28.3108C69.6067 28.3324 69.5857 28.354 69.5438 28.3756C69.3968 28.5051 69.2918 28.6022 69.2288 28.6669C69.1868 28.7317 69.1448 28.7856 69.1029 28.8288C68.8929 29.0014 68.7564 29.1093 68.6934 29.1525C68.6305 29.1957 68.578 29.2496 68.536 29.3143C68.368 29.487 68.284 29.5733 68.284 29.5733C68.284 29.5517 68.263 29.541 68.2211 29.541C68.0321 29.7352 67.9061 29.8647 67.8431 29.9294C67.8012 29.9942 67.7487 30.0481 67.6857 30.0913C67.6227 30.1344 67.5492 30.1884 67.4652 30.2531C67.4022 30.3179 67.3393 30.3718 67.2763 30.415C67.2343 30.4582 67.1818 30.5013 67.1188 30.5445C67.0558 30.5876 67.0033 30.6308 66.9613 30.674C66.7724 30.825 66.6569 30.9114 66.6149 30.9329C66.5939 30.9329 66.5729 30.9545 66.5519 30.9977C66.405 31.0408 66.258 31.1056 66.111 31.1919C65.9851 31.2782 65.8486 31.343 65.7016 31.3861C65.4707 31.4941 65.3342 31.5696 65.2922 31.6127C65.2502 31.6343 65.2083 31.6559 65.1663 31.6775C64.9563 31.7422 64.8408 31.7746 64.8198 31.7746C64.8198 31.753 64.7988 31.753 64.7569 31.7746C64.5259 31.8609 64.3684 31.9041 64.2845 31.9041C64.2215 31.8825 64.1375 31.8933 64.0325 31.9365C63.8016 32.0012 63.6861 32.0336 63.6861 32.0336C63.3502 32.0983 63.1087 32.1523 62.9618 32.1954C62.8148 32.2386 62.6678 32.271 62.5209 32.2926C62.4369 32.3141 62.2899 32.3249 62.08 32.3249C61.975 32.3681 61.891 32.3897 61.828 32.3897C61.786 32.4113 61.7441 32.4328 61.7021 32.4544C61.4921 32.476 61.3242 32.476 61.1982 32.4544C61.0722 32.4328 60.9042 32.4544 60.6943 32.5192C60.6103 32.476 60.5158 32.4652 60.4109 32.4868C60.3269 32.5084 60.2639 32.4976 60.2219 32.4544C60.012 32.4544 59.865 32.4652 59.781 32.4868C59.697 32.5084 59.6235 32.5192 59.5606 32.5192C59.3506 32.4976 59.2036 32.476 59.1197 32.4544C59.0567 32.4544 59.0042 32.4652 58.9622 32.4868C58.8152 32.422 58.7208 32.3789 58.6788 32.3573C58.6578 32.3573 58.6263 32.3681 58.5843 32.3897L58.2379 32.3249C58.0279 32.2386 57.8914 32.1954 57.8285 32.1954C57.7655 32.217 57.7025 32.217 57.6395 32.1954C57.5345 32.1739 57.44 32.1415 57.3561 32.0983C57.2721 32.0552 57.1881 32.0552 57.1041 32.0983C56.9152 31.9688 56.7787 31.8933 56.6947 31.8717C56.6317 31.8286 56.5583 31.7962 56.4743 31.7746C56.2853 31.6235 56.1698 31.5372 56.1279 31.5156C56.1069 31.4941 56.0754 31.4725 56.0334 31.4509C55.8024 31.3646 55.6765 31.3106 55.6555 31.289C55.6345 31.2674 55.603 31.2567 55.561 31.2567C55.393 31.1272 55.2985 31.0732 55.2775 31.0948C55.2775 31.0948 55.2566 31.084 55.2146 31.0624C55.0046 30.8682 54.8996 30.7711 54.8996 30.7711C54.9206 30.7495 54.9101 30.7171 54.8681 30.674C54.6792 30.5876 54.5847 30.5445 54.5847 30.5445C54.5847 30.5229 54.5742 30.5121 54.5532 30.5121L54.2068 30.2208L53.8919 30.0265C53.7239 29.8323 53.6399 29.7244 53.6399 29.7028L53.3565 29.4762C53.1255 29.282 52.9681 29.1633 52.8841 29.1201C52.8211 29.0554 52.7371 28.9906 52.6322 28.9259C52.5482 28.7748 52.4957 28.6885 52.4747 28.6669C52.4747 28.6453 52.4537 28.6237 52.4117 28.6022C52.2647 28.3648 52.1703 28.2245 52.1283 28.1813C52.0863 28.1166 52.0338 28.0626 51.9708 28.0195C51.9078 27.8252 51.7924 27.6526 51.6244 27.5015C51.4774 27.2857 51.3829 27.1562 51.341 27.1131C51.299 27.0267 51.2465 26.9512 51.1835 26.8865C51.1415 26.8001 51.0995 26.703 51.0575 26.5951C50.9525 26.4656 50.8686 26.3685 50.8056 26.3038C50.7006 26.1095 50.6481 26.0016 50.6481 25.98C50.6061 25.9369 50.5536 25.8182 50.4907 25.624C50.3437 25.3434 50.2597 25.1707 50.2387 25.106C50.1127 24.8686 50.0498 24.7283 50.0498 24.6852C50.0498 24.642 50.0288 24.5988 49.9868 24.5557C49.9028 24.3183 49.8503 24.178 49.8293 24.1348L49.7033 23.6816C49.6194 23.4874 49.5669 23.3148 49.5459 23.1637C49.5249 23.0126 49.4829 22.8723 49.4199 22.7429C49.3989 22.6134 49.3779 22.527 49.3569 22.4839C49.3569 22.4191 49.3359 22.3436 49.2939 22.2573C49.168 21.8472 49.1155 21.4911 49.1365 21.189C49.1365 21.1027 49.1365 21.0271 49.1365 20.9624C49.1575 20.8977 49.168 20.8221 49.168 20.7358C49.147 20.6495 49.126 20.5632 49.105 20.4768C49.105 20.3905 49.0945 20.2934 49.0735 20.1855C49.0945 19.9697 49.084 19.8294 49.042 19.7646C49.021 19.6999 49.021 19.6244 49.042 19.538C49 19.4086 48.9895 19.3222 49.0105 19.2791C49.0315 19.2143 49.042 19.128 49.042 19.0201C49.042 18.869 49.042 18.7827 49.042 18.7611C49.063 18.7395 49.0735 18.7072 49.0735 18.664C49.0945 18.5777 49.105 18.4914 49.105 18.405C49.105 18.3187 49.1155 18.2324 49.1365 18.1461C49.1575 17.9518 49.168 17.8223 49.168 17.7576C49.168 17.6928 49.1785 17.6065 49.1995 17.4986C49.2414 17.2181 49.2729 17.067 49.2939 17.0454C49.3359 16.808 49.3569 16.6569 49.3569 16.5922C49.3569 16.5275 49.3674 16.4627 49.3884 16.398C49.4724 16.2469 49.5144 16.1606 49.5144 16.139C49.5144 16.0958 49.5354 16.0635 49.5774 16.0419C49.5984 15.7829 49.6299 15.5887 49.6718 15.4592C49.8188 15.2218 49.8923 15.0923 49.8923 15.0707C49.8923 15.0276 49.9028 14.9844 49.9238 14.9412C49.9448 14.8981 49.9763 14.8549 50.0183 14.8118C50.0603 14.747 50.1022 14.6823 50.1442 14.6175C50.2072 14.5096 50.2597 14.4017 50.3017 14.2938C50.3647 14.1643 50.4382 14.0456 50.5221 13.9377C50.4802 13.873 50.4907 13.8082 50.5536 13.7435C50.6166 13.6787 50.6271 13.614 50.5851 13.5492C50.6691 13.4629 50.7321 13.3658 50.7741 13.2579C50.8371 13.15 50.9106 13.0637 50.9945 12.9989C50.9945 12.891 51.0155 12.8047 51.0575 12.74C51.1205 12.6752 51.173 12.6105 51.215 12.5457C51.257 12.4594 51.3095 12.3947 51.3725 12.3515C51.4564 12.2867 51.5299 12.222 51.5929 12.1573C51.7399 11.9846 51.8133 11.8875 51.8133 11.8659C51.8133 11.8443 51.8238 11.8227 51.8448 11.8012C51.9498 11.6501 52.0128 11.5638 52.0338 11.5422C52.0758 11.5206 52.1073 11.4774 52.1283 11.4127C52.2123 11.3911 52.2752 11.348 52.3172 11.2832C52.3802 11.2185 52.4432 11.1645 52.5062 11.1214C52.6112 11.035 52.6742 10.9919 52.6951 10.9919C52.7371 10.9703 52.7791 10.9379 52.8211 10.8948C52.9471 10.7437 53.0416 10.6358 53.1046 10.571C53.1465 10.5279 53.1885 10.4847 53.2305 10.4416C53.2725 10.3984 53.3145 10.3552 53.3565 10.3121C53.5245 10.1394 53.6189 10.0531 53.6399 10.0531C53.7869 9.96676 53.8709 9.91281 53.8919 9.89123C53.9339 9.84807 53.9968 9.81569 54.0808 9.79411L54.3328 9.53514C54.4797 9.38407 54.5637 9.29774 54.5847 9.27616C54.6057 9.25458 54.6267 9.22221 54.6477 9.17905L54.9941 8.95244C55.1411 8.80138 55.2566 8.72584 55.3405 8.72584C55.5505 8.59635 55.6765 8.53161 55.7184 8.53161C55.7814 8.53161 55.8444 8.51003 55.9074 8.46687C56.0964 8.4237 56.2328 8.39133 56.3168 8.36975C56.4428 8.28343 56.5268 8.24026 56.5688 8.24026C56.6107 8.21868 56.6527 8.1971 56.6947 8.17552C56.9677 8.1971 57.1671 8.17552 57.2931 8.11078C57.4191 8.04603 57.5345 7.99208 57.6395 7.94892C57.7865 7.86259 57.9019 7.79785 57.9859 7.75469C58.0699 7.68994 58.1644 7.64678 58.2694 7.6252C58.5213 7.60362 58.6788 7.58204 58.7417 7.56045C58.8047 7.53887 58.8887 7.52808 58.9937 7.52808L59.4661 7.43097C59.676 7.3878 59.802 7.37701 59.844 7.3986C59.907 7.42018 59.9595 7.43097 60.0015 7.43097L60.2849 7.36622ZM65.8591 15.1031C65.8591 14.9952 65.8276 14.9089 65.7646 14.8441C65.7226 14.7578 65.6806 14.6607 65.6387 14.5528C65.4497 14.3585 65.3237 14.2398 65.2607 14.1967C65.2188 14.1535 65.1663 14.1104 65.1033 14.0672C64.9563 13.8945 64.8303 13.7759 64.7254 13.7111C64.5994 13.56 64.5154 13.4845 64.4734 13.4845C64.4524 13.4845 64.4419 13.4629 64.4419 13.4198L64.127 13.2255C63.938 13.0745 63.7281 12.945 63.4972 12.8371L63.1507 12.74C62.8988 12.632 62.7518 12.5565 62.7098 12.5133C62.5629 12.427 62.4579 12.3839 62.3949 12.3839C62.3319 12.3839 62.2794 12.3731 62.2374 12.3515C62.0065 12.2652 61.87 12.2112 61.828 12.1896C61.6181 12.168 61.4921 12.1465 61.4501 12.1249C61.4081 12.0817 61.3661 12.0817 61.3242 12.1249H60.8518C60.6628 12.1465 60.5158 12.168 60.4109 12.1896C60.3059 12.1896 60.2114 12.2112 60.1274 12.2544C59.8545 12.3191 59.676 12.3515 59.5921 12.3515C59.5081 12.3515 59.4136 12.3731 59.3086 12.4162C59.1407 12.481 59.0357 12.5241 58.9937 12.5457C58.9517 12.5673 58.9202 12.5673 58.8992 12.5457C58.7103 12.5889 58.6053 12.6213 58.5843 12.6428C58.5633 12.6428 58.5423 12.6536 58.5213 12.6752L58.2064 12.8371C58.1224 12.8802 58.0489 12.9234 57.9859 12.9666C57.9439 12.9881 57.9019 13.0205 57.86 13.0637C57.608 13.2579 57.461 13.3658 57.4191 13.3874C57.2301 13.56 57.1356 13.6356 57.1356 13.614C56.9257 13.9161 56.7682 14.1212 56.6632 14.2291C56.5792 14.3154 56.5058 14.4125 56.4428 14.5204C56.3378 14.542 56.2643 14.5959 56.2223 14.6823C56.1803 14.7686 56.1174 14.8333 56.0334 14.8765C55.9914 15.006 55.9389 15.1139 55.8759 15.2002C55.8129 15.2865 55.7604 15.3944 55.7184 15.5239C55.6135 15.6966 55.519 15.8477 55.435 15.9771C55.372 16.085 55.3195 16.193 55.2775 16.3009C55.2356 16.4519 55.2146 16.5706 55.2146 16.6569C55.1096 16.8296 55.0571 16.9375 55.0571 16.9807C55.0781 17.0022 55.0886 17.0238 55.0886 17.0454C55.0886 17.1965 55.0781 17.2936 55.0571 17.3368C55.0571 17.3799 55.0571 17.4231 55.0571 17.4662C55.0151 17.7036 54.9836 17.8331 54.9626 17.8547C54.9626 17.8547 54.9626 17.8655 54.9626 17.8871C54.8996 18.1245 54.8681 18.254 54.8681 18.2755C54.8891 18.2971 54.8891 18.3295 54.8681 18.3727C54.7842 18.6316 54.7422 18.8367 54.7422 18.9877C54.7632 19.1172 54.7737 19.2359 54.7737 19.3438C54.7527 19.4949 54.7422 19.6136 54.7422 19.6999C54.7632 19.7646 54.7737 19.8294 54.7737 19.8941C54.7317 20.1747 54.7107 20.3581 54.7107 20.4445C54.7317 20.5092 54.7422 20.5847 54.7422 20.6711C54.7422 20.7358 54.7317 20.8005 54.7107 20.8653C54.7107 20.93 54.7212 20.9948 54.7422 21.0595C54.7632 21.1027 54.7842 21.1566 54.8052 21.2214C54.8262 21.2861 54.8367 21.3509 54.8367 21.4156C54.8576 21.653 54.8681 21.7825 54.8681 21.8041C54.8891 21.8257 54.8996 21.858 54.8996 21.9012C54.9416 22.0738 54.9521 22.2249 54.9311 22.3544C54.9311 22.4623 54.9731 22.5702 55.0571 22.6781C55.0571 22.7429 55.0571 22.8292 55.0571 22.9371C55.0781 23.045 55.0991 23.1205 55.1201 23.1637C55.2041 23.2932 55.2566 23.4011 55.2775 23.4874L55.4665 23.8435C55.4875 23.9514 55.519 24.0377 55.561 24.1025C55.603 24.1672 55.6345 24.2428 55.6555 24.3291C55.7604 24.437 55.8549 24.5557 55.9389 24.6852C56.0229 24.7931 56.0859 24.9334 56.1279 25.106C56.1698 25.1492 56.2223 25.1923 56.2853 25.2355C56.3483 25.2787 56.4008 25.3434 56.4428 25.4297C56.6737 25.6455 56.8102 25.7858 56.8522 25.8506C56.9572 25.8937 57.0516 25.9585 57.1356 26.0448C57.2406 26.1095 57.3456 26.1851 57.4505 26.2714C57.5135 26.3146 57.5765 26.3685 57.6395 26.4333C57.7025 26.4764 57.755 26.5088 57.797 26.5304C57.9439 26.6599 58.0489 26.7246 58.1119 26.7246C58.1749 26.7246 58.2274 26.7354 58.2694 26.757C58.5003 26.8433 58.6263 26.8972 58.6473 26.9188C58.8782 27.0052 58.9937 27.0483 58.9937 27.0483C59.2456 27.1562 59.4136 27.221 59.4976 27.2425C59.5816 27.2641 59.6445 27.2857 59.6865 27.3073C59.9175 27.3505 60.0539 27.3612 60.0959 27.3397C60.1589 27.3181 60.2114 27.3073 60.2534 27.3073C60.4634 27.3073 60.5788 27.3073 60.5998 27.3073C60.6208 27.2857 60.6523 27.2749 60.6943 27.2749C60.9672 27.3397 61.1247 27.372 61.1667 27.372C61.2297 27.3505 61.2927 27.3289 61.3556 27.3073C61.5236 27.2425 61.7231 27.2318 61.954 27.2749C62.059 27.2318 62.1535 27.1994 62.2374 27.1778C62.3424 27.1346 62.4369 27.0915 62.5209 27.0483C62.6259 26.9836 62.6993 26.962 62.7413 26.9836C62.8043 26.9836 62.8568 26.9728 62.8988 26.9512C63.1087 26.8649 63.2242 26.8109 63.2452 26.7893C63.3922 26.6814 63.4972 26.6383 63.5601 26.6599C63.6441 26.6599 63.7071 26.6599 63.7491 26.6599C63.8541 26.6383 63.9276 26.6059 63.9695 26.5627C64.0115 26.498 64.0745 26.4548 64.1585 26.4333C64.3265 26.3901 64.4419 26.3361 64.5049 26.2714C64.7569 26.1635 64.8933 26.0987 64.9143 26.0772C64.9353 26.034 64.9668 26.0124 65.0088 26.0124C65.2607 25.7534 65.4077 25.5808 65.4497 25.4945C65.5967 25.365 65.6911 25.2787 65.7331 25.2355C65.7751 25.0413 65.8276 24.9118 65.8906 24.847C66.0166 24.8039 66.09 24.7607 66.111 24.7175C66.153 24.6528 66.1845 24.5988 66.2055 24.5557C66.3105 24.3615 66.3735 24.2535 66.3945 24.232C66.4155 24.2104 66.426 24.1888 66.426 24.1672C66.468 23.9946 66.4785 23.8975 66.4575 23.8759C66.4575 23.8543 66.4575 23.8219 66.4575 23.7788C66.5834 23.6061 66.6674 23.4227 66.7094 23.2284C66.7304 23.1205 66.7514 23.0018 66.7724 22.8723C66.8144 22.7213 66.8564 22.6242 66.8984 22.581C66.9823 22.3436 67.0348 22.1925 67.0558 22.1278C67.0768 22.0415 67.0978 21.9551 67.1188 21.8688C67.1398 21.7177 67.1608 21.6206 67.1818 21.5775C67.2028 21.5127 67.2133 21.4588 67.2133 21.4156C67.1923 21.1782 67.1923 21.0487 67.2133 21.0271C67.2343 20.984 67.2238 20.9408 67.1818 20.8977C67.2448 20.6171 67.2763 20.4445 67.2763 20.3797C67.2553 20.1855 67.2448 20.056 67.2448 19.9913C67.2658 19.9049 67.2553 19.8402 67.2133 19.797C67.2553 19.538 67.2448 19.2791 67.1818 19.0201L67.0873 18.6316C67.0243 18.4374 66.9928 18.3079 66.9928 18.2432C66.9718 18.0058 66.9299 17.8439 66.8669 17.7576C66.7829 17.5849 66.7409 17.4662 66.7409 17.4015C66.7619 17.3368 66.7724 17.2828 66.7724 17.2396C66.7514 17.1749 66.7199 17.1102 66.6779 17.0454C66.6569 16.9807 66.6359 16.9159 66.6149 16.8512C66.5939 16.6138 66.5729 16.4735 66.5519 16.4303C66.447 16.2145 66.3945 16.085 66.3945 16.0419C66.2895 15.8045 66.237 15.6534 66.237 15.5887C66.237 15.5024 66.216 15.4052 66.174 15.2973C66.0691 15.2973 65.9956 15.265 65.9536 15.2002C65.9326 15.1355 65.9011 15.1031 65.8591 15.1031Z" fill="#1B1F2E"/>
<path d="M88.3449 20.5092C88.3869 20.5739 88.4184 20.6387 88.4394 20.7034C88.4604 20.7682 88.4919 20.8221 88.5339 20.8653C88.6388 20.9948 88.7123 21.0811 88.7543 21.1243C88.7963 21.1674 88.8383 21.1998 88.8803 21.2214C88.9643 21.2861 89.0272 21.3401 89.0692 21.3832C89.1112 21.4048 89.1427 21.4372 89.1637 21.4804C89.2267 21.5019 89.2792 21.5451 89.3212 21.6098C89.3632 21.653 89.4262 21.6746 89.5101 21.6746C89.6361 21.912 89.7516 22.0415 89.8566 22.063L90.14 22.2897C90.182 22.3328 90.224 22.3868 90.266 22.4515C90.3289 22.4947 90.3919 22.5378 90.4549 22.581C90.6859 22.7968 90.8118 22.9371 90.8328 23.0018C90.9798 23.1961 91.0848 23.3148 91.1478 23.3579C91.2107 23.4011 91.2632 23.4442 91.3052 23.4874C91.4732 23.6601 91.5992 23.8111 91.6831 23.9406C91.8721 24.1133 91.9771 24.2428 91.9981 24.3291C92.0191 24.4154 92.0506 24.4802 92.0925 24.5233C92.1555 24.7175 92.187 24.847 92.187 24.9118C92.313 25.1276 92.3865 25.3002 92.4075 25.4297C92.4495 25.5376 92.4915 25.6563 92.5334 25.7858C92.5124 26.0232 92.4915 26.1743 92.4705 26.239C92.4705 26.3038 92.46 26.3685 92.439 26.4333C92.334 26.6922 92.2815 26.8541 92.2815 26.9188C92.3025 26.9836 92.292 27.0591 92.25 27.1454C92.229 27.2318 92.187 27.3073 92.124 27.372C92.082 27.4368 92.0611 27.5231 92.0611 27.631C91.9981 27.6742 91.9456 27.7281 91.9036 27.7929C91.8616 27.8576 91.8196 27.9224 91.7776 27.9871C91.6306 28.1382 91.5467 28.2245 91.5257 28.2461C91.5047 28.2461 91.4732 28.2677 91.4312 28.3108L91.1793 28.6993C91.0323 28.8719 90.9483 28.969 90.9273 28.9906C90.9063 28.9906 90.8853 29.0122 90.8643 29.0554C90.7593 29.1633 90.6649 29.282 90.5809 29.4115C90.308 29.5841 90.098 29.7676 89.951 29.9618C89.7201 30.1129 89.5836 30.21 89.5416 30.2531C89.5206 30.2747 89.4891 30.3071 89.4472 30.3502C89.3002 30.415 89.1952 30.4689 89.1322 30.5121C89.0902 30.5553 89.0482 30.5984 89.0063 30.6416C88.7753 30.7927 88.6178 30.8898 88.5339 30.9329L88.2504 31.1595C88.1035 31.289 88.0195 31.3538 87.9985 31.3538C87.9775 31.3538 87.9565 31.3646 87.9355 31.3861L87.6521 31.6127C87.4841 31.6559 87.3896 31.6883 87.3686 31.7099C87.3476 31.7314 87.3161 31.7422 87.2742 31.7422C87.1062 31.8501 86.9067 31.9257 86.6758 31.9688C86.4658 32.012 86.2559 32.0767 86.0459 32.1631C85.857 32.1415 85.731 32.1307 85.668 32.1307C85.626 32.1307 85.584 32.1415 85.5421 32.1631C85.3321 32.1847 85.1536 32.2062 85.0067 32.2278C84.8807 32.2494 84.7442 32.2602 84.5973 32.2602L84.0304 32.2278C83.7995 32.1847 83.663 32.1523 83.621 32.1307C83.579 32.1091 83.537 32.0875 83.495 32.066C83.3061 32.0228 83.1906 32.0012 83.1486 32.0012C83.1066 32.0228 83.0646 32.0336 83.0226 32.0336C82.9177 32.0336 82.8232 32.0228 82.7392 32.0012C82.6762 32.0012 82.5922 32.0012 82.4873 32.0012C82.4243 32.0012 82.3508 32.0012 82.2668 32.0012C82.2038 32.0228 82.1303 32.0228 82.0464 32.0012C82.0044 32.0012 81.9414 32.0012 81.8574 32.0012C81.7944 32.0228 81.7419 32.0336 81.6999 32.0336C81.532 32.0336 81.406 32.0444 81.322 32.066C81.259 32.0875 81.1646 32.0983 81.0386 32.0983C80.8706 32.0767 80.7552 32.0767 80.6922 32.0983C80.6502 32.1199 80.6082 32.1415 80.5662 32.1631C80.3563 32.2062 80.1673 32.217 79.9993 32.1954C79.8314 32.1954 79.6949 32.2278 79.5899 32.2926C79.5059 32.2494 79.422 32.2278 79.338 32.2278C79.275 32.2494 79.2015 32.271 79.1175 32.2926C78.8236 32.271 78.6137 32.271 78.4877 32.2926C78.3617 32.3141 78.2252 32.3141 78.0783 32.2926C77.9103 32.2494 77.8158 32.2278 77.7948 32.2278C77.7739 32.2494 77.7424 32.2602 77.7004 32.2602C77.6584 32.2602 77.5954 32.2494 77.5114 32.2278C77.4274 32.2278 77.3644 32.2386 77.3225 32.2602C76.9865 32.1739 76.7661 32.1415 76.6611 32.1631C76.5561 32.1847 76.4512 32.1847 76.3462 32.1631C76.2412 32.1199 76.1362 32.066 76.0313 32.0012C75.8843 31.8717 75.7898 31.7854 75.7478 31.7422C75.7268 31.6991 75.7163 31.6559 75.7163 31.6127C75.7163 31.4401 75.7058 31.3214 75.6848 31.2567C75.6848 31.1919 75.6848 31.1272 75.6848 31.0624C75.7058 30.9545 75.7058 30.879 75.6848 30.8358C75.6848 30.7711 75.6848 30.7063 75.6848 30.6416L75.6533 30.1236V29.7352C75.6953 29.5841 75.7058 29.4978 75.6848 29.4762C75.6848 29.433 75.6953 29.3899 75.7163 29.3467C75.7373 29.2388 75.7478 29.1417 75.7478 29.0554C75.7688 28.969 75.7898 28.8504 75.8108 28.6993C75.8738 28.4619 75.8948 28.3216 75.8738 28.2784C75.8738 28.2137 75.8738 28.1597 75.8738 28.1166C75.8948 28.0087 75.9158 27.9224 75.9368 27.8576C75.9578 27.7713 75.9683 27.685 75.9683 27.5986V27.2102C75.9893 27.0591 75.9893 26.9728 75.9683 26.9512C75.9683 26.9296 75.9683 26.8972 75.9683 26.8541C75.9893 26.7462 75.9998 26.6383 75.9998 26.5304C76.0208 26.4009 76.0313 26.2606 76.0313 26.1095C76.0522 25.829 76.0522 25.6671 76.0313 25.624C76.0313 25.5808 76.0313 25.5376 76.0313 25.4945C76.0522 25.2355 76.0522 25.0628 76.0313 24.9765C76.0313 24.8902 76.0313 24.7931 76.0313 24.6852C76.0522 24.642 76.0522 24.5881 76.0313 24.5233C76.0103 24.437 75.9998 24.3507 75.9998 24.2643C75.9998 24.178 75.9998 24.1025 75.9998 24.0377C76.0208 23.9514 76.0313 23.8543 76.0313 23.7464C76.0313 23.4658 76.0208 23.2608 75.9998 23.1313C75.9998 23.0018 75.9893 22.8723 75.9683 22.7429C75.9683 22.6565 75.9578 22.581 75.9368 22.5163C75.9368 22.4299 75.9368 22.3436 75.9368 22.2573V21.2861C75.9158 21.0703 75.9053 20.9516 75.9053 20.93L75.8423 19.797C75.8213 19.7323 75.8003 19.6675 75.7793 19.6028C75.7583 19.538 75.7478 19.4733 75.7478 19.4086L75.7793 19.0201L75.8108 18.5993C75.7898 18.3619 75.7583 18.1784 75.7163 18.0489C75.7373 17.7468 75.7268 17.5526 75.6848 17.4662C75.6638 17.3583 75.6743 17.2612 75.7163 17.1749C75.7163 17.0238 75.7058 16.9267 75.6848 16.8836C75.6848 16.8188 75.6848 16.7649 75.6848 16.7217C75.6009 16.3332 75.5484 16.0419 75.5274 15.8477C75.5064 15.6966 75.5064 15.5347 75.5274 15.3621C75.5484 15.1894 75.5484 15.0168 75.5274 14.8441C75.5274 14.7794 75.5169 14.7146 75.4959 14.6499C75.4959 14.5851 75.4959 14.5312 75.4959 14.488C75.4749 14.3585 75.4749 14.2183 75.4959 14.0672C75.5169 13.9161 75.5274 13.7866 75.5274 13.6787C75.5274 13.4845 75.5169 13.3766 75.4959 13.355C75.4749 13.3334 75.4644 13.3119 75.4644 13.2903C75.4644 13.2039 75.4749 13.1284 75.4959 13.0637C75.5169 12.9989 75.5274 12.9342 75.5274 12.8694L75.4959 12.1896C75.4749 12.1249 75.4539 12.0709 75.4329 12.0278C75.4119 11.963 75.4014 11.8875 75.4014 11.8012V11.2832C75.4014 11.089 75.3909 10.8948 75.3699 10.7005C75.3489 10.4847 75.3594 10.3013 75.4014 10.1502C75.3594 10.0855 75.3384 9.97755 75.3384 9.82648C75.3594 9.65383 75.3384 9.53514 75.2754 9.47039C75.2964 9.21142 75.2964 9.07114 75.2754 9.04956C75.2544 9.02798 75.2439 8.99561 75.2439 8.95244C75.2439 8.75821 75.2649 8.65031 75.3069 8.62873C75.3489 8.58556 75.3489 8.53161 75.3069 8.46687C75.4329 8.22947 75.5274 8.11078 75.5904 8.11078C75.6743 8.0892 75.7373 8.05682 75.7793 8.01366C75.8843 8.01366 75.9578 8.02445 75.9998 8.04603C76.0417 8.04603 76.0837 8.01366 76.1257 7.94892H76.5036C76.6716 7.99208 76.7661 8.01366 76.7871 8.01366C76.8081 7.99208 76.8396 7.98129 76.8816 7.98129C77.1335 8.00287 77.3225 8.00287 77.4484 7.98129C77.5954 7.95971 77.7319 7.9705 77.8578 8.01366C77.9208 7.9705 77.9943 7.95971 78.0783 7.98129C78.1833 8.00287 78.2357 7.99208 78.2357 7.94892C78.4667 7.9705 78.6137 7.99208 78.6766 8.01366C78.7396 8.01366 78.7921 8.00287 78.8341 7.98129C79.149 7.93813 79.3275 7.92734 79.3695 7.94892C79.5374 7.9705 79.6319 7.98129 79.6529 7.98129C79.6949 7.95971 79.7369 7.94892 79.7789 7.94892C80.0308 7.94892 80.1568 7.92734 80.1568 7.88417C80.4717 7.99208 80.7027 8.03524 80.8496 8.01366C81.0176 7.9705 81.1541 7.94892 81.259 7.94892H82.0149C82.1828 7.92734 82.3298 7.91655 82.4558 7.91655C82.5817 7.89496 82.7182 7.86259 82.8652 7.81943C83.0751 7.88417 83.2011 7.90575 83.2431 7.88417C83.3061 7.86259 83.3691 7.84101 83.432 7.81943H84.0304C84.3663 7.81943 84.6078 7.81943 84.7547 7.81943C84.9227 7.81943 85.0907 7.81943 85.2586 7.81943C85.3846 7.79785 85.4896 7.78706 85.5735 7.78706C85.6785 7.76548 85.773 7.7331 85.857 7.68994L86.2349 7.78706C86.4239 7.78706 86.5288 7.78706 86.5498 7.78706C86.5708 7.76548 86.6023 7.76548 86.6443 7.78706C86.8123 7.8518 86.9067 7.88417 86.9277 7.88417C86.9487 7.88417 86.9802 7.89496 87.0222 7.91655C87.0852 7.93813 87.1482 7.95971 87.2112 7.98129C87.2742 8.00287 87.3476 8.01366 87.4316 8.01366C87.6626 8.12157 87.841 8.1971 87.967 8.24026C88.072 8.41291 88.1455 8.52082 88.1874 8.56398C88.2504 8.60714 88.3029 8.6611 88.3449 8.72584C88.4709 8.87691 88.5339 8.96324 88.5339 8.98482C88.5549 9.0064 88.5759 9.02798 88.5969 9.04956C88.7228 9.20063 88.7858 9.28695 88.7858 9.30854C88.7858 9.30854 88.7963 9.31933 88.8173 9.34091C88.9013 9.42723 88.9643 9.50277 89.0063 9.56751C89.0482 9.63225 89.1007 9.68621 89.1637 9.72937C89.2897 9.88044 89.3842 10.0099 89.4472 10.1178C89.5311 10.2042 89.6151 10.3013 89.6991 10.4092C89.8671 10.6466 89.9825 10.7976 90.0455 10.8624C90.1085 10.9271 90.161 11.0027 90.203 11.089C90.287 11.1537 90.3499 11.2077 90.3919 11.2508C90.4339 11.294 90.4759 11.3372 90.5179 11.3803C90.7279 11.6609 90.8538 11.8551 90.8958 11.963C91.0428 12.1141 91.1373 12.2112 91.1793 12.2544C91.2212 12.2975 91.2632 12.3407 91.3052 12.3839C91.4312 12.6213 91.5362 12.7831 91.6201 12.8694C91.7881 13.0637 91.8721 13.1716 91.8721 13.1932C91.8931 13.2147 91.9246 13.2579 91.9666 13.3226C92.1135 13.4953 92.1975 13.6032 92.2185 13.6464C92.3655 13.8622 92.439 13.9809 92.439 14.0025C92.46 14.024 92.4809 14.0456 92.5019 14.0672C92.6489 14.2614 92.7224 14.4017 92.7224 14.488C92.7224 14.5528 92.7434 14.6391 92.7854 14.747C92.8484 14.9197 92.8904 15.0168 92.9114 15.0384C92.9324 15.0599 92.9428 15.0923 92.9428 15.1355C92.9638 15.3729 92.9533 15.5671 92.9114 15.7182C92.8694 15.9124 92.8274 16.0311 92.7854 16.0743C92.7644 16.1174 92.7434 16.1606 92.7224 16.2037C92.6804 16.2685 92.6594 16.344 92.6594 16.4303C92.6804 16.4951 92.6699 16.5706 92.6279 16.6569C92.439 16.8296 92.313 16.9483 92.25 17.013C92.208 17.0562 92.166 17.0994 92.124 17.1425C91.9981 17.2936 91.9246 17.4123 91.9036 17.4986C91.7986 17.5418 91.7251 17.6065 91.6831 17.6928C91.6621 17.7576 91.5992 17.8115 91.4942 17.8547C91.4522 17.9626 91.3997 18.0381 91.3367 18.0813C91.2737 18.1029 91.2212 18.1676 91.1793 18.2755C90.9063 18.4266 90.6859 18.5669 90.5179 18.6964C90.4759 18.7395 90.4339 18.7827 90.3919 18.8259C90.3499 18.869 90.2975 18.9014 90.2345 18.923C90.1295 19.0309 90.056 19.1064 90.014 19.1496C89.993 19.1712 89.9615 19.2035 89.9195 19.2467C89.7516 19.333 89.5836 19.4409 89.4157 19.5704C89.2057 19.7215 89.0797 19.8078 89.0377 19.8294C89.0168 19.8294 88.9853 19.851 88.9433 19.8941C88.7543 20.0884 88.6493 20.1963 88.6283 20.2179C88.4814 20.3689 88.4079 20.4552 88.4079 20.4768C88.4079 20.4768 88.3869 20.4876 88.3449 20.5092ZM86.6758 14.8765C86.5288 14.6607 86.4553 14.542 86.4553 14.5204C86.4553 14.4988 86.4448 14.4665 86.4239 14.4233C86.2979 14.2938 86.2244 14.2075 86.2034 14.1643C86.2034 14.1212 86.1824 14.078 86.1404 14.0348C86.0144 13.8622 85.941 13.7651 85.92 13.7435C85.815 13.5924 85.731 13.4845 85.668 13.4198C85.626 13.3766 85.584 13.3226 85.5421 13.2579C85.5211 13.1932 85.4896 13.1392 85.4476 13.096C85.2796 12.9234 85.1851 12.8371 85.1641 12.8371C85.0172 12.6644 84.9227 12.5565 84.8807 12.5133C84.7337 12.3191 84.6498 12.222 84.6288 12.222C84.6288 12.2004 84.6183 12.1896 84.5973 12.1896L84.3138 11.9307C84.2719 11.8659 84.2299 11.812 84.1879 11.7688C84.1669 11.7256 84.1354 11.6717 84.0934 11.6069C84.0304 11.5854 83.9674 11.553 83.9044 11.5098C83.8624 11.4667 83.8205 11.4235 83.7785 11.3803C83.5475 11.2508 83.432 11.1861 83.432 11.1861C83.2641 11.0998 83.1591 11.0566 83.1171 11.0566C83.0751 11.035 83.0436 11.0135 83.0226 10.9919C82.9387 10.9487 82.8652 10.9271 82.8022 10.9271C82.7392 10.9055 82.6867 10.884 82.6447 10.8624C82.5817 10.8408 82.5188 10.83 82.4558 10.83C82.4138 10.83 82.3508 10.8192 82.2668 10.7976C82.0359 10.7761 81.8889 10.7437 81.8259 10.7005C81.7629 10.6574 81.6999 10.6574 81.637 10.7005C81.49 10.9811 81.3955 11.1861 81.3535 11.3156C81.3325 11.4235 81.3115 11.5422 81.2905 11.6717L81.1646 12.222C81.1436 12.2867 81.1331 12.3623 81.1331 12.4486C81.1541 12.5349 81.1541 12.6213 81.1331 12.7076C81.0491 13.096 81.0176 13.3766 81.0386 13.5492C81.0596 13.7003 81.0806 13.8622 81.1016 14.0348C81.1016 14.1427 81.0911 14.2506 81.0701 14.3585C81.0701 14.4665 81.0806 14.5744 81.1016 14.6823C81.1016 14.747 81.1121 14.8118 81.1331 14.8765C81.1541 14.9412 81.1541 15.0168 81.1331 15.1031C81.1331 15.3189 81.1226 15.4484 81.1016 15.4916C81.1016 15.5347 81.1016 15.5779 81.1016 15.621C81.1646 15.9232 81.1856 16.139 81.1646 16.2685C81.1646 16.3764 81.1856 16.4843 81.2276 16.5922C81.1226 16.7433 81.1226 16.9483 81.2276 17.2073C81.1646 17.3368 81.1541 17.477 81.1961 17.6281L81.2276 18.0489C81.1856 18.2 81.1646 18.3295 81.1646 18.4374C81.1436 18.6101 81.1436 18.7503 81.1646 18.8582C81.2066 18.9446 81.2485 19.0417 81.2905 19.1496C81.4795 19.128 81.574 19.1172 81.574 19.1172C81.595 19.1172 81.616 19.1064 81.637 19.0848C81.8889 19.0417 82.0149 19.0201 82.0149 19.0201C82.1408 18.9338 82.2248 18.8906 82.2668 18.8906C82.3298 18.8906 82.3823 18.8798 82.4243 18.8582C82.6342 18.7287 82.7602 18.664 82.8022 18.664C82.8442 18.6208 82.8967 18.5885 82.9597 18.5669C83.0226 18.5237 83.0751 18.4806 83.1171 18.4374C83.3271 18.3295 83.453 18.2755 83.495 18.2755C83.642 18.1892 83.726 18.1461 83.747 18.1461C83.789 18.1461 83.831 18.1353 83.8729 18.1137C84.0199 17.9626 84.1249 17.8871 84.1879 17.8871L84.4713 17.6281C84.7022 17.4339 84.9017 17.3152 85.0697 17.272C85.2376 17.2289 85.3426 17.1425 85.3846 17.013C85.4476 16.9699 85.5001 16.9375 85.5421 16.9159C85.584 16.8728 85.626 16.8296 85.668 16.7864C85.773 16.7001 85.8465 16.6462 85.8885 16.6246C85.9305 16.5814 85.9515 16.549 85.9515 16.5275C86.0774 16.4196 86.1614 16.3548 86.2034 16.3332C86.2454 16.3116 86.2769 16.2793 86.2979 16.2361C86.4448 16.0419 86.5183 15.9448 86.5183 15.9448C86.5813 15.8584 86.6443 15.7829 86.7073 15.7182C86.7913 15.6318 86.8543 15.5347 86.8962 15.4268C86.8543 15.3405 86.8123 15.2542 86.7703 15.1678C86.7283 15.0815 86.6968 14.9844 86.6758 14.8765ZM82.0149 28.6669C82.2248 28.6885 82.3403 28.6885 82.3613 28.6669C82.5712 28.6669 82.6867 28.6669 82.7077 28.6669C82.9387 28.6237 83.0751 28.6022 83.1171 28.6022C83.1591 28.6022 83.2011 28.5914 83.2431 28.5698C83.453 28.5051 83.579 28.4511 83.621 28.4079C83.81 28.3648 83.9044 28.3432 83.9044 28.3432C83.9254 28.3216 83.9464 28.3108 83.9674 28.3108C84.0934 28.2245 84.1879 28.1813 84.2509 28.1813C84.3348 28.1813 84.3978 28.1597 84.4398 28.1166C84.6078 27.9655 84.7232 27.8792 84.7862 27.8576C84.8492 27.8144 84.9122 27.7713 84.9752 27.7281C85.1432 27.5986 85.2376 27.5339 85.2586 27.5339C85.2796 27.5123 85.2901 27.4907 85.2901 27.4692C85.4161 27.3181 85.4896 27.2533 85.5106 27.2749C85.5526 27.2749 85.584 27.2641 85.605 27.2425C85.731 26.9404 85.8255 26.7462 85.8885 26.6599C85.9515 26.5519 86.0039 26.4333 86.0459 26.3038C86.2139 26.1095 86.3189 25.9908 86.3609 25.9477C86.4239 25.8829 86.4658 25.829 86.4868 25.7858C86.4868 25.6132 86.4868 25.5268 86.4868 25.5268C86.5078 25.5053 86.5183 25.4729 86.5183 25.4297C86.4763 25.1276 86.4553 24.9549 86.4553 24.9118C86.4553 24.8686 86.4448 24.7931 86.4239 24.6852C86.2769 24.5341 86.1824 24.4478 86.1404 24.4262C86.1194 24.383 86.1089 24.3291 86.1089 24.2643C85.92 24.0917 85.8045 24.0054 85.7625 24.0054C85.7415 24.0054 85.7205 23.9946 85.6995 23.973C85.5735 23.8219 85.4266 23.6924 85.2586 23.5845C85.0907 23.4119 84.9857 23.304 84.9437 23.2608C84.9017 23.1961 84.8387 23.1529 84.7547 23.1313C84.6288 22.9803 84.5448 22.8939 84.5028 22.8723C84.4608 22.8508 84.4188 22.8292 84.3768 22.8076C84.1669 22.6781 84.0514 22.6026 84.0304 22.581C83.9254 22.4947 83.8414 22.4515 83.7785 22.4515C83.7365 22.4515 83.684 22.4407 83.621 22.4191C83.432 22.2897 83.3166 22.2141 83.2746 22.1925C83.2326 22.1494 83.2011 22.1386 83.1801 22.1602C82.9492 22.0738 82.8127 22.0307 82.7707 22.0307C82.7497 22.0307 82.7287 22.0199 82.7077 21.9983C82.3298 21.8472 82.0779 21.7717 81.9519 21.7717C81.8679 21.7285 81.7419 21.707 81.574 21.707C81.427 21.6854 81.322 21.6746 81.259 21.6746C81.1961 21.7609 81.1646 21.9444 81.1646 22.2249C81.1646 22.3976 81.1751 22.5702 81.1961 22.7429C81.2171 22.8939 81.238 23.0558 81.259 23.2284C81.28 23.3148 81.2905 23.4011 81.2905 23.4874C81.3115 23.5737 81.3115 23.6385 81.2905 23.6816C81.3325 23.8975 81.343 24.0161 81.322 24.0377C81.322 24.0377 81.322 24.0593 81.322 24.1025C81.343 24.2751 81.3535 24.4154 81.3535 24.5233C81.3325 24.6528 81.3325 24.7499 81.3535 24.8147C81.3745 24.8794 81.364 24.9226 81.322 24.9441C81.343 25.1384 81.3535 25.2571 81.3535 25.3002C81.3745 25.3434 81.385 25.3866 81.385 25.4297C81.406 25.624 81.406 25.7966 81.385 25.9477C81.385 26.0987 81.385 26.2282 81.385 26.3361L81.4165 26.6922C81.4165 26.8433 81.427 26.9404 81.448 26.9836C81.469 27.0267 81.4795 27.0807 81.4795 27.1454C81.5005 27.2318 81.511 27.3828 81.511 27.5986C81.49 27.7713 81.4795 27.8792 81.4795 27.9224C81.5005 27.9439 81.511 27.9655 81.511 27.9871C81.553 28.2029 81.5635 28.3216 81.5425 28.3432C81.5425 28.3648 81.553 28.3864 81.574 28.4079C81.6999 28.6022 81.7944 28.6993 81.8574 28.6993C81.9204 28.6777 81.9729 28.6669 82.0149 28.6669Z" fill="#1B1F2E"/>
<path d="M101.383 7.17199C101.425 7.10725 101.477 7.09646 101.54 7.13962C101.624 7.18278 101.687 7.18278 101.729 7.13962C101.876 7.24753 102.002 7.31227 102.107 7.33385C102.17 7.42018 102.275 7.48492 102.422 7.52808C102.59 7.67915 102.685 7.76548 102.706 7.78706C102.916 8.02445 103.073 8.17552 103.178 8.24026C103.304 8.30501 103.419 8.36975 103.524 8.43449C103.755 8.52082 103.881 8.58556 103.902 8.62873C103.923 8.67189 103.965 8.71505 104.028 8.75821L104.343 9.04956C104.469 9.13589 104.564 9.21142 104.627 9.27616C104.711 9.29774 104.795 9.33012 104.879 9.37328C104.984 9.39486 105.057 9.42723 105.099 9.47039C105.162 9.70779 105.183 9.85886 105.162 9.9236C105.162 9.98834 105.162 10.0531 105.162 10.1178C105.099 10.2042 105.057 10.2797 105.036 10.3444C105.036 10.3876 105.015 10.4308 104.973 10.4739C104.868 10.6466 104.795 10.7545 104.753 10.7976C104.606 10.9271 104.501 11.0135 104.438 11.0566C104.396 11.0782 104.354 11.1106 104.312 11.1537C104.123 11.348 104.007 11.4559 103.965 11.4774C103.944 11.4774 103.923 11.4882 103.902 11.5098C103.797 11.5961 103.724 11.6933 103.682 11.8012C103.598 11.8012 103.535 11.8335 103.493 11.8983C103.472 11.9414 103.43 11.9738 103.367 11.9954C103.199 12.1249 103.104 12.2004 103.083 12.222C103.083 12.222 103.063 12.2436 103.021 12.2867C102.895 12.3947 102.8 12.481 102.737 12.5457C102.695 12.5889 102.653 12.632 102.611 12.6752C102.443 12.8694 102.349 12.9881 102.328 13.0313C102.307 13.0529 102.275 13.0853 102.233 13.1284C102.107 13.3226 102.034 13.4306 102.013 13.4521C101.992 13.4521 101.971 13.4737 101.95 13.5169C101.824 13.6895 101.729 13.8082 101.666 13.873C101.603 13.9377 101.551 14.0132 101.509 14.0996C101.404 14.2938 101.341 14.4125 101.32 14.4557C101.299 14.4772 101.299 14.5096 101.32 14.5528C101.257 14.7038 101.194 14.801 101.131 14.8441C101.089 14.8873 101.057 14.9412 101.036 15.006C101.057 15.1355 101.047 15.2542 101.005 15.3621C100.963 15.47 100.942 15.5779 100.942 15.6858C100.942 15.9232 100.963 16.0635 101.005 16.1066C101.047 16.3656 101.099 16.5598 101.162 16.6893C101.225 16.7972 101.278 16.9159 101.32 17.0454C101.362 17.1317 101.393 17.2289 101.414 17.3368C101.456 17.4231 101.498 17.5094 101.54 17.5957C101.624 17.8115 101.687 17.9518 101.729 18.0166C101.771 18.0597 101.813 18.1137 101.855 18.1784C102.002 18.3511 102.086 18.4482 102.107 18.4698C102.149 18.4698 102.181 18.4914 102.202 18.5345C102.244 18.664 102.275 18.7503 102.296 18.7935C102.338 18.8151 102.37 18.8474 102.391 18.8906C102.475 19.0201 102.538 19.1388 102.58 19.2467C102.643 19.333 102.706 19.4193 102.769 19.5057C102.853 19.6783 102.895 19.7862 102.895 19.8294C102.916 19.851 102.947 19.8833 102.989 19.9265C103.094 20.1207 103.157 20.2286 103.178 20.2502C103.325 20.4876 103.398 20.6063 103.398 20.6063C103.419 20.5847 103.43 20.5955 103.43 20.6387C103.493 20.8977 103.535 21.0919 103.556 21.2214C103.598 21.3509 103.64 21.4804 103.682 21.6098C103.724 21.7177 103.755 21.8041 103.776 21.8688C103.818 21.912 103.86 21.9551 103.902 21.9983L104.028 22.4191C104.133 22.635 104.196 22.7536 104.217 22.7752C104.238 22.7968 104.249 22.8184 104.249 22.84C104.291 23.0342 104.312 23.1745 104.312 23.2608C104.312 23.3471 104.333 23.4335 104.375 23.5198C104.396 23.6061 104.417 23.6924 104.438 23.7788C104.459 23.8435 104.469 23.9298 104.469 24.0377C104.469 24.232 104.48 24.3507 104.501 24.3938C104.522 24.437 104.532 24.4802 104.532 24.5233C104.532 24.5881 104.522 24.6852 104.501 24.8147C104.48 24.9226 104.469 25.0197 104.469 25.106C104.49 25.2355 104.49 25.3218 104.469 25.365C104.469 25.3866 104.469 25.4189 104.469 25.4621C104.427 25.7211 104.385 25.8829 104.343 25.9477C104.322 26.0124 104.312 26.0772 104.312 26.1419C104.186 26.4009 104.112 26.5627 104.091 26.6275C104.091 26.6706 104.07 26.7138 104.028 26.757C103.965 26.908 103.923 27.0052 103.902 27.0483C103.902 27.0915 103.881 27.1346 103.839 27.1778C103.797 27.2857 103.713 27.4044 103.587 27.5339C103.482 27.7497 103.377 27.8792 103.272 27.9224C103.272 28.0087 103.251 28.0842 103.209 28.149C103.167 28.1921 103.125 28.2461 103.083 28.3108C103 28.3971 102.958 28.4619 102.958 28.5051C102.958 28.5482 102.947 28.5914 102.926 28.6345C102.737 28.8288 102.622 28.9583 102.58 29.023C102.559 29.0662 102.506 29.1093 102.422 29.1525C102.317 29.2604 102.212 29.3899 102.107 29.541C102.002 29.6704 101.918 29.8215 101.855 29.9942C101.708 30.0805 101.614 30.1668 101.572 30.2531C101.467 30.4258 101.404 30.5229 101.383 30.5445C101.362 30.5445 101.341 30.5661 101.32 30.6092C101.257 30.7171 101.204 30.8035 101.162 30.8682C101.141 30.9114 101.12 30.9545 101.099 30.9977C100.89 31.1272 100.785 31.2027 100.785 31.2243C100.68 31.3322 100.606 31.3969 100.564 31.4185C100.543 31.4401 100.512 31.4617 100.47 31.4833C100.323 31.6127 100.249 31.6883 100.249 31.7099C100.249 31.7314 100.239 31.753 100.218 31.7746C100.092 31.9904 99.9972 32.1199 99.9342 32.1631C99.8922 32.2278 99.8398 32.2926 99.7768 32.3573C99.6508 32.422 99.5773 32.5192 99.5563 32.6486C99.3674 32.7997 99.2519 32.886 99.2099 32.9076C99.1889 32.9292 99.1259 32.9616 99.0209 33.0047C98.79 33.0479 98.6535 33.0479 98.6115 33.0047C98.5905 32.9616 98.5276 32.9508 98.4226 32.9724C98.2336 32.8213 98.1286 32.7458 98.1077 32.7458C98.1077 32.7673 98.0972 32.7673 98.0762 32.7458C98.0342 32.7026 97.9922 32.6486 97.9502 32.5839C97.9292 32.5192 97.8977 32.4652 97.8557 32.422C97.6668 32.2494 97.5618 32.1523 97.5408 32.1307C97.5408 32.1091 97.5198 32.1091 97.4778 32.1307C97.2468 31.9365 97.0684 31.753 96.9424 31.5804C96.7955 31.4725 96.701 31.4185 96.659 31.4185C96.617 31.3969 96.5645 31.3754 96.5015 31.3538C96.3755 31.0948 96.2916 30.9221 96.2496 30.8358C96.0396 30.6416 95.9242 30.5337 95.9032 30.5121C95.9032 30.4689 95.8822 30.4366 95.8402 30.415L95.3993 29.9618C95.2523 29.6812 95.1368 29.4978 95.0529 29.4115C95.0529 29.282 95.0214 29.1957 94.9584 29.1525C94.8954 29.0877 94.8534 29.0014 94.8324 28.8935C94.8324 28.8288 94.8429 28.764 94.8639 28.6993C94.9059 28.613 94.9479 28.5374 94.9899 28.4727C95.0739 28.2784 95.1473 28.149 95.2103 28.0842C95.2943 27.9979 95.3678 27.9331 95.4308 27.89C95.5777 27.7821 95.6827 27.6742 95.7457 27.5663C95.9976 27.2857 96.1656 27.1131 96.2496 27.0483C96.2916 26.9836 96.3231 26.9188 96.3441 26.8541C96.3861 26.7678 96.449 26.703 96.533 26.6599C96.722 26.444 96.8689 26.2822 96.9739 26.1743C97.0789 26.0664 97.1839 25.9585 97.2888 25.8506C97.3938 25.7211 97.4988 25.5808 97.6038 25.4297C97.7717 25.2139 97.8662 25.0952 97.8872 25.0736C97.9292 25.0305 97.9607 24.9873 97.9817 24.9441C98.1496 24.7068 98.2336 24.5665 98.2336 24.5233C98.2546 24.4586 98.2756 24.4046 98.2966 24.3615C98.4646 24.1025 98.5695 23.8975 98.6115 23.7464C98.6745 23.5953 98.6745 23.4227 98.6115 23.2284L98.58 22.8723C98.4751 22.6781 98.4121 22.5486 98.3911 22.4839C98.3701 22.3976 98.3386 22.322 98.2966 22.2573C98.1496 22.063 98.0447 21.9551 97.9817 21.9336C97.9607 21.8257 97.9187 21.7501 97.8557 21.707C97.7927 21.6422 97.7402 21.5559 97.6982 21.448C97.6353 21.3832 97.5933 21.3185 97.5723 21.2538C97.5723 21.189 97.5513 21.1351 97.5093 21.0919C97.3833 20.9192 97.2993 20.7898 97.2573 20.7034C97.2154 20.6171 97.1734 20.5308 97.1314 20.4445C97.0474 20.2934 96.9949 20.2179 96.9739 20.2179C96.9529 20.1963 96.9319 20.1639 96.9109 20.1207L96.6275 19.797C96.5855 19.6891 96.533 19.592 96.47 19.5057C96.428 19.3978 96.3756 19.2899 96.3126 19.182C96.2706 19.0956 96.2181 19.0093 96.1551 18.923C96.1131 18.8367 96.0711 18.7395 96.0291 18.6316C95.9452 18.4806 95.9032 18.3942 95.9032 18.3727C95.9032 18.3511 95.8927 18.3295 95.8717 18.3079C95.7247 18.0921 95.6512 17.9734 95.6512 17.9518L95.4308 17.5634C95.3468 17.3691 95.2943 17.272 95.2733 17.272C95.2733 17.2504 95.2733 17.2289 95.2733 17.2073C95.1893 17.0994 95.1368 17.0346 95.1158 17.013C95.0948 16.9699 95.0739 16.9267 95.0529 16.8836C94.9899 16.6677 94.9584 16.5383 94.9584 16.4951C94.8954 16.2361 94.8429 16.0743 94.8009 16.0095C94.7799 15.9448 94.7694 15.8692 94.7694 15.7829C94.8114 15.5671 94.8534 15.3729 94.8954 15.2002C94.9374 15.006 94.9689 14.8981 94.9899 14.8765C95.0109 14.8333 95.0319 14.7902 95.0529 14.747C95.0948 14.5096 95.1053 14.3154 95.0844 14.1643C95.0844 13.9917 95.1053 13.8514 95.1473 13.7435C95.2523 13.5492 95.3363 13.3658 95.3993 13.1932C95.5043 12.9558 95.5672 12.8047 95.5882 12.74C95.6092 12.6536 95.6302 12.5889 95.6512 12.5457C95.6932 12.3947 95.7667 12.2544 95.8717 12.1249C95.9976 11.9522 96.0711 11.8551 96.0921 11.8335C96.1131 11.7904 96.1341 11.7472 96.1551 11.7041C96.3651 11.5098 96.5015 11.3588 96.5645 11.2508C96.6695 11.0998 96.7535 10.9919 96.8165 10.9271C96.9004 10.8624 96.9739 10.7761 97.0369 10.6682C97.0789 10.5818 97.1104 10.5171 97.1314 10.4739C97.1734 10.4308 97.2154 10.3876 97.2573 10.3444C97.4043 10.2365 97.4883 10.161 97.5093 10.1178C97.5303 10.0531 97.5618 9.99914 97.6038 9.95597C97.6668 9.89123 97.7297 9.83728 97.7927 9.79411C97.8767 9.72937 97.9397 9.66463 97.9817 9.59988C98.0237 9.55672 98.0552 9.51356 98.0762 9.47039C98.1181 9.42723 98.1601 9.37328 98.2021 9.30854C98.4751 9.15747 98.643 9.04956 98.706 8.98482C98.769 8.92007 98.8425 8.86612 98.9265 8.82296C99.1364 8.67189 99.3044 8.53161 99.4303 8.40212C99.5773 8.27264 99.6508 8.20789 99.6508 8.20789C99.6718 8.20789 99.6928 8.18631 99.7138 8.14315C99.7978 8.0784 99.8817 8.01366 99.9657 7.94892C100.05 7.86259 100.144 7.77627 100.249 7.68994C100.375 7.49571 100.449 7.3986 100.47 7.3986C100.491 7.3986 100.501 7.3878 100.501 7.36622C100.732 7.17199 100.921 7.06409 101.068 7.0425C101.236 7.02092 101.341 7.06409 101.383 7.17199Z" fill="#1B1F2E"/>
<path d="M107.713 7.88417C107.965 7.84101 108.185 7.79785 108.374 7.75469C108.542 7.68994 108.637 7.66836 108.658 7.68994C108.679 7.68994 108.7 7.68994 108.721 7.68994C108.973 7.64678 109.13 7.63599 109.193 7.65757C109.277 7.67915 109.351 7.68994 109.414 7.68994C109.477 7.7331 109.54 7.7439 109.602 7.72231C109.686 7.70073 109.76 7.67915 109.823 7.65757C109.907 7.67915 110.022 7.68994 110.169 7.68994C110.316 7.66836 110.421 7.65757 110.484 7.65757C110.778 7.65757 110.999 7.64678 111.146 7.6252C111.293 7.58204 111.44 7.58204 111.587 7.6252C111.88 7.58204 112.048 7.57125 112.09 7.59283C112.153 7.61441 112.206 7.63599 112.248 7.65757C112.458 7.65757 112.594 7.68994 112.657 7.75469C112.804 7.71152 112.909 7.68994 112.972 7.68994C113.035 7.68994 113.098 7.71152 113.161 7.75469C113.455 7.79785 113.676 7.84101 113.823 7.88417C114.011 8.0784 114.116 8.25105 114.137 8.40212C114.158 8.55319 114.169 8.71505 114.169 8.8877C114.169 9.14668 114.148 9.29774 114.106 9.34091V9.82648C114.085 9.91281 114.064 9.99913 114.043 10.0855C114.022 10.1502 114.001 10.2257 113.98 10.3121C113.98 10.3768 113.99 10.4416 114.011 10.5063C114.032 10.5495 114.032 10.6034 114.011 10.6682C114.011 10.8408 113.99 10.9919 113.948 11.1214C113.927 11.2293 113.917 11.3372 113.917 11.4451C113.917 11.5314 113.917 11.6069 113.917 11.6717C113.938 11.7148 113.917 11.7904 113.854 11.8983C113.854 12.0709 113.844 12.2112 113.823 12.3191C113.802 12.4054 113.77 12.5241 113.728 12.6752C113.686 12.8479 113.665 12.9881 113.665 13.096C113.686 13.2039 113.686 13.3119 113.665 13.4198C113.602 13.5924 113.571 13.7435 113.571 13.873C113.592 13.9809 113.592 14.0888 113.571 14.1967C113.571 14.283 113.56 14.3693 113.539 14.4557C113.539 14.542 113.529 14.6391 113.508 14.747C113.487 14.9628 113.466 15.0815 113.445 15.1031C113.445 15.1031 113.445 15.1139 113.445 15.1355C113.445 15.3297 113.455 15.4808 113.476 15.5887C113.497 15.675 113.487 15.7721 113.445 15.88C113.487 16.0958 113.487 16.2685 113.445 16.398C113.445 16.549 113.434 16.6893 113.413 16.8188C113.413 16.9267 113.413 17.0346 113.413 17.1425C113.392 17.5742 113.371 17.9302 113.35 18.2108C113.371 18.3619 113.371 18.4806 113.35 18.5669C113.35 18.6316 113.371 18.6856 113.413 18.7287C113.329 18.9661 113.298 19.1064 113.319 19.1496C113.34 19.1927 113.34 19.2359 113.319 19.2791C113.298 19.5165 113.287 19.7107 113.287 19.8618C113.287 19.9265 113.277 19.9913 113.256 20.056C113.235 20.1207 113.224 20.1855 113.224 20.2502C113.308 20.7682 113.34 21.1782 113.319 21.4804C113.319 21.7609 113.319 22.0523 113.319 22.3544C113.34 22.4191 113.34 22.4947 113.319 22.581C113.319 22.6673 113.319 22.7429 113.319 22.8076C113.34 22.9371 113.35 23.0666 113.35 23.1961C113.371 23.304 113.382 23.4335 113.382 23.5845C113.361 23.6709 113.361 23.7464 113.382 23.8111C113.403 23.8759 113.413 23.9298 113.413 23.973C113.392 24.2104 113.382 24.3615 113.382 24.4262C113.403 24.4909 113.424 24.5665 113.445 24.6528C113.445 24.8902 113.455 25.0089 113.476 25.0089C113.455 25.2463 113.445 25.3974 113.445 25.4621C113.466 25.5268 113.476 25.5808 113.476 25.624C113.497 25.8613 113.497 25.98 113.476 25.98C113.476 25.98 113.476 25.9908 113.476 26.0124C113.476 26.1851 113.487 26.3577 113.508 26.5304C113.529 26.6814 113.55 26.8325 113.571 26.9836C113.592 27.2641 113.602 27.4799 113.602 27.631C113.623 27.6958 113.644 27.7713 113.665 27.8576C113.686 27.9224 113.707 27.9871 113.728 28.0518C113.728 28.1382 113.739 28.2137 113.76 28.2784C113.781 28.3432 113.791 28.4079 113.791 28.4727V28.8935C113.791 29.0014 113.802 29.1093 113.823 29.2172C113.844 29.3036 113.865 29.4007 113.886 29.5086C113.907 29.6165 113.917 29.7136 113.917 29.7999C113.917 29.8862 113.938 29.9726 113.98 30.0589C113.98 30.4042 114.022 30.6632 114.106 30.8358C114.085 31.1164 114.085 31.3106 114.106 31.4185C114.148 31.5048 114.148 31.5912 114.106 31.6775C114.022 31.807 113.959 31.8933 113.917 31.9365C113.875 32.0012 113.833 32.066 113.791 32.1307C113.644 32.1523 113.56 32.1739 113.539 32.1954C113.518 32.2386 113.487 32.2602 113.445 32.2602C113.319 32.2602 113.172 32.3034 113.004 32.3897C112.815 32.3681 112.699 32.3573 112.657 32.3573C112.636 32.3789 112.615 32.3681 112.594 32.3249C112.447 32.3897 112.321 32.3897 112.216 32.3249C112.111 32.3897 111.996 32.4005 111.87 32.3573C111.765 32.3357 111.66 32.3249 111.555 32.3249C111.492 32.3249 111.429 32.3357 111.366 32.3573C111.324 32.3789 111.272 32.4005 111.209 32.422C111.041 32.4005 110.946 32.3897 110.925 32.3897C110.904 32.4113 110.873 32.422 110.831 32.422C110.558 32.3789 110.39 32.3465 110.327 32.3249C110.264 32.3034 110.201 32.2818 110.138 32.2602C110.096 32.2386 110.033 32.2386 109.949 32.2602C109.844 32.2818 109.718 32.2818 109.571 32.2602C109.424 32.2386 109.277 32.2386 109.13 32.2602C108.962 32.1954 108.857 32.1523 108.815 32.1307C108.794 32.1307 108.763 32.1415 108.721 32.1631C108.574 32.1415 108.469 32.1415 108.406 32.1631C108.343 32.1847 108.29 32.1847 108.248 32.1631C108.08 32.0552 107.975 31.9904 107.933 31.9688C107.912 31.9688 107.87 31.9473 107.807 31.9041C107.702 31.6451 107.65 31.4725 107.65 31.3861C107.671 31.2782 107.66 31.1703 107.618 31.0624C107.66 30.9977 107.66 30.9329 107.618 30.8682C107.597 30.7819 107.597 30.7063 107.618 30.6416C107.681 30.4042 107.702 30.2747 107.681 30.2531C107.681 30.2316 107.692 30.1992 107.713 30.156C107.755 29.9834 107.765 29.8539 107.744 29.7676C107.744 29.6596 107.765 29.5625 107.807 29.4762C107.828 29.2388 107.849 29.0877 107.87 29.023C107.891 28.9583 107.912 28.9043 107.933 28.8611V28.2137C107.954 27.9763 107.975 27.836 107.996 27.7929C108.017 27.7281 108.028 27.6634 108.028 27.5986C108.028 27.3397 108.017 27.1778 107.996 27.1131C107.975 27.0267 107.975 26.962 107.996 26.9188C108.017 26.8109 108.017 26.703 107.996 26.5951C107.996 26.4656 107.996 26.3469 107.996 26.239C107.996 26.1311 108.007 26.034 108.028 25.9477C108.049 25.8398 108.038 25.7319 107.996 25.624C108.038 25.365 108.059 25.0736 108.059 24.7499C108.08 24.4046 108.08 24.0701 108.059 23.7464C108.059 23.6816 108.049 23.6169 108.028 23.5522C108.028 23.4874 108.028 23.4119 108.028 23.3256C108.028 23.045 108.017 22.8723 107.996 22.8076C107.996 22.7213 108.017 22.6457 108.059 22.581C108.017 22.5378 108.007 22.4839 108.028 22.4191C108.07 22.3328 108.07 22.2681 108.028 22.2249C108.07 22.1817 108.08 22.1278 108.059 22.063C108.059 21.9983 108.059 21.9336 108.059 21.8688C108.059 21.8257 108.059 21.7717 108.059 21.707C108.08 21.6422 108.08 21.5667 108.059 21.4804C108.017 21.2214 107.996 21.0595 107.996 20.9948C108.017 20.93 108.038 20.8653 108.059 20.8005C108.059 20.6711 108.049 20.5847 108.028 20.5416C108.028 20.4984 108.028 20.4552 108.028 20.4121V19.797C108.007 19.5812 107.986 19.4733 107.965 19.4733C107.965 19.4517 107.965 19.4193 107.965 19.3762C107.986 19.2251 107.986 19.1172 107.965 19.0525C107.944 18.9661 107.933 18.8906 107.933 18.8259C107.933 18.7395 107.944 18.664 107.965 18.5993C107.986 18.5345 107.996 18.4698 107.996 18.405C107.996 18.2971 107.986 18.1892 107.965 18.0813C107.965 17.9518 107.954 17.8331 107.933 17.7252C107.912 17.531 107.902 17.4339 107.902 17.4339C107.923 17.4339 107.933 17.4123 107.933 17.3691C107.912 17.1317 107.902 16.9807 107.902 16.9159C107.923 16.8512 107.933 16.7756 107.933 16.6893C107.912 16.5383 107.891 16.4519 107.87 16.4303C107.849 16.3872 107.839 16.344 107.839 16.3009C107.839 16.2361 107.849 16.1606 107.87 16.0743C107.891 15.9879 107.902 15.8908 107.902 15.7829C107.86 15.5887 107.839 15.4592 107.839 15.3944C107.839 15.3297 107.828 15.265 107.807 15.2002C107.807 15.0276 107.797 14.9197 107.776 14.8765C107.776 14.8118 107.776 14.7578 107.776 14.7146C107.776 14.542 107.776 14.3154 107.776 14.0348C107.755 13.8838 107.744 13.7759 107.744 13.7111C107.765 13.6464 107.776 13.5816 107.776 13.5169C107.734 13.2579 107.734 13.0637 107.776 12.9342C107.776 12.74 107.755 12.5673 107.713 12.4162C107.692 12.2652 107.681 12.1141 107.681 11.963C107.681 11.8767 107.681 11.8012 107.681 11.7364C107.702 11.6501 107.713 11.5854 107.713 11.5422C107.755 11.2832 107.755 11.0566 107.713 10.8624C107.671 10.6682 107.639 10.4308 107.618 10.1502C107.471 9.56751 107.429 9.12509 107.492 8.82296C107.534 8.60714 107.555 8.51003 107.555 8.53161C107.576 8.53161 107.576 8.51003 107.555 8.46687C107.597 8.20789 107.629 8.05682 107.65 8.01366L107.713 7.88417Z" fill="#1B1F2E"/>
<path d="M123.711 7.94892C123.858 8.46687 123.879 9.0064 123.774 9.56751C123.774 9.74016 123.753 9.85886 123.711 9.9236C123.711 9.98834 123.722 10.0531 123.743 10.1178C123.764 10.1826 123.774 10.2365 123.774 10.2797C123.732 10.4523 123.711 10.5495 123.711 10.571C123.732 10.5926 123.743 10.625 123.743 10.6682C123.701 10.7761 123.68 10.8732 123.68 10.9595C123.701 11.0242 123.711 11.1106 123.711 11.2185C123.711 11.3264 123.701 11.4235 123.68 11.5098C123.659 11.5961 123.638 11.6933 123.617 11.8012C123.596 11.9522 123.585 12.1033 123.585 12.2544C123.606 12.3839 123.585 12.5133 123.522 12.6428C123.543 12.8586 123.554 13.0421 123.554 13.1932C123.575 13.3226 123.575 13.4521 123.554 13.5816C123.533 13.7327 123.522 13.8514 123.522 13.9377C123.522 13.9809 123.512 14.0348 123.491 14.0996C123.47 14.1643 123.48 14.2291 123.522 14.2938C123.459 14.5312 123.428 14.6931 123.428 14.7794C123.428 14.8441 123.417 14.9412 123.396 15.0707C123.417 15.1786 123.428 15.3297 123.428 15.5239C123.428 15.7182 123.417 15.8692 123.396 15.9771C123.375 16.0635 123.365 16.1498 123.365 16.2361C123.365 16.3224 123.365 16.4088 123.365 16.4951C123.323 16.7756 123.312 16.9591 123.333 17.0454C123.354 17.1317 123.365 17.2181 123.365 17.3044C123.365 17.4986 123.354 17.6065 123.333 17.6281C123.333 17.6281 123.333 17.6497 123.333 17.6928C123.333 17.9087 123.323 18.0489 123.302 18.1137C123.302 18.1568 123.302 18.2108 123.302 18.2755C123.302 18.3403 123.312 18.4158 123.333 18.5021C123.354 18.5669 123.365 18.6424 123.365 18.7287C123.302 19.182 123.302 19.538 123.365 19.797C123.323 20.056 123.312 20.2502 123.333 20.3797C123.375 20.4876 123.396 20.5739 123.396 20.6387C123.396 20.7466 123.386 20.8329 123.365 20.8977C123.365 20.9624 123.375 21.0487 123.396 21.1566C123.396 21.394 123.407 21.5667 123.428 21.6746C123.449 21.7825 123.459 21.8688 123.459 21.9336C123.459 22.0199 123.449 22.1062 123.428 22.1925C123.428 22.2573 123.449 22.3328 123.491 22.4191C123.428 22.527 123.417 22.6889 123.459 22.9047C123.459 22.9479 123.459 23.0126 123.459 23.0989C123.48 23.1637 123.501 23.2176 123.522 23.2608C123.522 23.5198 123.522 23.6493 123.522 23.6493C123.522 23.8219 123.512 23.919 123.491 23.9406C123.491 23.9406 123.491 23.9622 123.491 24.0054C123.47 24.178 123.459 24.2751 123.459 24.2967C123.48 24.3183 123.491 24.3399 123.491 24.3615C123.449 24.5988 123.438 24.7283 123.459 24.7499C123.48 24.7499 123.491 24.7607 123.491 24.7823C123.47 25.0844 123.47 25.2679 123.491 25.3326C123.554 25.6347 123.585 25.7858 123.585 25.7858C123.606 25.8721 123.606 25.9585 123.585 26.0448C123.585 26.1311 123.606 26.2174 123.648 26.3038C123.732 26.498 123.911 26.6275 124.184 26.6922C124.373 26.7354 124.541 26.757 124.688 26.757C124.834 26.7354 124.981 26.7462 125.128 26.7893L125.601 26.8865C125.79 26.9296 125.905 26.962 125.947 26.9836C125.989 26.9836 126.031 26.9836 126.073 26.9836C126.199 26.9836 126.283 26.9836 126.325 26.9836C126.388 26.962 126.441 26.962 126.483 26.9836C126.651 26.9836 126.808 27.0052 126.955 27.0483C127.102 27.0699 127.259 27.0375 127.427 26.9512C127.511 26.9944 127.585 26.9944 127.648 26.9512C127.732 26.908 127.816 26.8865 127.9 26.8865C128.026 26.8865 128.12 26.8865 128.183 26.8865C128.267 26.8649 128.362 26.8433 128.467 26.8217C128.719 26.7786 128.845 26.757 128.845 26.757C129.013 26.6922 129.138 26.6706 129.222 26.6922C129.306 26.6922 129.38 26.6599 129.443 26.5951C129.464 26.3577 129.474 26.0879 129.474 25.7858C129.495 25.4837 129.485 25.1923 129.443 24.9118C129.401 24.6528 129.38 24.4154 129.38 24.1996C129.359 24.0054 129.348 23.8219 129.348 23.6493C129.369 23.4766 129.369 23.2932 129.348 23.0989C129.348 22.9263 129.338 22.8076 129.317 22.7429C129.317 22.6565 129.317 22.5702 129.317 22.4839C129.317 22.4191 129.306 22.3544 129.285 22.2897C129.285 22.2249 129.296 22.171 129.317 22.1278C129.317 21.8904 129.306 21.6962 129.285 21.5451C129.264 21.394 129.254 21.2538 129.254 21.1243C129.254 20.93 129.243 20.7466 129.222 20.5739C129.222 20.3797 129.212 20.1963 129.191 20.0236C129.191 19.7862 129.18 19.5812 129.159 19.4086C129.117 19.3438 129.107 19.2575 129.128 19.1496C129.149 19.0417 129.159 18.9338 129.159 18.8259C129.117 18.5453 129.086 18.3295 129.065 18.1784C129.044 18.0705 129.023 17.9302 129.002 17.7576C129.002 17.5634 129.013 17.3799 129.034 17.2073C128.971 17.0994 128.939 16.9807 128.939 16.8512C128.939 16.7001 128.929 16.5383 128.908 16.3656C128.887 16.0635 128.866 15.8477 128.845 15.7182C128.824 15.5887 128.813 15.47 128.813 15.3621C128.834 15.2326 128.824 15.1355 128.782 15.0707C128.761 14.9844 128.75 14.9197 128.75 14.8765C128.729 14.7038 128.729 14.5959 128.75 14.5528C128.771 14.488 128.771 14.4341 128.75 14.3909L128.624 13.7435C128.645 13.4198 128.645 13.2255 128.624 13.1608C128.624 13.0745 128.624 12.9773 128.624 12.8694C128.603 12.6752 128.603 12.5349 128.624 12.4486C128.666 12.3407 128.677 12.2328 128.656 12.1249C128.656 12.0601 128.645 12.0062 128.624 11.963C128.603 11.8983 128.582 11.8228 128.561 11.7364C128.624 11.6285 128.635 11.5206 128.593 11.4127C128.572 11.3048 128.561 11.1753 128.561 11.0242C128.582 10.8948 128.572 10.8084 128.53 10.7653C128.509 10.7221 128.498 10.6789 128.498 10.6358C128.498 10.5063 128.509 10.3984 128.53 10.3121C128.551 10.2257 128.54 10.1286 128.498 10.0207L128.467 9.56751C128.488 9.50277 128.509 9.44881 128.53 9.40565C128.572 9.34091 128.593 9.27616 128.593 9.21142C128.593 9.12509 128.582 9.04956 128.561 8.98482C128.561 8.89849 128.572 8.81217 128.593 8.72584L128.782 8.30501C128.908 8.13236 129.002 8.04603 129.065 8.04603C129.128 8.02445 129.18 7.99208 129.222 7.94892C129.264 7.99208 129.317 8.00287 129.38 7.98129C129.443 7.93813 129.506 7.90575 129.569 7.88417C129.611 7.88417 129.663 7.89496 129.726 7.91655C129.789 7.91655 129.852 7.91655 129.915 7.91655C130.125 7.93813 130.241 7.94892 130.262 7.94892C130.304 7.94892 130.346 7.93813 130.388 7.91655C130.472 7.91655 130.545 7.92734 130.608 7.94892C130.692 7.94892 130.787 7.94892 130.892 7.94892C130.976 7.94892 131.06 7.94892 131.144 7.94892C131.248 7.92734 131.332 7.92734 131.395 7.94892C131.731 8.01366 131.994 8.04603 132.183 8.04603C132.393 8.04603 132.561 8.08919 132.687 8.17552C132.771 8.15394 132.834 8.13236 132.876 8.11078C132.939 8.0892 133.002 8.06761 133.065 8.04603C133.191 8.04603 133.275 8.05682 133.317 8.0784C133.38 8.09999 133.432 8.11078 133.474 8.11078C133.81 8.04603 134.03 8.01366 134.135 8.01366C134.261 7.99208 134.387 8.00287 134.513 8.04603C134.492 8.28343 134.482 8.49924 134.482 8.69347C134.503 8.86612 134.503 9.07114 134.482 9.30854C134.461 9.56751 134.45 9.70779 134.45 9.72937C134.471 9.72937 134.471 9.76174 134.45 9.82648C134.429 9.89123 134.419 9.97755 134.419 10.0855C134.419 10.1718 134.408 10.2473 134.387 10.3121C134.324 10.571 134.293 10.7545 134.293 10.8624C134.293 10.9703 134.293 11.089 134.293 11.2185C134.251 11.4343 134.23 11.5961 134.23 11.7041C134.23 11.812 134.23 11.8983 134.23 11.963C134.251 12.0278 134.261 12.1033 134.261 12.1896C134.219 12.3839 134.198 12.4918 134.198 12.5133C134.219 12.5349 134.219 12.5781 134.198 12.6428C134.198 12.7292 134.188 12.8047 134.167 12.8694C134.146 12.9342 134.135 12.9989 134.135 13.0637C134.135 13.1068 134.135 13.1608 134.135 13.2255C134.156 13.2903 134.167 13.355 134.167 13.4198C134.125 13.5924 134.104 13.7327 134.104 13.8406C134.104 13.9485 134.093 14.0456 134.072 14.1319C134.072 14.1967 134.072 14.2722 134.072 14.3585C134.072 14.5744 134.072 14.7794 134.072 14.9736C134.093 15.1678 134.093 15.3513 134.072 15.5239C134.072 15.6318 134.041 15.7505 133.978 15.88C133.999 15.9663 133.999 16.0527 133.978 16.139C133.978 16.2037 133.988 16.2685 134.009 16.3332C134.051 16.7433 134.051 17.0562 134.009 17.272C133.988 17.4878 133.999 17.6928 134.041 17.8871C134.041 18.1892 134.051 18.3727 134.072 18.4374C134.093 18.5021 134.104 18.5777 134.104 18.664C134.104 18.8798 134.104 19.0093 134.104 19.0525C134.125 19.074 134.146 19.1064 134.167 19.1496C134.146 19.3006 134.135 19.4193 134.135 19.5057C134.156 19.5704 134.167 19.6244 134.167 19.6675C134.188 19.797 134.188 19.9265 134.167 20.056C134.167 20.2502 134.188 20.4337 134.23 20.6063C134.272 20.8653 134.293 21.1674 134.293 21.5127C134.293 21.8364 134.282 22.1386 134.261 22.4191C134.24 22.527 134.251 22.6889 134.293 22.9047V23.3903C134.335 23.6709 134.356 23.8543 134.356 23.9406C134.356 24.0485 134.345 24.1672 134.324 24.2967C134.303 24.4046 134.293 24.5017 134.293 24.5881C134.335 24.8254 134.345 25.0089 134.324 25.1384C134.324 25.2463 134.324 25.3758 134.324 25.5268C134.324 25.6779 134.335 25.8182 134.356 25.9477C134.377 26.0556 134.387 26.1635 134.387 26.2714C134.366 26.4009 134.377 26.5412 134.419 26.6922V27.1778C134.44 27.2857 134.45 27.4044 134.45 27.5339C134.45 27.6418 134.461 27.7713 134.482 27.9224C134.482 28.2677 134.513 28.5158 134.576 28.6669C134.639 28.818 134.671 28.9906 134.671 29.1849C134.65 29.3143 134.629 29.487 134.608 29.7028C134.608 29.897 134.629 30.0805 134.671 30.2531C134.713 30.5121 134.734 30.7063 134.734 30.8358C134.734 30.9437 134.734 31.0516 134.734 31.1595C134.755 31.2243 134.776 31.289 134.797 31.3538C134.818 31.4185 134.828 31.4833 134.828 31.548C134.681 31.6775 134.587 31.753 134.545 31.7746C134.503 31.7746 134.461 31.7962 134.419 31.8394C134.209 31.9041 134.072 31.9473 134.009 31.9688C133.946 32.012 133.873 32.0444 133.789 32.066C133.621 32.1091 133.526 32.1307 133.505 32.1307C133.484 32.1523 133.453 32.1739 133.411 32.1954C133.18 32.2386 133.033 32.2494 132.97 32.2278C132.907 32.2278 132.844 32.2386 132.781 32.2602C132.634 32.3033 132.498 32.3357 132.372 32.3573C132.246 32.4005 132.12 32.4436 131.994 32.4868C131.889 32.5084 131.784 32.5192 131.679 32.5192C131.595 32.5192 131.5 32.53 131.395 32.5515C131.123 32.6379 130.923 32.681 130.797 32.681C130.566 32.6379 130.44 32.6163 130.419 32.6163C130.419 32.6379 130.409 32.6486 130.388 32.6486C130.262 32.6055 130.188 32.5515 130.167 32.4868C130.167 32.4436 130.157 32.4005 130.136 32.3573C130.031 32.1415 129.968 32.0228 129.947 32.0012C129.947 32.0012 129.947 31.9904 129.947 31.9688C129.863 31.9257 129.821 31.8717 129.821 31.807C129.842 31.7422 129.831 31.6883 129.789 31.6451C129.684 31.4077 129.632 31.2782 129.632 31.2567C129.59 31.1056 129.569 30.9653 129.569 30.8358C129.569 30.7063 129.558 30.5768 129.537 30.4474C129.285 30.5121 129.159 30.5661 129.159 30.6092C129.159 30.6308 129.138 30.6416 129.096 30.6416C128.929 30.7495 128.824 30.825 128.782 30.8682C128.761 30.8898 128.729 30.9221 128.687 30.9653C128.624 31.0085 128.509 31.0732 128.341 31.1595C128.173 31.289 128.078 31.3538 128.057 31.3538C128.036 31.3322 128.005 31.3214 127.963 31.3214C127.795 31.4293 127.7 31.4833 127.679 31.4833C127.658 31.4833 127.637 31.4941 127.616 31.5156C127.448 31.602 127.322 31.6559 127.238 31.6775C127.154 31.6775 127.081 31.6883 127.018 31.7099C126.871 31.8178 126.787 31.8717 126.766 31.8717C126.745 31.8717 126.724 31.8825 126.703 31.9041C126.556 31.9688 126.441 32.0012 126.357 32.0012C126.273 32.0012 126.21 32.0336 126.168 32.0983C125.916 32.1199 125.748 32.1307 125.664 32.1307C125.58 32.1523 125.517 32.1847 125.475 32.2278C125.433 32.2062 125.37 32.2062 125.286 32.2278C125.223 32.2494 125.149 32.2494 125.065 32.2278C124.876 32.2278 124.709 32.1954 124.562 32.1307C124.31 32.066 124.163 32.0228 124.121 32.0012C124.079 32.0012 124.037 31.9904 123.995 31.9688C123.89 31.9041 123.795 31.8825 123.711 31.9041C123.648 31.9041 123.585 31.8933 123.522 31.8717C123.417 31.8501 123.312 31.8178 123.207 31.7746C123.123 31.7099 123.039 31.6991 122.955 31.7422C122.724 31.6343 122.577 31.5804 122.515 31.5804C122.452 31.5804 122.389 31.5696 122.326 31.548C122.011 31.4185 121.79 31.3538 121.664 31.3538C121.559 31.3538 121.433 31.3322 121.286 31.289C121.055 31.2027 120.929 31.1595 120.908 31.1595C120.908 31.138 120.898 31.1272 120.877 31.1272C120.751 31.0408 120.635 30.9869 120.53 30.9653C120.446 30.9437 120.363 30.9221 120.279 30.9006C120.048 30.8358 119.922 30.7927 119.901 30.7711C119.901 30.7495 119.88 30.7279 119.838 30.7063C119.67 30.62 119.565 30.5661 119.523 30.5445C119.271 30.3934 119.113 30.3071 119.05 30.2855C119.008 30.2423 118.966 30.1992 118.924 30.156C118.777 30.0913 118.662 30.0373 118.578 29.9942C118.368 29.7568 118.221 29.5949 118.137 29.5086C118.053 29.4007 117.99 29.2928 117.948 29.1849C117.948 29.0122 117.948 28.9043 117.948 28.8611C117.969 28.7964 117.969 28.7317 117.948 28.6669C117.948 28.3864 117.927 28.1813 117.885 28.0518L117.917 27.5339C117.896 27.1454 117.906 26.757 117.948 26.3685C117.948 26.3038 117.948 26.239 117.948 26.1743C117.948 26.1095 117.948 26.0556 117.948 26.0124C117.948 25.7966 117.959 25.6563 117.98 25.5916C118.001 25.5053 118.011 25.4081 118.011 25.3002C118.011 25.0413 118.032 24.8254 118.074 24.6528C118.095 24.5881 118.095 24.4801 118.074 24.3291C118.074 24.1564 118.085 24.0269 118.106 23.9406C118.127 23.6601 118.148 23.4874 118.169 23.4227C118.19 23.3579 118.2 23.2932 118.2 23.2284C118.2 22.991 118.19 22.8508 118.169 22.8076C118.169 22.7429 118.19 22.6889 118.232 22.6457C118.19 22.6026 118.169 22.527 118.169 22.4191C118.19 22.2897 118.179 22.1817 118.137 22.0954C118.179 21.858 118.19 21.6962 118.169 21.6098C118.169 21.5019 118.158 21.4264 118.137 21.3832C118.116 21.2322 118.106 21.1351 118.106 21.0919C118.127 21.0271 118.137 20.9624 118.137 20.8977L118.106 20.1855C118.043 19.8402 118.011 19.6028 118.011 19.4733C118.032 19.3222 118.032 19.1712 118.011 19.0201C118.011 18.9122 118.001 18.8151 117.98 18.7287C117.98 18.6208 117.98 18.5129 117.98 18.405V17.9842C117.959 17.8979 117.948 17.8223 117.948 17.7576C117.948 17.6928 117.927 17.6281 117.885 17.5634L117.917 16.9159C117.938 16.7649 117.948 16.6354 117.948 16.5275C117.969 16.4196 117.98 16.3116 117.98 16.2037C117.98 16.139 117.959 16.0635 117.917 15.9771C117.896 15.8692 117.885 15.7721 117.885 15.6858C117.885 15.621 117.885 15.5239 117.885 15.3944C117.906 15.2434 117.906 15.1139 117.885 15.006C117.885 14.9197 117.875 14.8441 117.854 14.7794C117.833 14.7146 117.822 14.6283 117.822 14.5204C117.78 14.4125 117.77 14.2938 117.791 14.1643C117.833 14.0348 117.854 13.9053 117.854 13.7759C117.791 13.6032 117.77 13.5061 117.791 13.4845C117.812 13.4629 117.822 13.4413 117.822 13.4198C117.822 13.1608 117.812 12.9666 117.791 12.8371C117.791 12.686 117.759 12.5565 117.696 12.4486C117.696 12.2112 117.686 12.0925 117.665 12.0925C117.665 12.0925 117.665 12.0817 117.665 12.0601C117.665 11.8012 117.654 11.6393 117.633 11.5746C117.633 11.4882 117.623 11.4127 117.602 11.348C117.581 11.2185 117.57 11.0998 117.57 10.9919C117.57 10.8624 117.57 10.7437 117.57 10.6358L117.539 10.1826C117.518 10.0747 117.507 9.98834 117.507 9.9236C117.507 9.83728 117.486 9.76174 117.444 9.697C117.402 9.43802 117.402 9.18984 117.444 8.95244C117.486 8.71505 117.465 8.51003 117.381 8.33738C117.444 8.16473 117.486 8.05682 117.507 8.01366C117.549 7.9705 117.591 7.92734 117.633 7.88417C117.759 7.75469 117.843 7.65757 117.885 7.59283C118.053 7.59283 118.19 7.58204 118.294 7.56045C118.399 7.51729 118.504 7.53887 118.609 7.6252C118.861 7.6252 118.998 7.6252 119.019 7.6252C119.04 7.60362 119.061 7.59283 119.082 7.59283C119.313 7.61441 119.449 7.6252 119.491 7.6252C119.533 7.6252 119.575 7.64678 119.617 7.68994C119.743 7.66836 119.848 7.67915 119.932 7.72231C120.037 7.7439 120.163 7.75469 120.31 7.75469C120.562 7.7331 120.761 7.7331 120.908 7.75469C121.076 7.77627 121.223 7.77627 121.349 7.75469C121.643 7.79785 121.832 7.81943 121.916 7.81943C122 7.79785 122.084 7.77627 122.168 7.75469C122.231 7.75469 122.294 7.76548 122.357 7.78706C122.441 7.80864 122.515 7.79785 122.577 7.75469C122.85 7.77627 123.039 7.79785 123.144 7.81943C123.27 7.84101 123.386 7.84101 123.491 7.81943L123.711 7.94892Z" fill="#1B1F2E"/>
<path d="M144.213 7.17199C144.255 7.10725 144.307 7.09646 144.37 7.13962C144.454 7.18278 144.517 7.18278 144.559 7.13962C144.706 7.24753 144.832 7.31227 144.937 7.33385C145 7.42018 145.105 7.48492 145.252 7.52808C145.42 7.67915 145.515 7.76548 145.536 7.78706C145.746 8.02445 145.903 8.17552 146.008 8.24026C146.134 8.30501 146.25 8.36975 146.355 8.43449C146.585 8.52082 146.711 8.58556 146.732 8.62873C146.753 8.67189 146.795 8.71505 146.858 8.75821L147.173 9.04956C147.299 9.13589 147.394 9.21142 147.457 9.27616C147.541 9.29774 147.625 9.33012 147.709 9.37328C147.814 9.39486 147.887 9.42723 147.929 9.47039C147.992 9.70779 148.013 9.85886 147.992 9.9236C147.992 9.98834 147.992 10.0531 147.992 10.1178C147.929 10.2042 147.887 10.2797 147.866 10.3444C147.866 10.3876 147.845 10.4308 147.803 10.4739C147.698 10.6466 147.625 10.7545 147.583 10.7976C147.436 10.9271 147.331 11.0135 147.268 11.0566C147.226 11.0782 147.184 11.1106 147.142 11.1537C146.953 11.348 146.837 11.4559 146.795 11.4774C146.774 11.4774 146.753 11.4882 146.732 11.5098C146.627 11.5961 146.554 11.6933 146.512 11.8012C146.428 11.8012 146.365 11.8335 146.323 11.8983C146.302 11.9414 146.26 11.9738 146.197 11.9954C146.029 12.1249 145.935 12.2004 145.914 12.222C145.914 12.222 145.893 12.2436 145.851 12.2867C145.725 12.3947 145.63 12.481 145.567 12.5457C145.525 12.5889 145.483 12.632 145.441 12.6752C145.273 12.8694 145.179 12.9881 145.158 13.0313C145.137 13.0529 145.105 13.0853 145.063 13.1284C144.937 13.3226 144.864 13.4306 144.843 13.4521C144.822 13.4521 144.801 13.4737 144.78 13.5169C144.654 13.6895 144.559 13.8082 144.496 13.873C144.433 13.9377 144.381 14.0132 144.339 14.0996C144.234 14.2938 144.171 14.4125 144.15 14.4557C144.129 14.4772 144.129 14.5096 144.15 14.5528C144.087 14.7038 144.024 14.801 143.961 14.8441C143.919 14.8873 143.888 14.9412 143.867 15.006C143.888 15.1355 143.877 15.2542 143.835 15.3621C143.793 15.47 143.772 15.5779 143.772 15.6858C143.772 15.9232 143.793 16.0635 143.835 16.1066C143.877 16.3656 143.93 16.5598 143.993 16.6893C144.056 16.7972 144.108 16.9159 144.15 17.0454C144.192 17.1317 144.223 17.2289 144.244 17.3368C144.286 17.4231 144.328 17.5094 144.37 17.5957C144.454 17.8115 144.517 17.9518 144.559 18.0166C144.601 18.0597 144.643 18.1137 144.685 18.1784C144.832 18.3511 144.916 18.4482 144.937 18.4698C144.979 18.4698 145.011 18.4914 145.032 18.5345C145.074 18.664 145.105 18.7503 145.126 18.7935C145.168 18.8151 145.2 18.8474 145.221 18.8906C145.305 19.0201 145.368 19.1388 145.41 19.2467C145.473 19.333 145.536 19.4193 145.599 19.5057C145.683 19.6783 145.725 19.7862 145.725 19.8294C145.746 19.851 145.777 19.8833 145.819 19.9265C145.924 20.1207 145.987 20.2286 146.008 20.2502C146.155 20.4876 146.229 20.6063 146.229 20.6063C146.25 20.5847 146.26 20.5955 146.26 20.6387C146.323 20.8977 146.365 21.0919 146.386 21.2214C146.428 21.3509 146.47 21.4804 146.512 21.6098C146.554 21.7177 146.585 21.8041 146.606 21.8688C146.648 21.912 146.69 21.9551 146.732 21.9983L146.858 22.4191C146.963 22.635 147.026 22.7536 147.047 22.7752C147.068 22.7968 147.079 22.8184 147.079 22.84C147.121 23.0342 147.142 23.1745 147.142 23.2608C147.142 23.3471 147.163 23.4335 147.205 23.5198C147.226 23.6061 147.247 23.6924 147.268 23.7788C147.289 23.8435 147.299 23.9298 147.299 24.0377C147.299 24.232 147.31 24.3507 147.331 24.3938C147.352 24.437 147.362 24.4802 147.362 24.5233C147.362 24.5881 147.352 24.6852 147.331 24.8147C147.31 24.9226 147.299 25.0197 147.299 25.106C147.32 25.2355 147.32 25.3218 147.299 25.365C147.299 25.3866 147.299 25.4189 147.299 25.4621C147.257 25.7211 147.215 25.8829 147.173 25.9477C147.152 26.0124 147.142 26.0772 147.142 26.1419C147.016 26.4009 146.942 26.5627 146.921 26.6275C146.921 26.6706 146.9 26.7138 146.858 26.757C146.795 26.908 146.753 27.0052 146.732 27.0483C146.732 27.0915 146.711 27.1346 146.669 27.1778C146.627 27.2857 146.543 27.4044 146.417 27.5339C146.313 27.7497 146.208 27.8792 146.103 27.9224C146.103 28.0087 146.082 28.0842 146.04 28.149C145.998 28.1921 145.956 28.2461 145.914 28.3108C145.83 28.3971 145.788 28.4619 145.788 28.5051C145.788 28.5482 145.777 28.5914 145.756 28.6345C145.567 28.8288 145.452 28.9583 145.41 29.023C145.389 29.0662 145.336 29.1093 145.252 29.1525C145.147 29.2604 145.042 29.3899 144.937 29.541C144.832 29.6704 144.748 29.8215 144.685 29.9942C144.538 30.0805 144.444 30.1668 144.402 30.2531C144.297 30.4258 144.234 30.5229 144.213 30.5445C144.192 30.5445 144.171 30.5661 144.15 30.6092C144.087 30.7171 144.035 30.8035 143.993 30.8682C143.972 30.9114 143.951 30.9545 143.93 30.9977C143.72 31.1272 143.615 31.2027 143.615 31.2243C143.51 31.3322 143.436 31.3969 143.394 31.4185C143.373 31.4401 143.342 31.4617 143.3 31.4833C143.153 31.6127 143.079 31.6883 143.079 31.7099C143.079 31.7314 143.069 31.753 143.048 31.7746C142.922 31.9904 142.827 32.1199 142.764 32.1631C142.722 32.2278 142.67 32.2926 142.607 32.3573C142.481 32.422 142.407 32.5192 142.386 32.6486C142.197 32.7997 142.082 32.886 142.04 32.9076C142.019 32.9292 141.956 32.9616 141.851 33.0047C141.62 33.0479 141.484 33.0479 141.442 33.0047C141.421 32.9616 141.358 32.9508 141.253 32.9724C141.064 32.8213 140.959 32.7458 140.938 32.7458C140.938 32.7673 140.927 32.7673 140.906 32.7458C140.864 32.7026 140.822 32.6486 140.78 32.5839C140.759 32.5192 140.728 32.4652 140.686 32.422C140.497 32.2494 140.392 32.1523 140.371 32.1307C140.371 32.1091 140.35 32.1091 140.308 32.1307C140.077 31.9365 139.898 31.753 139.773 31.5804C139.626 31.4725 139.531 31.4185 139.489 31.4185C139.447 31.3969 139.395 31.3754 139.332 31.3538C139.206 31.0948 139.122 30.9221 139.08 30.8358C138.87 30.6416 138.754 30.5337 138.733 30.5121C138.733 30.4689 138.712 30.4366 138.67 30.415L138.229 29.9618C138.082 29.6812 137.967 29.4978 137.883 29.4115C137.883 29.282 137.851 29.1957 137.788 29.1525C137.725 29.0877 137.684 29.0014 137.663 28.8935C137.663 28.8288 137.673 28.764 137.694 28.6993C137.736 28.613 137.778 28.5374 137.82 28.4727C137.904 28.2784 137.977 28.149 138.04 28.0842C138.124 27.9979 138.198 27.9331 138.261 27.89C138.408 27.7821 138.513 27.6742 138.576 27.5663C138.828 27.2857 138.996 27.1131 139.08 27.0483C139.122 26.9836 139.153 26.9188 139.174 26.8541C139.216 26.7678 139.279 26.703 139.363 26.6599C139.552 26.444 139.699 26.2822 139.804 26.1743C139.909 26.0664 140.014 25.9585 140.119 25.8506C140.224 25.7211 140.329 25.5808 140.434 25.4297C140.602 25.2139 140.696 25.0952 140.717 25.0736C140.759 25.0305 140.791 24.9873 140.812 24.9441C140.98 24.7068 141.064 24.5665 141.064 24.5233C141.085 24.4586 141.106 24.4046 141.127 24.3615C141.295 24.1025 141.4 23.8975 141.442 23.7464C141.505 23.5953 141.505 23.4227 141.442 23.2284L141.41 22.8723C141.305 22.6781 141.242 22.5486 141.221 22.4839C141.2 22.3976 141.169 22.322 141.127 22.2573C140.98 22.063 140.875 21.9551 140.812 21.9336C140.791 21.8257 140.749 21.7501 140.686 21.707C140.623 21.6422 140.57 21.5559 140.528 21.448C140.465 21.3832 140.423 21.3185 140.402 21.2538C140.402 21.189 140.381 21.1351 140.339 21.0919C140.213 20.9192 140.129 20.7898 140.087 20.7034C140.045 20.6171 140.003 20.5308 139.961 20.4445C139.878 20.2934 139.825 20.2179 139.804 20.2179C139.783 20.1963 139.762 20.1639 139.741 20.1207L139.458 19.797C139.416 19.6891 139.363 19.592 139.3 19.5057C139.258 19.3978 139.206 19.2899 139.143 19.182C139.101 19.0956 139.048 19.0093 138.985 18.923C138.943 18.8367 138.901 18.7395 138.859 18.6316C138.775 18.4806 138.733 18.3942 138.733 18.3727C138.733 18.3511 138.723 18.3295 138.702 18.3079C138.555 18.0921 138.481 17.9734 138.481 17.9518L138.261 17.5634C138.177 17.3691 138.124 17.272 138.103 17.272C138.103 17.2504 138.103 17.2289 138.103 17.2073C138.019 17.0994 137.967 17.0346 137.946 17.013C137.925 16.9699 137.904 16.9267 137.883 16.8836C137.82 16.6677 137.788 16.5383 137.788 16.4951C137.725 16.2361 137.673 16.0743 137.631 16.0095C137.61 15.9448 137.6 15.8692 137.6 15.7829C137.642 15.5671 137.684 15.3729 137.725 15.2002C137.767 15.006 137.799 14.8981 137.82 14.8765C137.841 14.8333 137.862 14.7902 137.883 14.747C137.925 14.5096 137.935 14.3154 137.914 14.1643C137.914 13.9917 137.935 13.8514 137.977 13.7435C138.082 13.5492 138.166 13.3658 138.229 13.1932C138.334 12.9558 138.397 12.8047 138.418 12.74C138.439 12.6536 138.46 12.5889 138.481 12.5457C138.523 12.3947 138.597 12.2544 138.702 12.1249C138.828 11.9522 138.901 11.8551 138.922 11.8335C138.943 11.7904 138.964 11.7472 138.985 11.7041C139.195 11.5098 139.332 11.3588 139.395 11.2508C139.5 11.0998 139.584 10.9919 139.647 10.9271C139.731 10.8624 139.804 10.7761 139.867 10.6682C139.909 10.5818 139.94 10.5171 139.961 10.4739C140.003 10.4308 140.045 10.3876 140.087 10.3444C140.234 10.2365 140.318 10.161 140.339 10.1178C140.36 10.0531 140.392 9.99914 140.434 9.95597C140.497 9.89123 140.56 9.83728 140.623 9.79411C140.707 9.72937 140.77 9.66463 140.812 9.59988C140.854 9.55672 140.885 9.51356 140.906 9.47039C140.948 9.42723 140.99 9.37328 141.032 9.30854C141.305 9.15747 141.473 9.04956 141.536 8.98482C141.599 8.92007 141.673 8.86612 141.757 8.82296C141.967 8.67189 142.134 8.53161 142.26 8.40212C142.407 8.27264 142.481 8.20789 142.481 8.20789C142.502 8.20789 142.523 8.18631 142.544 8.14315C142.628 8.0784 142.712 8.01366 142.796 7.94892C142.88 7.86259 142.974 7.77627 143.079 7.68994C143.205 7.49571 143.279 7.3986 143.3 7.3986C143.321 7.3986 143.331 7.3878 143.331 7.36622C143.562 7.17199 143.751 7.06409 143.898 7.0425C144.066 7.02092 144.171 7.06409 144.213 7.17199Z" fill="#1B1F2E"/>
<defs>
<clipPath id="clip0_663_1346">
<rect width="24.8521" height="21.6551" fill="white" transform="translate(8.17847 9.47607)"/>
</clipPath>
</defs>
</svg>
